<?xml version="1.0" standalone="no"?>
<!DOCTYPE svg PUBLIC "-//W3C//DTD SVG 1.1//EN" "http://www.w3.org/Graphics/SVG/1.1/DTD/svg11.dtd" >
<svg>
<metadata>
Created by FontForge 20090914 at Thu Oct 28 19:34:05 2021
 By www-data
Copyright 2019 Black Foundry
</metadata>
<defs>
<font id="Galien-Bold" horiz-adv-x="501" >
  <font-face 
    font-family="Galien"
    font-weight="700"
    font-style="italic"
    font-stretch="normal"
    units-per-em="1000"
    panose-1="2 0 0 0 0 0 0 0 0 0"
    ascent="720"
    descent="-280"
    x-height="362"
    cap-height="570"
    bbox="-130 -280 1003 868"
    underline-thickness="27"
    underline-position="-87"
    slope="-360"
    unicode-range="U+000D-U+FB06"
  />
<missing-glyph horiz-adv-x="600" 
d="M503 0h-406v780h406v-780zM132 748v-716h336v716h-336zM338 391l69 -69l-36 -36l-69 69l-69 -69l-35 36l69 69l-69 68l35 36l69 -69l69 69l36 -36z" />
    <glyph glyph-name="ff" unicode="ff" horiz-adv-x="553" 
d="M223 17l0.000976562 -16.999h-203v17l25 7c10 2.66699 16.5 6.16699 19.5 10.5s4.5 12.166 4.5 23.499v247h-54v17l54 36v29c0 91.333 19.5 161.333 58.5 210s93.5 73 163.5 73c21.333 0 42.166 -2.66699 62.499 -8s39.166 -13 56.499 -23c16 13.333 34.333 23.5 55 30.5
s43 10.5 67 10.5c26.667 0 50.167 -4 70.5 -12s30.5 -18 30.5 -30c0 -4 -2.16699 -9.5 -6.5 -16.5s-12.833 -18.167 -25.5 -33.5h-7c-24 22.667 -43.5 38.667 -58.5 48s-29.167 14 -42.5 14c-20 0 -34.667 -11.5 -44 -34.5s-14 -58.167 -14 -105.5v-148h115v-57h-115v-247
c0 -10.667 1.33301 -18 4 -22s9.33398 -7 20.001 -9l45 -10v-17h-223v17l25 7c10 2.66699 16.5 6.16699 19.5 10.5s4.5 12.166 4.5 23.499v247h-156v-247c0 -11.333 1.5 -19.166 4.5 -23.499s9.5 -7.83301 19.5 -10.5zM249.001 640.001c-22 0 -40 -12.6689 -54 -38.002
s-21 -59.333 -21 -102v-138h156v35c0 34.667 2.5 66.334 7.5 95.001s12.167 54 21.5 76c-20.667 24.667 -40 42.834 -58 54.501s-35.333 17.5 -52 17.5z" />
    <glyph glyph-name="fi" unicode="fi" horiz-adv-x="498" 
d="M223 17l0.00195312 -17.001h-203v17l25 7c10 2.66699 16.5 6.16699 19.5 10.5s4.5 12.166 4.5 23.499v247h-54v17l54 36v39c0 91.333 19.667 161.333 59 210s93.666 73 162.999 73c34.667 0 67 -5 97 -15s45 -23 45 -39c0 -5.33301 -3.16699 -13.166 -9.5 -23.499
s-18.5 -26.5 -36.5 -48.5h-10c-34 34 -61.167 58.5 -81.5 73.5s-36.5 22.5 -48.5 22.5c-20.667 0 -38 -12.5 -52 -37.5s-21 -59.167 -21 -102.5v-148h126c25.333 0 48.666 0.833008 69.999 2.5s41 4.16699 59 7.5l11 -7c-2 -12 -3.33301 -23.833 -4 -35.5
s-1 -29.167 -1 -52.5v-219c0 -11.333 1.5 -19.166 4.5 -23.499s9.5 -7.83301 19.5 -10.5l25 -7v-17h-203v17l25 7c10 2.66699 16.5 6.16699 19.5 10.5s4.5 12.166 4.5 23.499v217c0 12 -1.5 20 -4.5 24s-8.5 6 -16.5 6h-135v-247c0 -11.333 1.5 -19.166 4.5 -23.499
s9.5 -7.83301 19.5 -10.5z" />
    <glyph glyph-name="fl" unicode="fl" horiz-adv-x="498" 
d="M223 17l-0.000976562 -17h-203v17l25 7c10 2.66699 16.5 6.16699 19.5 10.5s4.5 12.166 4.5 23.499v247h-54v17l54 36v39c0 91.333 19.5 161.333 58.5 210s93.5 73 163.5 73c16.667 0 31.834 -1 45.501 -3s28.5 -5.66699 44.5 -11l48 14l11 -7
c-2 -12 -3.33301 -23.833 -4 -35.5s-1 -29.167 -1 -52.5v-527c0 -11.333 1.5 -19.166 4.5 -23.499s9.5 -7.83301 19.5 -10.5l25 -7v-17h-203v17l25 7c10 2.66699 16.5 6.16699 19.5 10.5s4.5 12.166 4.5 23.499v247h-156v-247c0 -11.333 1.5 -19.166 4.5 -23.499
s9.5 -7.83301 19.5 -10.5zM248.999 650c-22 0 -40 -12.667 -54 -38s-21 -59.333 -21 -102v-148h156v232c-20.667 22.667 -36.667 37.667 -48 45s-22.333 11 -33 11z" />
    <glyph glyph-name="ffi" unicode="ffi" horiz-adv-x="759" 
d="M223 17l0.000976562 -17.002h-203v17l25 7c10 2.66699 16.5 6.16699 19.5 10.5s4.5 12.166 4.5 23.499v247h-54v17l54 36v29c0 91.333 19.5 161.333 58.5 210s93.5 73 163.5 73c23.333 0 45.833 -3 67.5 -9s41.167 -14.667 58.5 -26c18 14.667 38.5 25.834 61.5 33.501
s47.5 11.5 73.5 11.5c34.667 0 67 -5 97 -15s45 -23 45 -39c0 -5.33301 -3.16699 -13.166 -9.5 -23.499s-18.5 -26.5 -36.5 -48.5h-10c-34 34 -61.167 58.5 -81.5 73.5s-36.5 22.5 -48.5 22.5c-20.667 0 -38 -12.5 -52 -37.5s-21 -59.167 -21 -102.5v-148h126
c25.333 0 48.666 0.833008 69.999 2.5s41 4.16699 59 7.5l11 -7c-2 -12 -3.33301 -23.833 -4 -35.5s-1 -29.167 -1 -52.5v-219c0 -11.333 1.5 -19.166 4.5 -23.499s9.5 -7.83301 19.5 -10.5l25 -7v-17h-203v17l25 7c10 2.66699 16.5 6.16699 19.5 10.5
s4.5 12.166 4.5 23.499v217c0 12 -1.5 20 -4.5 24s-8.5 6 -16.5 6h-135v-247c0 -11.333 1.5 -19.166 4.5 -23.499s9.5 -7.83301 19.5 -10.5l25 -7v-17h-203v17l25 7c10 2.66699 16.5 6.16699 19.5 10.5s4.5 12.166 4.5 23.499v247h-156v-247
c0 -11.333 1.5 -19.166 4.5 -23.499s9.5 -7.83301 19.5 -10.5zM249.001 639.998c-22 0 -40.002 -12.667 -54.002 -38s-21 -59.333 -21 -102v-138h156v35c0 34 2.66699 65 8 93s13.333 53 24 75c-21.333 26 -41.166 45 -59.499 57s-36.166 18 -53.499 18z" />
    <glyph glyph-name="f_f_l" unicode="ffl" horiz-adv-x="759" 
d="M223 17l0.000976562 -17.001h-203v17l25 7c10 2.66699 16.5 6.16699 19.5 10.5s4.5 12.166 4.5 23.499v247h-54v17l54 36v29c0 91.333 19.5 161.333 58.5 210s93.5 73 163.5 73c23.333 0 45.666 -3 66.999 -9s40.666 -14.667 57.999 -26
c18 14.667 38.5 25.834 61.5 33.501s47.833 11.5 74.5 11.5c16.667 0 31.834 -1 45.501 -3s28.5 -5.66699 44.5 -11l48 14l11 -7c-2 -12 -3.33301 -23.833 -4 -35.5s-1 -29.167 -1 -52.5v-527c0 -11.333 1.5 -19.166 4.5 -23.499s9.5 -7.83301 19.5 -10.5l25 -7v-17h-203v17
l25 7c10 2.66699 16.5 6.16699 19.5 10.5s4.5 12.166 4.5 23.499v247h-156v-247c0 -11.333 1.5 -19.166 4.5 -23.499s9.5 -7.83301 19.5 -10.5l25 -7v-17h-203v17l25 7c10 2.66699 16.5 6.16699 19.5 10.5s4.5 12.166 4.5 23.499v247h-156v-247
c0 -11.333 1.5 -19.166 4.5 -23.499s9.5 -7.83301 19.5 -10.5zM510.001 649.999c-22 0 -40 -12.667 -54 -38s-21 -59.333 -21 -102v-148h156v232c-20.667 22.667 -36.667 37.667 -48 45s-22.333 11 -33 11zM249.001 639.999c-22 0 -40.002 -12.667 -54.002 -38
s-21 -59.333 -21 -102v-138h156v35c0 33.333 2.66699 64 8 92s13.333 53.333 24 76c-21.333 26 -41.166 45 -59.499 57s-36.166 18 -53.499 18z" />
    <glyph glyph-name="fj" unicode="fj" horiz-adv-x="498" 
d="M243 17l0.000976562 -17.001h-223v17l25 7c10 2.66699 16.5 6.16699 19.5 10.5s4.5 12.166 4.5 23.499v247h-54v17l54 36v39c0 91.333 19.667 161.333 59 210s93.666 73 162.999 73c34.667 0 67 -5 97 -15s45 -23 45 -39c0 -5.33301 -3.16699 -13.166 -9.5 -23.499
s-18.5 -26.5 -36.5 -48.5h-10c-34 34 -61.167 58.5 -81.5 73.5s-36.5 22.5 -48.5 22.5c-20.667 0 -38 -12.5 -52 -37.5s-21 -59.167 -21 -102.5v-148h126c25.333 0 48.666 0.833008 69.999 2.5s41 4.16699 59 7.5l11 -7c-2 -12 -3.33301 -23.833 -4 -35.5
s-1 -29.167 -1 -52.5v-323c0 -26.667 -12.833 -52.667 -38.5 -78s-65.167 -50.666 -118.5 -75.999l-10 18c24 16.667 40.333 34.167 49 52.5s13 42.833 13 73.5v331c0 12 -1.5 20 -4.5 24s-8.5 6 -16.5 6h-135v-247c0 -10.667 1.33301 -18 4 -22s9.33398 -7 20.001 -9z" />
    <glyph glyph-name="f_b" unicode="fb" horiz-adv-x="739" 
d="M243 17l-0.00292969 -16.999h-223v17l25 7c10 2.66699 16.5 6.16699 19.5 10.5s4.5 12.166 4.5 23.499v247h-54v17l54 36v39c0 91.333 19.5 161.333 58.5 210s93.5 73 163.5 73c16.667 0 31.834 -1 45.501 -3s28.5 -5.66699 44.5 -11l48 14l11 -7
c-2 -12 -3.33301 -23.833 -4 -35.5s-1 -29.167 -1 -52.5v-267c20 16 41.333 29 64 39s41.667 15 57 15c47.333 0 85.5 -15.5 114.5 -46.5s43.5 -72.167 43.5 -123.5c0 -64 -20.5 -115.333 -61.5 -154s-94.167 -58 -159.5 -58c-28.667 0 -58.667 4.16699 -90 12.5
s-55.666 18.5 -72.999 30.5v272h-156v-247c0 -10.667 1.33301 -18 4 -22s9.33398 -7 20.001 -9zM248.997 650.001c-22 0 -40 -12.667 -54 -38s-21 -59.333 -21 -102v-148h156v232c-20.667 22.667 -36.667 37.667 -48 45s-22.333 11 -33 11zM434.997 292.001
l0.000976562 -190.999c0 -26.667 6.16699 -47.334 18.5 -62.001s30.166 -22 53.499 -22c30 0 53.667 12.5 71 37.5s26 59.167 26 102.5c0 46.667 -9.16699 83.334 -27.5 110.001s-42.833 40 -73.5 40c-14 0 -26.667 -1.33301 -38 -4s-21.333 -6.33398 -30 -11.001z" />
    <glyph glyph-name="f_h" unicode="fh" horiz-adv-x="729" 
d="M223 17v-17.001h-203v17l25 7c10 2.66699 16.5 6.16699 19.5 10.5s4.5 12.166 4.5 23.499v247h-54v17l54 36v39c0 91.333 19.5 161.333 58.5 210s93.5 73 163.5 73c16.667 0 31.834 -1 45.501 -3s28.5 -5.66699 44.5 -11l48 14l11 -7c-2 -12 -3.33301 -23.833 -4 -35.5
s-1 -29.167 -1 -52.5v-267c18 14.667 38.167 27.334 60.5 38.001s40.5 16 54.5 16c38.667 0 68.5 -10.667 89.5 -32s31.5 -52 31.5 -92v-190c0 -11.333 1.5 -19.166 4.5 -23.499s9.5 -7.83301 19.5 -10.5l25 -7v-17h-203v17l25 7c10 2.66699 16.5 6.16699 19.5 10.5
s4.5 12.166 4.5 23.499v169c0 28 -5.5 48.833 -16.5 62.5s-27.5 20.5 -49.5 20.5c-10.667 0 -21.334 -1.5 -32.001 -4.5s-21.667 -7.83301 -33 -14.5v-233c0 -11.333 1.5 -19.166 4.5 -23.499s9.5 -7.83301 19.5 -10.5l25 -7v-17h-203v17l25 7
c10 2.66699 16.5 6.16699 19.5 10.5s4.5 12.166 4.5 23.499v247h-156v-247c0 -11.333 1.5 -19.166 4.5 -23.499s9.5 -7.83301 19.5 -10.5zM249 649.999c-22 0 -40 -12.667 -54 -38s-21 -59.333 -21 -102v-148h156v232c-20.667 22.667 -36.667 37.667 -48 45
s-22.333 11 -33 11z" />
    <glyph glyph-name="f_k" unicode="fk" horiz-adv-x="744" 
d="M223 17l-0.000976562 -17h-203v17l25 7c10 2.66699 16.5 6.16699 19.5 10.5s4.5 12.166 4.5 23.499v247h-54v17l54 36v39c0 91.333 19.5 161.333 58.5 210s93.5 73 163.5 73c16.667 0 31.834 -1 45.501 -3s28.5 -5.66699 44.5 -11l48 14l11 -7
c-2 -12 -3.33301 -23.833 -4 -35.5s-1 -29.167 -1 -52.5v-527c0 -11.333 1.5 -19.166 4.5 -23.499s9.5 -7.83301 19.5 -10.5l25 -7v-17h-203v17l25 7c10 2.66699 16.5 6.16699 19.5 10.5s4.5 12.166 4.5 23.499v247h-156v-247c0 -11.333 1.5 -19.166 4.5 -23.499
s9.5 -7.83301 19.5 -10.5zM248.999 650c-22 0 -40 -12.667 -54 -38s-21 -59.333 -21 -102v-148h156v232c-20.667 22.667 -36.667 37.667 -48 45s-22.333 11 -33 11zM741.999 17v-17h-208v17l27 4c5.33301 0.666992 8.83301 2.5 10.5 5.5s0.833984 6.83301 -2.49902 11.5
l-120 158v7l127 117c4 3.33301 5.16699 7 3.5 11s-4.83398 6.33301 -9.50098 7l-49 7v17h196v-17l-49 -10c-9.33301 -2 -16.5 -4 -21.5 -6s-11.167 -5.66699 -18.5 -11l-92 -68l149 -199c8.66699 -11.333 15.5 -18.833 20.5 -22.5s10.5 -6.16699 16.5 -7.5z" />
    <glyph glyph-name="f_f_f" unicode="fff" horiz-adv-x="813" 
d="M223 17l-0.000976562 -16.999h-203v17l25 7c10 2.66699 16.5 6.16699 19.5 10.5s4.5 12.166 4.5 23.499v247h-54v17l54 36v29c0 91.333 19.5 161.333 58.5 210s93.5 73 163.5 73c24.667 0 48.334 -3.33301 71.001 -10s43 -16.334 61 -29.001
c17.333 12.667 36.833 22.334 58.5 29.001s44.834 10 69.501 10c21.333 0 42.166 -2.66699 62.499 -8s39.166 -13 56.499 -23c16 13.333 34.333 23.5 55 30.5s43 10.5 67 10.5c26.667 0 50.167 -4 70.5 -12s30.5 -18 30.5 -30c0 -4 -2.16699 -9.5 -6.5 -16.5
s-12.833 -18.167 -25.5 -33.5h-7c-24 22.667 -43.5 38.667 -58.5 48s-29.167 14 -42.5 14c-20 0 -34.667 -11.5 -44 -34.5s-14 -58.167 -14 -105.5v-148h115v-57h-115v-247c0 -10.667 1.33301 -18 4 -22s9.33398 -7 20.001 -9l45 -10v-17h-223v17l25 7
c10 2.66699 16.5 6.16699 19.5 10.5s4.5 12.166 4.5 23.499v247h-156v-247c0 -11.333 1.5 -19.166 4.5 -23.499s9.5 -7.83301 19.5 -10.5l25 -7v-17h-203v17l25 7c10 2.66699 16.5 6.16699 19.5 10.5s4.5 12.166 4.5 23.499v247h-155v-247
c0 -11.333 1.5 -19.166 4.5 -23.499s9.5 -7.83301 19.5 -10.5zM248.999 640.001c-22 0 -39.999 -12.666 -53.999 -37.999s-21 -59.333 -21 -102v-138h155v25c0 36 3 68.5 9 97.5s15 54.833 27 77.5c-22.667 27.333 -43.334 47.166 -62.001 59.499s-36.667 18.5 -54 18.5z
M509 640.002c-22 0 -40 -12.6689 -54 -38.002s-21 -59.333 -21 -102v-138h156v35c0 34.667 2.5 66.334 7.5 95.001s12.167 54 21.5 76c-20.667 24.667 -40 42.834 -58 54.501s-35.333 17.5 -52 17.5z" />
    <glyph glyph-name="f_f_j" unicode="ffj" horiz-adv-x="759" 
d="M223 17l0.000976562 -17.0029h-203v17l25 7c10 2.66699 16.5 6.16699 19.5 10.5s4.5 12.166 4.5 23.499v247h-54v17l54 36v29c0 91.333 19.5 161.333 58.5 210s93.5 73 163.5 73c23.333 0 45.833 -3 67.5 -9s41.167 -14.667 58.5 -26c18 14.667 38.5 25.834 61.5 33.501
s47.5 11.5 73.5 11.5c34.667 0 67 -5 97 -15s45 -23 45 -39c0 -5.33301 -3.16699 -13.166 -9.5 -23.499s-18.5 -26.5 -36.5 -48.5h-10c-34 34 -61.167 58.5 -81.5 73.5s-36.5 22.5 -48.5 22.5c-20.667 0 -38 -12.5 -52 -37.5s-21 -59.167 -21 -102.5v-148h126
c25.333 0 48.666 0.833008 69.999 2.5s41 4.16699 59 7.5l11 -7c-2 -12 -3.33301 -23.833 -4 -35.5s-1 -29.167 -1 -52.5v-323c0 -26.667 -12.833 -52.667 -38.5 -78s-65.167 -50.666 -118.5 -75.999l-10 18c24 16.667 40.333 34.167 49 52.5s13 42.833 13 73.5v331
c0 12 -1.5 20 -4.5 24s-8.5 6 -16.5 6h-135v-247c0 -11.333 1.5 -19.166 4.5 -23.499s9.5 -7.83301 19.5 -10.5l25 -7v-17h-203v17l25 7c10 2.66699 16.5 6.16699 19.5 10.5s4.5 12.166 4.5 23.499v247h-156v-247c0 -11.333 1.5 -19.166 4.5 -23.499
s9.5 -7.83301 19.5 -10.5zM249.001 639.997c-22 0 -40.002 -12.667 -54.002 -38s-21 -59.333 -21 -102v-138h156v35c0 34 2.66699 65 8 93s13.333 53 24 75c-21.333 26 -41.166 45 -59.499 57s-36.166 18 -53.499 18z" />
    <glyph glyph-name="f_f_b" unicode="ffb" horiz-adv-x="1000" 
d="M223 17l-0.000976562 -17h-203v17l25 7c10 2.66699 16.5 6.16699 19.5 10.5s4.5 12.166 4.5 23.499v247h-54v17l54 36v29c0 91.333 19.5 161.333 58.5 210s93.5 73 163.5 73c23.333 0 45.666 -3 66.999 -9s40.666 -14.667 57.999 -26c18 14.667 38.5 25.834 61.5 33.501
s47.833 11.5 74.5 11.5c16.667 0 31.834 -1 45.501 -3s28.5 -5.66699 44.5 -11l48 14l11 -7c-2 -12 -3.33301 -23.833 -4 -35.5s-1 -29.167 -1 -52.5v-267c20 16 41.333 29 64 39s41.667 15 57 15c47.333 0 85.5 -15.5 114.5 -46.5s43.5 -72.167 43.5 -123.5
c0 -64 -20.5 -115.333 -61.5 -154s-94.167 -58 -159.5 -58c-28.667 0 -58.667 4.16699 -90 12.5s-55.666 18.5 -72.999 30.5v272h-156v-247c0 -10.667 1.33301 -18 4 -22s9.33398 -7 20.001 -9l45 -10v-17h-223v17l25 7c10 2.66699 16.5 6.16699 19.5 10.5
s4.5 12.166 4.5 23.499v247h-156v-247c0 -11.333 1.5 -19.166 4.5 -23.499s9.5 -7.83301 19.5 -10.5zM509.999 650c-22 0 -40 -12.667 -54 -38s-21 -59.333 -21 -102v-148h156v232c-20.667 22.667 -36.667 37.667 -48 45s-22.333 11 -33 11zM248.999 640
c-22 0 -40.002 -12.667 -54.002 -38s-21 -59.333 -21 -102v-138h156v35c0 33.333 2.66699 64 8 92s13.333 53.333 24 76c-21.333 26 -41.166 45 -59.499 57s-36.166 18 -53.499 18zM695.997 292l0.000976562 -190.999c0 -26.667 6.16699 -47.334 18.5 -62.001
s30.166 -22 53.499 -22c30 0 53.667 12.5 71 37.5s26 59.167 26 102.5c0 46.667 -9.16699 83.334 -27.5 110.001s-42.833 40 -73.5 40c-14 0 -26.667 -1.33301 -38 -4s-21.333 -6.33398 -30 -11.001z" />
    <glyph glyph-name="f_f_h" unicode="ffh" horiz-adv-x="990" 
d="M223 17l0.00195312 -17.002h-203v17l25 7c10 2.66699 16.5 6.16699 19.5 10.5s4.5 12.166 4.5 23.499v247h-54v17l54 36v29c0 91.333 19.5 161.333 58.5 210s93.5 73 163.5 73c23.333 0 45.666 -3 66.999 -9s40.666 -14.667 57.999 -26
c18 14.667 38.5 25.834 61.5 33.501s47.833 11.5 74.5 11.5c16.667 0 31.834 -1 45.501 -3s28.5 -5.66699 44.5 -11l48 14l11 -7c-2 -12 -3.33301 -23.833 -4 -35.5s-1 -29.167 -1 -52.5v-267c18 14.667 38.167 27.334 60.5 38.001s40.5 16 54.5 16
c38.667 0 68.5 -10.667 89.5 -32s31.5 -52 31.5 -92v-190c0 -11.333 1.5 -19.166 4.5 -23.499s9.5 -7.83301 19.5 -10.5l25 -7v-17h-203v17l25 7c10 2.66699 16.5 6.16699 19.5 10.5s4.5 12.166 4.5 23.499v169c0 28 -5.5 48.833 -16.5 62.5s-27.5 20.5 -49.5 20.5
c-10.667 0 -21.334 -1.5 -32.001 -4.5s-21.667 -7.83301 -33 -14.5v-233c0 -11.333 1.5 -19.166 4.5 -23.499s9.5 -7.83301 19.5 -10.5l25 -7v-17h-203v17l25 7c10 2.66699 16.5 6.16699 19.5 10.5s4.5 12.166 4.5 23.499v247h-156v-247c0 -11.333 1.5 -19.166 4.5 -23.499
s9.5 -7.83301 19.5 -10.5l25 -7v-17h-203v17l25 7c10 2.66699 16.5 6.16699 19.5 10.5s4.5 12.166 4.5 23.499v247h-156v-247c0 -11.333 1.5 -19.166 4.5 -23.499s9.5 -7.83301 19.5 -10.5zM510.002 649.998c-22 0 -40 -12.667 -54 -38s-21 -59.333 -21 -102v-148h156v232
c-20.667 22.667 -36.667 37.667 -48 45s-22.333 11 -33 11zM249.002 639.998c-22 0 -40.002 -12.667 -54.002 -38s-21 -59.333 -21 -102v-138h156v35c0 33.333 2.66699 64 8 92s13.333 53.333 24 76c-21.333 26 -41.166 45 -59.499 57s-36.166 18 -53.499 18z" />
    <glyph glyph-name="f_f_k" unicode="ffk" horiz-adv-x="1005" 
d="M223 17l0.000976562 -17.001h-203v17l25 7c10 2.66699 16.5 6.16699 19.5 10.5s4.5 12.166 4.5 23.499v247h-54v17l54 36v29c0 91.333 19.5 161.333 58.5 210s93.5 73 163.5 73c23.333 0 45.666 -3 66.999 -9s40.666 -14.667 57.999 -26
c18 14.667 38.5 25.834 61.5 33.501s47.833 11.5 74.5 11.5c16.667 0 31.834 -1 45.501 -3s28.5 -5.66699 44.5 -11l48 14l11 -7c-2 -12 -3.33301 -23.833 -4 -35.5s-1 -29.167 -1 -52.5v-527c0 -11.333 1.5 -19.166 4.5 -23.499s9.5 -7.83301 19.5 -10.5l25 -7v-17h-203v17
l25 7c10 2.66699 16.5 6.16699 19.5 10.5s4.5 12.166 4.5 23.499v247h-156v-247c0 -11.333 1.5 -19.166 4.5 -23.499s9.5 -7.83301 19.5 -10.5l25 -7v-17h-203v17l25 7c10 2.66699 16.5 6.16699 19.5 10.5s4.5 12.166 4.5 23.499v247h-156v-247
c0 -11.333 1.5 -19.166 4.5 -23.499s9.5 -7.83301 19.5 -10.5zM510.001 649.999c-22 0 -40 -12.667 -54 -38s-21 -59.333 -21 -102v-148h156v232c-20.667 22.667 -36.667 37.667 -48 45s-22.333 11 -33 11zM249.001 639.999c-22 0 -40.002 -12.667 -54.002 -38
s-21 -59.333 -21 -102v-138h156v35c0 33.333 2.66699 64 8 92s13.333 53.333 24 76c-21.333 26 -41.166 45 -59.499 57s-36.166 18 -53.499 18zM982.999 20.999l20 -4v-17h-208v17l27 4c5.33301 0.666992 8.83301 2.5 10.5 5.5s0.833984 6.83301 -2.49902 11.5l-120 158v7
l127 117c4 3.33301 5.16699 7 3.5 11s-4.83398 6.33301 -9.50098 7l-49 7v17h196v-17l-49 -10c-9.33301 -2 -16.5 -4 -21.5 -6s-11.167 -5.66699 -18.5 -11l-92 -68l149 -199c8.66699 -11.333 15.5 -18.833 20.5 -22.5s10.5 -6.16699 16.5 -7.5z" />
    <glyph glyph-name=".notdef" horiz-adv-x="600" 
d="M503 0h-406v780h406v-780zM132 748v-716h336v716h-336zM338 391l69 -69l-36 -36l-69 69l-69 -69l-35 36l69 69l-69 68l35 36l69 -69l69 69l36 -36z" />
    <glyph glyph-name=".null" horiz-adv-x="0" 
 />
    <glyph glyph-name=".null" horiz-adv-x="0" 
 />
    <glyph glyph-name="CR" unicode="&#xd;" horiz-adv-x="0" 
 />
    <glyph glyph-name="space" unicode=" " horiz-adv-x="215" 
 />
    <glyph glyph-name="exclam" unicode="!" horiz-adv-x="285" 
d="M205 450l-52.001 -262h-22l-51 262c-1.33301 7.33301 -2.66602 16.333 -3.99902 27s-2 19 -2 25c0 24 6 43 18 57s28.667 21 50 21s38.166 -7 50.499 -21s18.5 -33 18.5 -57c0 -6 -0.666992 -14.333 -2 -25s-2.66602 -19.667 -3.99902 -27zM141.999 124
c19.333 0 35.5 -6.5 48.5 -19.5s19.5 -29.167 19.5 -48.5c0 -18.667 -6.5 -34.334 -19.5 -47.001s-29.167 -19 -48.5 -19c-18.667 0 -34.334 6.33301 -47.001 19s-19 28.334 -19 47.001c0 19.333 6.33301 35.5 19 48.5s28.334 19.5 47.001 19.5z" />
    <glyph glyph-name="quotedbl" unicode="&#x22;" horiz-adv-x="343" 
d="M105 374h-15.001l-44 168c-6 22.667 -4.16699 41.334 5.5 56.001s24.834 22 45.501 22s36 -7.33301 46 -22s12 -33.334 6 -56.001zM254.999 374h-15.001l-44 168c-6 22.667 -4.16699 41.334 5.5 56.001s24.834 22 45.501 22s36 -7.33301 46 -22s12 -33.334 6 -56.001z
" />
    <glyph glyph-name="numbersign" unicode="#" horiz-adv-x="495" 
d="M150 157l-30 -157h-32l30 157h-93l5 31h94l38 194h-93l5 31h94l30 157h32l-30 -157h145l30 157h32l-30 -157h93l-5 -31h-94l-38 -194h93l-5 -31h-94l-30 -157h-32l30 157h-145zM194 382l-38 -194h145l38 194h-145z" />
    <glyph glyph-name="dollar" unicode="$" horiz-adv-x="473" 
d="M226 -10h-15.998c-26 0 -52 3.16699 -78 9.5s-53 15.833 -81 28.5l-8 148h19l27 -63c13.333 -31.333 30.333 -54.833 51 -70.5s45.334 -23.5 74.001 -23.5c34.667 0 61.834 8.83301 81.501 26.5s29.5 42.167 29.5 73.5c0 24.667 -7.33301 46.5 -22 65.5
s-46.334 41.5 -95.001 67.5c-56 29.333 -92.667 56.166 -110 80.499s-26 52.833 -26 85.5c0 42 14.167 77.333 42.5 106s65.5 46.334 111.5 53.001v93h35v-90h1c25.333 0 49.666 -2.66699 72.999 -8s44.333 -13 63 -23l6 -113h-19l-17 42c-10 24 -24.333 42.333 -43 55
s-41.334 19 -68.001 19c-26 0 -47.333 -7.83301 -64 -23.5s-25 -35.5 -25 -59.5c0 -22.667 7.16699 -42.667 21.5 -60s45.166 -38.666 92.499 -63.999c30.667 -16 53 -28.833 67 -38.5s26 -19.5 36 -29.5c14.667 -15.333 25.667 -32.333 33 -51s11 -39.334 11 -62.001
c0 -45.333 -15 -83 -45 -113s-71 -49 -123 -57v-94h-35v90z" />
    <glyph glyph-name="percent" unicode="%" horiz-adv-x="615" 
d="M263 429c0 -43.333 -11.833 -79.167 -35.5 -107.5s-53.834 -42.5 -90.501 -42.5c-34.667 0 -63.667 14.667 -87 44s-35 65 -35 107c0 42.667 11.333 77.5 34 104.5s52.334 40.5 89.001 40.5c35.333 0 65 -14.167 89 -42.5s36 -62.833 36 -103.5zM91 428.999
c0 -44 3.83398 -76.833 11.501 -98.5s19.167 -32.5 34.5 -32.5c16.667 0 29.167 10.833 37.5 32.5s12.5 54.5 12.5 98.5c0 42.667 -4 74.667 -12 96s-20 32 -36 32c-16.667 0 -28.834 -10.333 -36.501 -31s-11.5 -53 -11.5 -97zM481.001 554.999l-323 -555l-28 15l326 555z
M600.001 143.999c0 -43.333 -11.833 -79.167 -35.5 -107.5s-53.834 -42.5 -90.501 -42.5c-34.667 0 -63.667 14.667 -87 44s-35 65 -35 107c0 42.667 11.333 77.5 34 104.5s52.334 40.5 89.001 40.5c35.333 0 65 -14.167 89 -42.5s36 -62.833 36 -103.5zM428.001 143.998
c0 -44 3.83398 -76.833 11.501 -98.5s19.167 -32.5 34.5 -32.5c16.667 0 29.167 10.833 37.5 32.5s12.5 54.5 12.5 98.5c0 42.667 -4 74.667 -12 96s-20 32 -36 32c-16.667 0 -28.834 -10.333 -36.501 -31s-11.5 -53 -11.5 -97z" />
    <glyph glyph-name="ampersand" unicode="&#x26;" horiz-adv-x="711" 
d="M418 101c-32.667 -38.667 -65.6699 -66.8271 -99.0029 -84.4941s-69 -26.5 -107 -26.5c-51.333 0 -93.666 14 -126.999 42s-50 64.333 -50 109c0 35.333 11.667 67.666 35 96.999s62 58.666 116 87.999c-21.333 20 -37.333 39.667 -48 59s-16 38.666 -16 57.999
c0 39.333 15.833 72 47.5 98s70.5 39 116.5 39c44.667 0 80.334 -9.16699 107.001 -27.5s40 -42.833 40 -73.5c0 -22.667 -8.33301 -42.167 -25 -58.5s-47 -33.5 -91 -51.5c34.667 -25.333 65.667 -51 93 -77s52.666 -53.667 75.999 -83l80 98c6 7.33301 8 12.833 6 16.5
s-8.66699 6.5 -20 8.5l-41 8v22h180v-21l-34 -8c-10.667 -2.66699 -19.167 -5.83398 -25.5 -9.50098s-13.5 -10.167 -21.5 -19.5l-107 -118l11.5 -16c4.33301 -6 10.5 -15.333 18.5 -28c17.333 -26.667 33.333 -45.834 48 -57.501s31 -17.5 49 -17.5
c10.667 0 21.834 2 33.501 6s24.5 10.333 38.5 19l9 -12c-30 -36.667 -54.5 -60.834 -73.5 -72.501s-40.833 -17.5 -65.5 -17.5c-29.333 0 -55.666 7.66699 -78.999 23s-44.666 39 -63.999 71c-0.666992 1.33301 -2.33398 4 -5.00098 8zM271.997 555.007
c-17.333 0 -31.166 -6.00098 -41.499 -18.001s-15.5 -27.667 -15.5 -47c0 -16 5 -31.167 15 -45.5s33 -34.833 69 -61.5c12 10.667 21 23.834 27 39.501s9 33.834 9 54.501c0 23.333 -5.83301 42.166 -17.5 56.499s-26.834 21.5 -45.501 21.5zM205.997 309.006
c-20.667 -17.333 -36 -36.001 -46 -56.001s-15 -41.667 -15 -65c0 -36.667 11.667 -66.167 35 -88.5s54 -33.5 92 -33.5c24 0 46.5 4.66699 67.5 14s41.833 24 62.5 44c-21.333 29.333 -46.5 58 -75.5 86s-61.5 55 -97.5 81c-6.66699 4.66699 -11.5 8.33398 -14.5 11.001
s-5.83301 5 -8.5 7z" />
    <glyph glyph-name="quotesingle" unicode="'" horiz-adv-x="193" 
d="M105 374h-15.001l-44 168c-6 22.667 -4.16699 41.334 5.5 56.001s24.834 22 45.501 22s36 -7.33301 46 -22s12 -33.334 6 -56.001z" />
    <glyph glyph-name="parenleft" unicode="(" horiz-adv-x="230" 
d="M94 253c0 -69.333 9.66602 -135.999 28.999 -199.999s45.666 -116 78.999 -156l-19 -19c-38 43.333 -68.5 99.166 -91.5 167.499s-34.5 137.5 -34.5 207.5s11.333 139 34 207s53.334 124 92.001 168l19 -19c-33.333 -40.667 -59.666 -93 -78.999 -157
s-29 -130.333 -29 -199z" />
    <glyph glyph-name="parenright" unicode=")" horiz-adv-x="230" 
d="M47 -122l-19.001 18.999c33.333 40 59.666 92 78.999 156s29 130.667 29 200c0 68.667 -9.66699 135 -29 199s-45.666 116.333 -78.999 157l19 19c38.667 -44 69.334 -100 92.001 -168s34 -137 34 -207s-11.5 -139.167 -34.5 -207.5s-53.5 -124.166 -91.5 -167.499z" />
    <glyph glyph-name="asterisk" unicode="*" horiz-adv-x="334" 
d="M195 411l6 -99l-20 -4l-28 95l-86 -65l-13 16l76 83l-100 53l8 19l101 -32l-7 100l20 3l29 -94l86 63l13 -16l-80 -81l104 -54l-7 -18z" />
    <glyph glyph-name="plus" unicode="+" horiz-adv-x="500" 
d="M267 223v-174h-34v174h-168v33h168v174h34v-174h167v-33h-167z" />
    <glyph glyph-name="comma" unicode="," horiz-adv-x="205" 
d="M170 47c0 -28 -10.835 -58 -32.502 -90s-51.5 -63.333 -89.5 -94l-18 20c28.667 26.667 47.5 47 56.5 61s13.5 27.667 13.5 41c0 12 -3.5 21.167 -10.5 27.5s-24.833 15.833 -53.5 28.5c6.66699 31.333 15.334 53.333 26.001 66s25.334 19 44.001 19
c19.333 0 34.833 -7.33301 46.5 -22s17.5 -33.667 17.5 -57z" />
    <glyph glyph-name="hyphen" unicode="-" horiz-adv-x="280" 
d="M260 223h-240v50h240v-50z" />
    <glyph glyph-name="period" unicode="." horiz-adv-x="205" 
d="M102 124c19.333 0 35.5 -6.5 48.5 -19.5s19.5 -29.167 19.5 -48.5c0 -18.667 -6.5 -34.334 -19.5 -47.001s-29.167 -19 -48.5 -19c-18.667 0 -34.334 6.33301 -47.001 19s-19 28.334 -19 47.001c0 19.333 6.33301 35.5 19 48.5s28.334 19.5 47.001 19.5z" />
    <glyph glyph-name="slash" unicode="/" horiz-adv-x="210" 
d="M219 570l-199 -580l-29 10l199 580z" />
    <glyph glyph-name="zero" unicode="0" horiz-adv-x="534" 
d="M266 580c66.667 0 121.667 -27.667 165 -83s65 -125.333 65 -210c0 -86 -21.667 -157 -65 -213s-98.333 -84 -165 -84c-66 0 -120.5 28 -163.5 84s-64.5 127 -64.5 213c0 84.667 21.5 154.667 64.5 210s97.5 83 163.5 83zM266 17c35.333 0 62.333 23 81 69s28 113 28 201
c0 86.667 -9.33301 152.667 -28 198s-45.667 68 -81 68c-34.667 0 -61.167 -22.667 -79.5 -68s-27.5 -111.333 -27.5 -198c0 -88 9.16699 -155 27.5 -201s44.833 -69 79.5 -69z" />
    <glyph glyph-name="one" unicode="1" horiz-adv-x="327" 
d="M303 17l0.000976562 -17h-260v17l51 10c10 2 16.667 5.33301 20 10s5 12.667 5 24v358c0 20.667 -3.33301 35.667 -10 45s-17 14 -31 14c-6.66699 0 -12.5 -0.5 -17.5 -1.5s-14.833 -3.83301 -29.5 -8.5l-9 20l199 99l11 -7c-2 -12 -3.33301 -23.833 -4 -35.5
s-1 -29.167 -1 -52.5v-431c0 -12 1.66699 -20.333 5 -25s9.66602 -7.66699 18.999 -9z" />
    <glyph glyph-name="two" unicode="2" horiz-adv-x="447" 
d="M425 162l-33.002 -162.001h-364v14l92.5 92.5c27 28.333 50.5 54.5 70.5 78.5c34 41.333 58.667 77.833 74 109.5s23 64.834 23 99.501c0 30.667 -9.16699 55.5 -27.5 74.5s-43.166 28.5 -74.499 28.5c-32 0 -59.333 -9.66699 -82 -29s-42.334 -50 -59.001 -92l-14 1
c10 63.333 31.833 113 65.5 149s75.834 54 126.501 54c54 0 96.5 -14.333 127.5 -43s46.5 -66 46.5 -112c0 -47.333 -17 -93.333 -51 -138s-97.667 -106 -191 -184v-3h189c16 0 27.333 2.16699 34 6.5s12.334 12.833 17.001 25.5l12 32z" />
    <glyph glyph-name="three" unicode="3" horiz-adv-x="432" 
d="M404 177c0 -54 -25.667 -98.667 -77 -134s-116.666 -53 -195.999 -53c-34.667 0 -62.167 5.5 -82.5 16.5s-30.5 26.167 -30.5 45.5c0 8.66699 3 18.5 9 29.5s14.333 21.833 25 32.5h7c18 -28 37.833 -49.167 59.5 -63.5s44.834 -21.5 69.501 -21.5
c37.333 0 67.166 10.833 89.499 32.5s33.5 50.167 33.5 85.5c0 34.667 -13.167 63 -39.5 85s-61.5 33 -105.5 33c-10.667 0 -22.667 -1.33301 -36 -4s-24.333 -5.66699 -33 -9l-8 25c61.333 21.333 105 43 131 65s39 49 39 81c0 22.667 -8.16699 40.667 -24.5 54
s-38.5 20 -66.5 20c-30.667 0 -56.5 -7.83301 -77.5 -23.5s-37.167 -39.167 -48.5 -70.5l-14 4c9.33301 54.667 30.333 97.167 63 127.5s74 45.5 124 45.5c44.667 0 80.667 -10.5 108 -31.5s41 -47.833 41 -80.5c0 -30 -8.83301 -54.5 -26.5 -73.5
s-48.834 -37.167 -93.501 -54.5v-2c48.667 -6 87.5 -23.667 116.5 -53s43.5 -65.333 43.5 -108z" />
    <glyph glyph-name="four" unicode="4" horiz-adv-x="493" 
d="M440 21v-21h-252v21l37 7c14.667 3.33301 24.167 7.5 28.5 12.5s6.5 14.833 6.5 29.5v75h-233v49l304 386h37v-378h98v-57h-98v-75c0 -14.667 2.16699 -24.5 6.5 -29.5s13.833 -9.16699 28.5 -12.5zM260 437l-188 -235h188v235z" />
    <glyph glyph-name="five" unicode="5" horiz-adv-x="415" 
d="M385 187c0 -59.333 -23.501 -107.001 -70.501 -143.001s-109.167 -54 -186.5 -54c-34.667 0 -62.167 5.5 -82.5 16.5s-30.5 26.167 -30.5 45.5c0 8.66699 3 18.5 9 29.5s14.333 21.833 25 32.5h7c18 -28 37.833 -49.167 59.5 -63.5s44.834 -21.5 69.501 -21.5
c34.667 0 61.5 9.5 80.5 28.5s28.5 45.167 28.5 78.5c0 39.333 -18.833 70.833 -56.5 94.5s-93.167 38.5 -166.5 44.5l-3 4l49 291h263l-15 -100h-230l-15 -94c83.333 -8 148.333 -28.667 195 -62s70 -75.666 70 -126.999z" />
    <glyph glyph-name="six" unicode="6" horiz-adv-x="471" 
d="M32 212c0 89.333 30.833 166.832 92.5 232.499s146.167 110.834 253.5 135.501l5 -18c-74.667 -30 -131.5 -74.667 -170.5 -134s-58.5 -130 -58.5 -212c0 -66.667 8 -116.5 24 -149.5s40.333 -49.5 73 -49.5c26 0 46.667 12.333 62 37s23 57.334 23 98.001
c0 39.333 -8.66699 71.166 -26 95.499s-41 36.5 -71 36.5c-12 0 -22 -1.16699 -30 -3.5s-15.667 -5.83301 -23 -10.5l-10 13c16 16.667 36.833 30.667 62.5 42s47.167 17 64.5 17c43.333 0 78.5 -14.5 105.5 -43.5s40.5 -66.167 40.5 -111.5
c0 -57.333 -19.5 -104.5 -58.5 -141.5s-88.167 -55.5 -147.5 -55.5c-65.333 0 -116.833 19.5 -154.5 58.5s-56.5 93.5 -56.5 163.5z" />
    <glyph glyph-name="seven" unicode="7" horiz-adv-x="433" 
d="M413 557l-228 -557.001h-68v13l224 455h-230c-14 0 -23.833 -2.16699 -29.5 -6.5s-11.167 -14.166 -16.5 -29.499l-11 -32l-16 2l13 168h362v-13z" />
    <glyph glyph-name="eight" unicode="8" horiz-adv-x="457" 
d="M301 325c49.333 -26.667 83.332 -52.502 101.999 -77.502s28 -54.167 28 -87.5c0 -53.333 -19.167 -95 -57.5 -125s-89.166 -45 -152.499 -45c-60 0 -107.5 13.333 -142.5 40s-52.5 63 -52.5 109c0 32 9.83301 60.333 29.5 85s48.834 45.334 87.501 62.001
c-30 18 -51.833 38 -65.5 60s-20.5 47 -20.5 75c0 48.667 17.5 87.334 52.5 116.001s82.5 43 142.5 43c46.667 0 84 -11.5 112 -34.5s42 -53.833 42 -92.5c0 -28 -9.33301 -53.333 -28 -76s-44.334 -40 -77.001 -52zM234.999 552.998
c-26 0 -46.834 -7.16797 -62.501 -21.501s-23.5 -33.5 -23.5 -57.5c0 -25.333 8.33301 -47.666 25 -66.999s50.334 -42 101.001 -68c16 12.667 28 28.667 36 48s12 41.666 12 66.999c0 30.667 -8 54.834 -24 72.501s-37.333 26.5 -64 26.5zM165.998 272.997
c-14.667 -14 -25.832 -32 -33.499 -54s-11.5 -47.667 -11.5 -77c0 -36 10 -65.833 30 -89.5s46.333 -35.5 79 -35.5c30.667 0 55.667 9 75 27s29 41.667 29 71c0 20 -4.83301 38.167 -14.5 54.5s-24.834 31.5 -45.501 45.5c-13.333 9.33301 -33 20.333 -59 33
s-42.333 21 -49 25z" />
    <glyph glyph-name="nine" unicode="9" horiz-adv-x="475" 
d="M443 358c0 -89.333 -30.833 -166.832 -92.5 -232.499s-146.167 -110.834 -253.5 -135.501l-5 18c74.667 30 131.5 74.667 170.5 134s58.5 130 58.5 212c0 66.667 -8 116.5 -24 149.5s-40.333 49.5 -73 49.5c-26 0 -46.667 -12.333 -62 -37s-23 -57.334 -23 -98.001
c0 -39.333 8.66699 -71.166 26 -95.499s41 -36.5 71 -36.5c12 0 22 1.16699 30 3.5s15.667 5.83301 23 10.5l10 -13c-16 -16.667 -36.833 -30.667 -62.5 -42s-47.167 -17 -64.5 -17c-43.333 0 -78.5 14.5 -105.5 43.5s-40.5 66.167 -40.5 111.5
c0 57.333 19.5 104.5 58.5 141.5s88.167 55.5 147.5 55.5c65.333 0 116.833 -19.5 154.5 -58.5s56.5 -93.5 56.5 -163.5z" />
    <glyph glyph-name="colon" unicode=":" horiz-adv-x="205" 
d="M102 124c19.333 0 35.5 -6.5 48.5 -19.5s19.5 -29.167 19.5 -48.5c0 -18.667 -6.5 -34.334 -19.5 -47.001s-29.167 -19 -48.5 -19c-18.667 0 -34.334 6.33301 -47.001 19s-19 28.334 -19 47.001c0 19.333 6.33301 35.5 19 48.5s28.334 19.5 47.001 19.5zM102 372
c19.333 0 35.5 -6.5 48.5 -19.5s19.5 -29.167 19.5 -48.5c0 -18.667 -6.5 -34.334 -19.5 -47.001s-29.167 -19 -48.5 -19c-18.667 0 -34.334 6.33301 -47.001 19s-19 28.334 -19 47.001c0 19.333 6.33301 35.5 19 48.5s28.334 19.5 47.001 19.5z" />
    <glyph glyph-name="semicolon" unicode=";" horiz-adv-x="205" 
d="M175 47c0 -28 -10.835 -58 -32.502 -90s-51.5 -63.333 -89.5 -94l-18 20c28.667 26.667 47.5 47 56.5 61s13.5 27.667 13.5 41c0 12 -3.5 21.167 -10.5 27.5s-24.833 15.833 -53.5 28.5c6.66699 31.333 15.334 53.333 26.001 66s25.334 19 44.001 19
c19.333 0 34.833 -7.33301 46.5 -22s17.5 -33.667 17.5 -57zM101.998 372c19.333 0 35.5 -6.5 48.5 -19.5s19.5 -29.167 19.5 -48.5c0 -18.667 -6.5 -34.334 -19.5 -47.001s-29.167 -19 -48.5 -19c-18.667 0 -34.334 6.33301 -47.001 19s-19 28.334 -19 47.001
c0 19.333 6.33301 35.5 19 48.5s28.334 19.5 47.001 19.5z" />
    <glyph glyph-name="less" unicode="&#x3c;" horiz-adv-x="500" 
d="M434 100v-38l-369 160v32l369 160v-37l-325 -139z" />
    <glyph glyph-name="equal" unicode="=" horiz-adv-x="500" 
d="M434 343v-33h-369v33h369zM434 171v-34h-369v34h369z" />
    <glyph glyph-name="greater" unicode="&#x3e;" horiz-adv-x="500" 
d="M434 222l-369 -160v38l325 138l-325 139v37l369 -160v-32z" />
    <glyph glyph-name="question" unicode="?" horiz-adv-x="385" 
d="M169 212l-5.00195 -24.001h-22l-21 117c-2 12.667 -1.66699 21.334 1 26.001s12 10 28 16c44.667 16.667 76.334 34.167 95.001 52.5s28 39.833 28 64.5c0 23.333 -6.66699 42.333 -20 57s-30.666 22 -51.999 22c-15.333 0 -29.833 -5 -43.5 -15s-32.5 -30 -56.5 -60h-7
c-13.333 12.667 -23.5 25.167 -30.5 37.5s-10.5 23.833 -10.5 34.5c0 13.333 8.16699 23.333 24.5 30s39.833 10 70.5 10c63.333 0 115.833 -16.667 157.5 -50s62.5 -74.666 62.5 -123.999c0 -40.667 -13 -73.834 -39 -99.501s-70.667 -49.167 -134 -70.5
c-10 -3.33301 -16.5 -6.33301 -19.5 -9s-5.16699 -7.66699 -6.5 -15zM152.998 123.999c19.333 0 35.5 -6.5 48.5 -19.5s19.5 -29.167 19.5 -48.5c0 -18.667 -6.5 -34.334 -19.5 -47.001s-29.167 -19 -48.5 -19c-18.667 0 -34.334 6.33301 -47.001 19s-19 28.334 -19 47.001
c0 19.333 6.33301 35.5 19 48.5s28.334 19.5 47.001 19.5z" />
    <glyph glyph-name="at" unicode="@" horiz-adv-x="673" 
d="M454 70c37.333 0 71.8379 20.3301 103.505 60.9971s47.5 87.667 47.5 141c0 58 -17.667 102.833 -53 134.5s-85.333 47.5 -150 47.5c-40.667 0 -80.834 -8 -120.501 -24s-75.167 -38.667 -106.5 -68c-32 -29.333 -56.667 -63.166 -74 -101.499s-26 -78.5 -26 -120.5
c0 -72 21.167 -127.333 63.5 -166s102.166 -58 179.499 -58c34.667 0 68.667 4.83301 102 14.5s61.333 22.834 84 39.501l12 -19c-24 -18.667 -54.167 -33.5 -90.5 -44.5s-73.166 -16.5 -110.499 -16.5c-84 0 -150.833 21.5 -200.5 64.5s-74.5 102.167 -74.5 177.5
c0 47.333 9.5 92.333 28.5 135s46.167 80.334 81.5 113.001c34.667 32 74 56.667 118 74s89.333 26 136 26c71.333 0 128.166 -18.167 170.499 -54.5s63.5 -85.5 63.5 -147.5c0 -69.333 -25 -129.333 -75 -180s-107.333 -76 -172 -76c-16.667 0 -29.334 5.33301 -38.001 16
s-11.334 24.667 -8.00098 42c-16.667 -18.667 -34 -33 -52 -43s-34.667 -15 -50 -15c-24 0 -43.667 7.83301 -59 23.5s-23 36.5 -23 62.5c0 30 7.33301 60.333 22 91s35 57.667 61 81c26 24 54.667 41.333 86 52s62.666 13.667 93.999 9l8 21l100 12l-92 -273
c-4 -11.333 -4.83301 -19.333 -2.5 -24s7.83301 -7 16.5 -7zM380.005 312.997c-24 0 -49.5 -22 -76.5 -66s-40.5 -86 -40.5 -126c0 -15.333 2.5 -26.666 7.5 -33.999s12.5 -11 22.5 -11c14 0 27 8.5 39 25.5s24.667 44.167 38 81.5l27 76c6 17.333 7.5 30.666 4.5 39.999
s-10.167 14 -21.5 14z" />
    <glyph glyph-name="A" unicode="A" horiz-adv-x="598" 
d="M168 21l-0.00195312 -21.001h-163v21l18 5c10.667 3.33301 18.167 6.83301 22.5 10.5s8.5 10.5 12.5 20.5l213 522h54l214 -522c4 -9.33301 8.33301 -16.166 13 -20.499s11.667 -7.83301 21 -10.5l20 -5v-21h-245v21l50 9c10 2 16.333 4.66699 19 8
s2.33398 9 -0.999023 17l-59 145h-198l-56 -146c-2.66699 -7.33301 -2.66699 -12.833 0 -16.5s9.33398 -6.5 20.001 -8.5zM254.998 452.999l-84 -221h173z" />
    <glyph glyph-name="B" unicode="B" horiz-adv-x="559" 
d="M351 304c57.333 -1.33301 101.334 -13.6709 132.001 -37.0039s46 -56.666 46 -99.999c0 -52.667 -21.833 -93.667 -65.5 -123s-104.167 -44 -181.5 -44h-247v21l37 7c14.667 3.33301 24.167 7.5 28.5 12.5s6.5 14.833 6.5 29.5v430c0 14.667 -2.16699 24.5 -6.5 29.5
s-13.833 9.16699 -28.5 12.5l-37 7v21h282c57.333 0 102.666 -11.667 135.999 -35s50 -55.666 50 -96.999c0 -33.333 -13.833 -62.166 -41.5 -86.499s-64.5 -40.166 -110.5 -47.499zM278.001 540.995l-58 -0.000976562v-224h65c30.667 0 54.5 9.83301 71.5 29.5
s25.5 46.834 25.5 81.501c0 38.667 -8.5 67.167 -25.5 85.5s-43.167 27.5 -78.5 27.5zM401.001 155.994c0 42 -9.83105 74 -29.498 96s-47.834 33 -84.501 33h-67v-214c0 -16 2.66699 -27 8 -33s14.333 -9 27 -9h47c31.333 0 55.666 11.167 72.999 33.5s26 53.5 26 93.5z
" />
    <glyph glyph-name="C" unicode="C" horiz-adv-x="618" 
d="M355 -10c-96 0 -172.333 26.001 -229 78.001s-85 122 -85 210s30.333 160.333 91 217s137.667 85 231 85c34 0 68.833 -5.16699 104.5 -15.5s65.5 -23.833 89.5 -40.5v-114h-18l-15 38c-13.333 34 -33.833 59.833 -61.5 77.5s-60.834 26.5 -99.501 26.5
c-61.333 0 -109 -22.833 -143 -68.5s-51 -109.167 -51 -190.5c0 -84.667 18 -151.5 54 -200.5s85.333 -73.5 148 -73.5c37.333 0 70 8.16699 98 24.5s50 40.166 66 71.499l20 39h15l-5 -110c-21.333 -16 -51.666 -29 -90.999 -39s-79 -15 -119 -15z" />
    <glyph glyph-name="D" unicode="D" horiz-adv-x="675" 
d="M634 285c0 -84 -29.833 -152.501 -89.5 -205.501s-138.167 -79.5 -235.5 -79.5h-274v21l37 7c14.667 3.33301 24.167 7.5 28.5 12.5s6.5 14.833 6.5 29.5v430c0 14.667 -2.16699 24.5 -6.5 29.5s-13.833 9.16699 -28.5 12.5l-37 7v21h271
c102 0 182.167 -25.667 240.5 -77s87.5 -120.666 87.5 -207.999zM506 270.999c0 86 -18.168 152.5 -54.501 199.5s-88.166 70.5 -155.499 70.5h-76v-471c0 -16 2.5 -26.833 7.5 -32.5s13.833 -8.5 26.5 -8.5h55c64.667 0 113.667 20.5 147 61.5s50 101.167 50 180.5z" />
    <glyph glyph-name="E" unicode="E" horiz-adv-x="534" 
d="M421 385l-0.000976562 -191.999h-19l-22 55c-4 10 -8.66699 16.667 -14 20s-13.333 5 -24 5h-122v-208c0 -16.667 3.66699 -27.667 11 -33s22 -7.33301 44 -6l120 6c16.667 1.33301 29 4.5 37 9.5s14.667 13.833 20 26.5l36 85h19l-12 -153h-460v21l37 7
c14.667 3.33301 24.167 7.5 28.5 12.5s6.5 14.833 6.5 29.5v430c0 14.667 -2.16699 24.5 -6.5 29.5s-13.833 9.16699 -28.5 12.5l-37 7v21h356c13.333 0 24.833 0.833008 34.5 2.5s18.834 4.5 27.501 8.5l9 -3v-141h-19l-20 56c-6 17.333 -12.667 29.166 -20 35.499
s-20.333 9.83301 -39 10.5l-144 4v-238h122c12 0 20.333 1.5 25 4.5s9 9.5 13 19.5l22 56h19z" />
    <glyph glyph-name="F" unicode="F" horiz-adv-x="497" 
d="M312 21l-0.00292969 -21.001h-277v21l37 7c14.667 3.33301 24.167 7.5 28.5 12.5s6.5 14.833 6.5 29.5v430c0 14.667 -2.16699 24.5 -6.5 29.5s-13.833 9.16699 -28.5 12.5l-37 7v21h356c13.333 0 24.833 0.833008 34.5 2.5s18.834 4.5 27.501 8.5l9 -3v-141h-19l-20 56
c-6 17.333 -12.667 29.166 -20 35.499s-20.333 9.83301 -39 10.5l-144 4v-258h122c12 0 20.333 1.5 25 4.5s9 9.5 13 19.5l22 56h19v-202h-19l-22 65c-3.33301 9.33301 -7.66602 15.833 -12.999 19.5s-13.666 5.5 -24.999 5.5h-122v-183
c0 -13.333 1.66699 -22.166 5 -26.499s13.333 -8.16602 30 -11.499z" />
    <glyph glyph-name="G" unicode="G" horiz-adv-x="650" 
d="M364 -10c-99.333 0 -178 25.833 -236 77.5s-87 121.834 -87 210.501s30.667 161.167 92 217.5s139.666 84.5 234.999 84.5c39.333 0 77.333 -5 114 -15s68.334 -23.667 95.001 -41v-114h-18l-15 38c-12.667 33.333 -34.5 59 -65.5 77s-67.833 27 -110.5 27
c-63.333 0 -112.333 -22.667 -147 -68s-52 -109 -52 -191c0 -85.333 17.333 -152.333 52 -201s82 -73 142 -73c21.333 0 41.833 2.16699 61.5 6.5s34.834 10.166 45.501 17.499v132c0 14.667 -2.33301 24.667 -7 30s-14 9 -28 11l-50 7v22h250v-22l-24 -5
c-11.333 -2.66699 -18.833 -6.5 -22.5 -11.5s-5.5 -15.5 -5.5 -31.5v-61c0 -14 0.666992 -25.833 2 -35.5s3.66602 -17.5 6.99902 -23.5l-3 -9c-29.333 -16.667 -64.833 -30.167 -106.5 -40.5s-81.167 -15.5 -118.5 -15.5z" />
    <glyph glyph-name="H" unicode="H" horiz-adv-x="712" 
d="M292 21v-21h-257v21l37 7c14.667 3.33301 24.167 7.5 28.5 12.5s6.5 14.833 6.5 29.5v430c0 14.667 -2.16699 24.5 -6.5 29.5s-13.833 9.16699 -28.5 12.5l-37 7v21h257v-21l-37 -7c-14.667 -3.33301 -24.167 -7.5 -28.5 -12.5s-6.5 -14.833 -6.5 -29.5v-187h272v187
c0 14.667 -2.16699 24.5 -6.5 29.5s-13.833 9.16699 -28.5 12.5l-37 7v21h257v-21l-37 -7c-14.667 -3.33301 -24.167 -7.5 -28.5 -12.5s-6.5 -14.833 -6.5 -29.5v-430c0 -14.667 2.16699 -24.5 6.5 -29.5s13.833 -9.16699 28.5 -12.5l37 -7v-21h-257v21l37 7
c14.667 3.33301 24.167 7.5 28.5 12.5s6.5 14.833 6.5 29.5v211h-272v-211c0 -14.667 2.16699 -24.5 6.5 -29.5s13.833 -9.16699 28.5 -12.5z" />
    <glyph glyph-name="I" unicode="I" horiz-adv-x="327" 
d="M292 21v-21h-257v21l37 7c14.667 3.33301 24.167 7.5 28.5 12.5s6.5 14.833 6.5 29.5v430c0 14.667 -2.16699 24.5 -6.5 29.5s-13.833 9.16699 -28.5 12.5l-37 7v21h257v-21l-37 -7c-14.667 -3.33301 -24.167 -7.5 -28.5 -12.5s-6.5 -14.833 -6.5 -29.5v-430
c0 -14.667 2.16699 -24.5 6.5 -29.5s13.833 -9.16699 28.5 -12.5z" />
    <glyph glyph-name="J" unicode="J" horiz-adv-x="327" 
d="M25 -172l-9.99902 20c37.333 25.333 62 48.5 74 69.5s18 48.167 18 81.5v501c0 14.667 -2.16699 24.5 -6.5 29.5s-13.833 9.16699 -28.5 12.5l-37 7v21h257v-21l-37 -7c-14.667 -3.33301 -24.167 -7.5 -28.5 -12.5s-6.5 -14.833 -6.5 -29.5v-467
c0 -40 -13.333 -74.5 -40 -103.5s-78.334 -62.833 -155.001 -101.5z" />
    <glyph glyph-name="K" unicode="K" horiz-adv-x="639" 
d="M292 21v-20.999h-257v21l37 7c14.667 3.33301 24.167 7.5 28.5 12.5s6.5 14.833 6.5 29.5v430c0 14.667 -2.16699 24.5 -6.5 29.5s-13.833 9.16699 -28.5 12.5l-37 7v21h257v-21l-37 -7c-14.667 -3.33301 -24.167 -7.5 -28.5 -12.5s-6.5 -14.833 -6.5 -29.5v-197l224 210
c8 8 11 14.333 9 19s-9 8 -21 10l-42 7v21h211v-21l-28 -6c-17.333 -3.33301 -31.333 -7.5 -42 -12.5s-21.334 -12.167 -32.001 -21.5l-186 -161l234 -280c8.66699 -10.667 17.5 -18.834 26.5 -24.501s22.833 -11.167 41.5 -16.5l19 -6v-21h-283v21l45 7
c12 2 18.833 5.33301 20.5 10s-1.16602 11.667 -8.49902 21l-188 228v-217c0 -14.667 2.16699 -24.5 6.5 -29.5s13.833 -9.16699 28.5 -12.5z" />
    <glyph glyph-name="L" unicode="L" horiz-adv-x="526" 
d="M504 143l-10 -143h-459v21l37 7c14.667 3.33301 24.167 7.5 28.5 12.5s6.5 14.833 6.5 29.5v430c0 14.667 -2.16699 24.5 -6.5 29.5s-13.833 9.16699 -28.5 12.5l-37 7v21h257v-21l-37 -7c-14.667 -3.33301 -24.167 -7.5 -28.5 -12.5s-6.5 -14.833 -6.5 -29.5v-435
c0 -16.667 3.66699 -27.667 11 -33s22 -7.33301 44 -6l119 6c16 0.666992 27.833 3.5 35.5 8.5s14.5 14.167 20.5 27.5l36 75h18z" />
    <glyph glyph-name="M" unicode="M" horiz-adv-x="810" 
d="M229 21v-21.001h-194v21l37 7c14.667 3.33301 24.167 7.5 28.5 12.5s6.5 14.833 6.5 29.5v430c0 14.667 -2.16699 24.5 -6.5 29.5s-13.833 9.16699 -28.5 12.5l-37 7v21h186l184 -440l178 440h192v-21l-37 -7c-14.667 -3.33301 -24.167 -7.5 -28.5 -12.5
s-6.5 -14.833 -6.5 -29.5v-430c0 -14.667 2.16699 -24.5 6.5 -29.5s13.833 -9.16699 28.5 -12.5l37 -7v-21h-257v21l37 7c14.667 3.33301 24.167 7.5 28.5 12.5s6.5 14.833 6.5 29.5v413l-198 -488h-51l-194 463v-388c0 -15.333 2.33301 -25.666 7 -30.999s14 -9 28 -11z
" />
    <glyph glyph-name="N" unicode="N" horiz-adv-x="666" 
d="M224 21v-21h-194v21l37 7c14.667 3.33301 24.167 7.5 28.5 12.5s6.5 14.833 6.5 29.5v430c0 14.667 -2.16699 24.5 -6.5 29.5s-13.833 9.16699 -28.5 12.5l-37 7v21h166l328 -410v340c0 15.333 -2.33301 25.666 -7 30.999s-14 9 -28 11l-47 7v21h194v-21l-37 -7
c-14.667 -3.33301 -24.167 -7.5 -28.5 -12.5s-6.5 -14.833 -6.5 -29.5v-500h-57l-365 459v-389c0 -15.333 2.33301 -25.666 7 -30.999s14 -9 28 -11z" />
    <glyph glyph-name="O" unicode="O" horiz-adv-x="699" 
d="M658 294c0 -87.333 -30 -159.833 -90 -217.5s-132.333 -86.5 -217 -86.5c-90 0 -164.167 26.167 -222.5 78.5s-87.5 121.5 -87.5 207.5c0 86.667 30.167 159 90.5 217s132.5 87 216.5 87c90 0 164.167 -26.167 222.5 -78.5s87.5 -121.5 87.5 -207.5zM169 301
c0 -84 17.167 -152 51.5 -204s80.166 -78 137.499 -78c56 0 98.667 21.5 128 64.5s44 105.167 44 186.5c0 84 -17.167 151.833 -51.5 203.5s-80.5 77.5 -138.5 77.5c-55.333 0 -97.666 -21.5 -126.999 -64.5s-44 -104.833 -44 -185.5z" />
    <glyph glyph-name="P" unicode="P" horiz-adv-x="530" 
d="M312 21l0.00292969 -21.0039h-277v21l37 7c14.667 3.33301 24.167 7.5 28.5 12.5s6.5 14.833 6.5 29.5v430c0 14.667 -2.16699 24.5 -6.5 29.5s-13.833 9.16699 -28.5 12.5l-37 7v21h259c66 0 118.167 -14.5 156.5 -43.5s57.5 -69.167 57.5 -120.5
c0 -55.333 -21.333 -99.166 -64 -131.499s-101.334 -48.5 -176.001 -48.5h-14v21l17 2c37.333 4 66.166 19 86.499 45s30.5 60.333 30.5 103c0 46.667 -10.833 82.334 -32.5 107.001s-52.834 37 -93.501 37h-42v-471c0 -13.333 1.66699 -22.166 5 -26.499
s13.333 -8.16602 30 -11.499z" />
    <glyph glyph-name="Q" unicode="Q" horiz-adv-x="719" 
d="M791 -215c-64.667 0 -137.667 17.668 -219 53.001s-166 86.333 -254 153c-82.667 7.33301 -149.5 36.666 -200.5 87.999s-76.5 117 -76.5 197c0 86.667 30.167 159 90.5 217s132.5 87 216.5 87c90 0 164.167 -26.167 222.5 -78.5s87.5 -121.5 87.5 -207.5
c0 -63.333 -16.5 -119.833 -49.5 -169.5s-77.833 -86.167 -134.5 -109.5c85.333 -64.667 159 -111.167 221 -139.5s122 -42.5 180 -42.5c10 0 20.667 0.833008 32 2.5s22 4.16699 32 7.5l10 -20c-20 -12 -44 -21.333 -72 -28s-56.667 -10 -86 -10zM169 301.001
c0 -84 17.167 -152 51.5 -204s80.166 -78 137.499 -78c56 0 98.667 21.5 128 64.5s44 105.167 44 186.5c0 84 -17.167 151.833 -51.5 203.5s-80.5 77.5 -138.5 77.5c-55.333 0 -97.666 -21.5 -126.999 -64.5s-44 -104.833 -44 -185.5z" />
    <glyph glyph-name="R" unicode="R" horiz-adv-x="618" 
d="M292 21v-21.001h-257v21l37 7c14.667 3.33301 24.167 7.5 28.5 12.5s6.5 14.833 6.5 29.5v430c0 14.667 -2.16699 24.5 -6.5 29.5s-13.833 9.16699 -28.5 12.5l-37 7v21h268c62 0 112 -13.5 150 -40.5s57 -62.5 57 -106.5c0 -32 -12.333 -60.833 -37 -86.5
s-56.334 -43.5 -95.001 -53.5l148 -216c10 -14.667 18.167 -24.167 24.5 -28.5s18.5 -8.16602 36.5 -11.499l29 -6v-21h-140c-18 -0 -30.667 1.83301 -38 5.5s-14.666 11.5 -21.999 23.5l-123 200c-5.33301 9.33301 -12.5 15.833 -21.5 19.5s-22.5 5.5 -40.5 5.5h-11v-184
c0 -14.667 2.16699 -24.5 6.5 -29.5s13.833 -9.16699 28.5 -12.5zM266 540.999h-46v-258h45c42.667 0 74.167 10.667 94.5 32s30.5 54.333 30.5 99c0 40.667 -10.667 72 -32 94s-52 33 -92 33z" />
    <glyph glyph-name="S" unicode="S" horiz-adv-x="473" 
d="M429 164c0 -53.333 -20.498 -95.666 -61.498 -126.999s-93.5 -47 -157.5 -47c-26 0 -52 3.16699 -78 9.5s-53 15.833 -81 28.5l-8 148h19l27 -63c13.333 -31.333 30.333 -54.833 51 -70.5s45.334 -23.5 74.001 -23.5c34.667 0 61.834 8.83301 81.501 26.5
s29.5 42.167 29.5 73.5c0 24.667 -7.33301 46.5 -22 65.5s-46.334 41.5 -95.001 67.5c-56 29.333 -92.667 56.166 -110 80.499s-26 52.833 -26 85.5c0 48 18 87 54 117s81.333 45 136 45c25.333 0 49.666 -2.66699 72.999 -8s44.333 -13 63 -23l6 -113h-19l-17 42
c-10 24 -24.333 42.333 -43 55s-41.334 19 -68.001 19c-26 0 -47.333 -7.83301 -64 -23.5s-25 -35.5 -25 -59.5c0 -22.667 7.16699 -42.667 21.5 -60s45.166 -38.666 92.499 -63.999c30.667 -16 53 -28.833 67 -38.5s26 -19.5 36 -29.5
c14.667 -15.333 25.667 -32.333 33 -51s11 -39.334 11 -62.001z" />
    <glyph glyph-name="T" unicode="T" horiz-adv-x="550" 
d="M403 21l-0.000976562 -21h-257v21l37 7c14.667 3.33301 24.167 7.5 28.5 12.5s6.5 14.833 6.5 29.5v468h-101c-18 0 -31 -3.16699 -39 -9.5s-14.667 -17.833 -20 -34.5l-21 -67h-18v151l8 3c8 -4 17.167 -6.83301 27.5 -8.5s21.833 -2.5 34.5 -2.5h371
c13.333 0 24.833 0.833008 34.5 2.5s18.834 4.5 27.501 8.5l9 -3v-151h-19l-20 67c-4.66699 16.667 -11 28.167 -19 34.5s-21.333 9.5 -40 9.5h-102v-468c0 -14.667 2.16699 -24.5 6.5 -29.5s13.833 -9.16699 28.5 -12.5z" />
    <glyph glyph-name="U" unicode="U" horiz-adv-x="657" 
d="M339 -10c-74.667 0 -132.001 18.335 -172.001 55.002s-60 89.667 -60 159v296c0 14.667 -2.16699 24.5 -6.5 29.5s-13.833 9.16699 -28.5 12.5l-37 7v21h257v-21l-37 -7c-14.667 -3.33301 -24.167 -7.5 -28.5 -12.5s-6.5 -14.833 -6.5 -29.5v-293
c0 -59.333 11.333 -103 34 -131s58.334 -42 107.001 -42c48 0 84.833 16 110.5 48s38.5 78.333 38.5 139v279c0 15.333 -2.33301 25.666 -7 30.999s-14 9 -28 11l-47 7v21h194v-21l-37 -7c-14.667 -3.33301 -24.167 -7.5 -28.5 -12.5s-6.5 -14.833 -6.5 -29.5v-279
c0 -74.667 -18.167 -131.834 -54.5 -171.501s-88.5 -59.5 -156.5 -59.5z" />
    <glyph glyph-name="V" unicode="V" horiz-adv-x="584" 
d="M320 -9l-57.998 0.000976562l-196 522c-3.33301 10 -7.5 17 -12.5 21s-12.167 7 -21.5 9l-29 6v21h254v-22l-50 -9c-10.667 -2 -17.334 -4.83301 -20.001 -8.5s-2.66699 -9.16699 0 -16.5l149 -393l140 394c3.33301 8.66699 3.5 15 0.5 19s-9.83301 6.66699 -20.5 8
l-37 6v22h162v-21l-27 -7c-10.667 -2.66699 -18.334 -5.83398 -23.001 -9.50098s-8.66699 -10.167 -12 -19.5z" />
    <glyph glyph-name="W" unicode="W" horiz-adv-x="875" 
d="M346 -9l-62.9951 -0.00292969l-221 522c-4 10 -8.33301 16.833 -13 20.5s-11.667 6.83398 -21 9.50098l-26 6v21h234v-22l-36 -9c-10.667 -2.66699 -17.334 -5.66699 -20.001 -9s-2.66699 -8.66602 0 -15.999l173 -419l67 173l-101 245c-4 10 -8.33301 16.833 -13 20.5
s-11.667 6.83398 -21 9.50098l-24 6v21h225v-22l-34 -9c-9.33301 -2 -15.333 -5.5 -18 -10.5s-2.33398 -11.5 0.999023 -19.5l68 -166l69 170c3.33301 8 3.83301 13.833 1.5 17.5s-9.5 7.5 -21.5 11.5l-20 6v22h150v-21l-30 -7c-10 -2.66699 -17.333 -5.83398 -22 -9.50098
s-9 -10.167 -13 -19.5l-96 -212l85 -208l157 419c3.33301 8.66699 3.66602 14.834 0.999023 18.501s-9.33398 6.83398 -20.001 9.50098l-37 8v22h166v-21l-29 -7c-10.667 -2.66699 -18.334 -5.83398 -23.001 -9.50098s-8.66699 -10.167 -12 -19.5l-211 -522h-63l-94 228z
" />
    <glyph glyph-name="X" unicode="X" horiz-adv-x="572" 
d="M190 22v-22.001h-177v21l28 7c10 2.66699 17.5 5.66699 22.5 9s10.833 10 17.5 20l151 216l-155 240c-6.66699 10.667 -12.834 17.834 -18.501 21.501s-14.167 6.5 -25.5 8.5l-31 6v21h279v-22l-50 -9c-11.333 -2 -18.5 -5 -21.5 -9s-2.5 -9.33301 1.5 -16l113 -175
l117 176c4 6.66699 4.5 12 1.5 16s-10.167 7 -21.5 9l-41 8v22h178v-21l-31 -8c-8.66699 -2 -15.5 -4.66699 -20.5 -8s-11.167 -10 -18.5 -20l-148 -200l165 -256c7.33301 -12 13.833 -20 19.5 -24s12.834 -6.66699 21.501 -8l24 -4v-21h-265v22l47 9
c11.333 2 18.5 5 21.5 9s2.5 9.33301 -1.5 16l-123 191l-120 -192c-4 -6.66699 -4.5 -12 -1.5 -16s10.167 -7 21.5 -9z" />
    <glyph glyph-name="Y" unicode="Y" horiz-adv-x="568" 
d="M412 21v-21h-257v21l37 7c14.667 3.33301 24.167 7.5 28.5 12.5s6.5 14.833 6.5 29.5v169l-161 274c-7.33301 12.667 -13 20.5 -17 23.5s-9.66699 5.16699 -17 6.5l-30 6v21h265v-22l-50 -9c-10.667 -2 -17.5 -5 -20.5 -9s-2.83301 -9.33301 0.5 -16l134 -239l131 231
c6 10 7.33301 17.833 4 23.5s-11 9.83398 -23 12.501l-37 7v21h160v-21l-18 -5c-9.33301 -2.66699 -16.5 -6.33398 -21.5 -11.001s-11.833 -14 -20.5 -28l-166 -268v-167c0 -14.667 2.16699 -24.5 6.5 -29.5s13.833 -9.16699 28.5 -12.5z" />
    <glyph glyph-name="Z" unicode="Z" horiz-adv-x="516" 
d="M506 143l-10.001 -143h-486v14l336 524h-206c-18 0 -31 -3.16699 -39 -9.5s-14.667 -17.833 -20 -34.5l-21 -67h-18v151l9 3c8.66699 -4 17.834 -6.83301 27.501 -8.5s21.167 -2.5 34.5 -2.5h379v-14l-340 -530l244 6c15.333 0.666992 27 3.5 35 8.5s15 14.167 21 27.5
l36 75h18z" />
    <glyph glyph-name="bracketleft" unicode="[" horiz-adv-x="215" 
d="M183 -102l-1 -20l-106 7v736l106 7l1 -20l-50 -5c-8.66699 -0.666992 -14.667 -3 -18 -7s-5 -11.667 -5 -23v-640c0 -11.333 1.66699 -19 5 -23s9.33301 -6.33301 18 -7z" />
    <glyph glyph-name="backslash" unicode="\" horiz-adv-x="210" 
d="M219 0l-29 -10l-199 580l29 10z" />
    <glyph glyph-name="bracketright" unicode="]" horiz-adv-x="215" 
d="M139 -115l-106 -7l-1 20l50 5c8.66699 0.666992 14.667 3 18 7s5 11.667 5 23v640c0 11.333 -1.66699 19 -5 23s-9.33301 6.33301 -18 7l-50 5l1 20l106 -7v-736z" />
    <glyph glyph-name="asciicircum" unicode="^" horiz-adv-x="500" 
d="M265 686l147 -326h-36l-126 285l-127 -285h-36l148 326h30z" />
    <glyph glyph-name="underscore" unicode="_" horiz-adv-x="400" 
d="M380 -59h-360v29h360v-29z" />
    <glyph glyph-name="grave" unicode="`" 
d="M232 582l60 -160l-18 -8l-84 154c-3.33301 6 -5.5 10.833 -6.5 14.5s-1.5 7.5 -1.5 11.5c0 5.33301 2 9.83301 6 13.5s9 5.5 15 5.5s11.333 -2.5 16 -7.5s9 -12.833 13 -23.5z" />
    <glyph glyph-name="a" unicode="a" horiz-adv-x="389" 
d="M222 41c-23.333 -16.667 -44.8369 -29.335 -64.5039 -38.002s-36.167 -13 -49.5 -13c-25.333 0 -45.666 6.83301 -60.999 20.5s-23 32.5 -23 56.5c0 20 6.83301 36.667 20.5 50s36.167 25.333 67.5 36l109 38v59c0 22 -6.83301 39.667 -20.5 53s-31.5 20 -53.5 20
c-8.66699 0 -16.167 -0.833008 -22.5 -2.5s-11.833 -4.16699 -16.5 -7.5c-6 -4 -10.333 -9 -13 -15s-4 -13 -4 -21c0 -2.66699 0.833008 -8 2.5 -16l6.5 -32c-6.66699 -3.33301 -15 -6.16602 -25 -8.49902s-17.667 -3.5 -23 -3.5c-8 0 -14.667 2.83301 -20 8.5
s-8 13.167 -8 22.5c0 24.667 21.167 51.5 63.5 80.5s82.833 43.5 121.5 43.5c30.667 0 57.834 -9.16699 81.501 -27.5s35.5 -40.5 35.5 -66.5v-188c0 -12.667 2.33301 -22.334 7 -29.001s11.334 -10 20.001 -10c3.33301 0 6.83301 0.333008 10.5 1s9.83398 2.66699 18.501 6
l6 -14c-24 -17.333 -45.167 -30.666 -63.5 -39.999s-32.833 -14 -43.5 -14c-16 0 -29 4.33301 -39 13s-16.667 21.334 -20 38.001zM127.996 95.999c0 -14.667 4.16699 -26 12.5 -34s20.5 -12 36.5 -12c8.66699 0 16.5 0.666992 23.5 2s13.833 3.66602 20.5 6.99902v112
l-43 -18c-18.667 -8 -31.667 -16.167 -39 -24.5s-11 -19.166 -11 -32.499z" />
    <glyph glyph-name="b" unicode="b" horiz-adv-x="472" 
d="M447 202c0 -64 -20.501 -115.333 -61.501 -154s-94.167 -58 -159.5 -58c-28.667 0 -58.667 4.16699 -90 12.5s-55.666 18.5 -72.999 30.5v541c0 8.66699 -1.16699 15.167 -3.5 19.5s-8.5 9.5 -18.5 15.5l-17 10v14l138 47l11 -7c-2 -12 -3.33301 -23.833 -4 -35.5
s-1 -29.167 -1 -52.5v-267c20 16 41.333 29 64 39s41.667 15 57 15c47.333 0 85.5 -15.5 114.5 -46.5s43.5 -72.167 43.5 -123.5zM167.999 292l0.000976562 -190.999c0 -26.667 6.16699 -47.334 18.5 -62.001s30.166 -22 53.499 -22c30 0 53.667 12.5 71 37.5
s26 59.167 26 102.5c0 46.667 -9.16699 83.334 -27.5 110.001s-42.833 40 -73.5 40c-14 0 -26.667 -1.33301 -38 -4s-21.333 -6.33398 -30 -11.001z" />
    <glyph glyph-name="c" unicode="c" horiz-adv-x="362" 
d="M199 -10c-50.667 0 -92.3311 17.168 -124.998 51.501s-49 78.833 -49 133.5c0 59.333 19.833 107 59.5 143s89.5 54 149.5 54c32.667 0 59.667 -4.5 81 -13.5s32 -20.167 32 -33.5c0 -6 -2.66699 -13.333 -8 -22s-14.333 -19.667 -27 -33h-7
c-27.333 33.333 -46.166 53.833 -56.499 61.5s-21.833 11.5 -34.5 11.5c-24.667 0 -44 -11.167 -58 -33.5s-21 -52.5 -21 -90.5c0 -46.667 11.667 -83.834 35 -111.501s54.666 -41.5 93.999 -41.5c16 0 30.667 1.5 44 4.5s27.666 8.16699 42.999 15.5l9 -13
c-19.333 -21.333 -45.333 -40.5 -78 -57.5s-60.334 -25.5 -83.001 -25.5z" />
    <glyph glyph-name="d" unicode="d" horiz-adv-x="472" 
d="M458 33l-154 -43v54c-20 -16 -41.333 -29 -64 -39s-41.667 -15 -57 -15c-46.667 0 -84.667 15.5 -114 46.5s-44 72.167 -44 123.5c0 64 20.5 115.333 61.5 154s94.167 58 159.5 58c10 0 20 -0.5 30 -1.5s19.333 -2.5 28 -4.5v208c0 8.66699 -1.16699 15.167 -3.5 19.5
s-8.5 9.5 -18.5 15.5l-17 10v14l138 47l11 -7c-2 -12 -3.33301 -23.833 -4 -35.5s-1 -29.167 -1 -52.5v-499c0 -10 1.5 -17 4.5 -21s9.5 -7.33301 19.5 -10l25 -6v-16zM232 345c-30 0 -53.668 -12.502 -71.001 -37.502s-26 -59.167 -26 -102.5
c0 -46 9.16699 -82.5 27.5 -109.5s42.833 -40.5 73.5 -40.5c14 0 26.667 1.33301 38 4s21.333 6.33398 30 11.001v191c0 26.667 -6.16699 47.334 -18.5 62.001s-30.166 22 -53.499 22z" />
    <glyph glyph-name="e" unicode="e" horiz-adv-x="382" 
d="M211 -10c-56 0 -100.999 17 -134.999 51s-51 79.667 -51 137c0 58.667 18.333 105.667 55 141s83 53 139 53c43.333 0 78 -11.333 104 -34s40 -53.667 42 -93l-4 -10h-229v-9c0 -52 11.5 -91.667 34.5 -119s56.167 -41 99.5 -41c16 0 31.833 1.66699 47.5 5
s30.5 8.33301 44.5 15l9 -13c-18.667 -22.667 -43.834 -42.167 -75.501 -58.5s-58.5 -24.5 -80.5 -24.5zM271.001 274c0 20 -5.99902 37 -17.999 51s-26.667 21 -44 21c-20.667 0 -37.334 -7.5 -50.001 -22.5s-21 -36.5 -25 -64.5h122c6 0 10 1 12 3s3 6 3 12z" />
    <glyph glyph-name="f" unicode="f" horiz-adv-x="292" 
d="M243 17l-0.000976562 -16.999h-223v17l25 7c10 2.66699 16.5 6.16699 19.5 10.5s4.5 12.166 4.5 23.499v247h-54v17l54 36v39c0 92.667 17.333 163 52 211s84.667 72 150 72c26.667 0 50.167 -4 70.5 -12s30.5 -18 30.5 -30c0 -4 -2.16699 -9.5 -6.5 -16.5
s-12.833 -18.167 -25.5 -33.5h-7c-24 22.667 -43.5 38.667 -58.5 48s-29.167 14 -42.5 14c-20 0 -34.667 -11.5 -44 -34.5s-14 -58.167 -14 -105.5v-148h115v-57h-115v-247c0 -10.667 1.33301 -18 4 -22s9.33398 -7 20.001 -9z" />
    <glyph glyph-name="g" unicode="g" horiz-adv-x="429" 
d="M367 233c0 -38.667 -15.4971 -70.4971 -46.4971 -95.4971s-69.167 -37.5 -114.5 -37.5c-12 0 -23.833 0.833008 -35.5 2.5s-22.834 4.16699 -33.501 7.5c-12.667 -13.333 -21.167 -23.333 -25.5 -30s-6.5 -13.334 -6.5 -20.001c0 -10.667 3.83301 -19.334 11.5 -26.001
s18.167 -10 31.5 -10h163c36 0 63.833 -9 83.5 -27s29.5 -43 29.5 -75c0 -56 -24.833 -103.667 -74.5 -143s-108.834 -59 -177.501 -59c-43.333 0 -79.5 10.833 -108.5 32.5s-43.5 48.5 -43.5 80.5c0 10.667 4 20.667 12 30s32.333 32.333 73 69
c-23.333 4 -42.166 13.333 -56.499 28s-21.5 32.667 -21.5 54c0 9.33301 6 21.166 18 35.499s34.333 37.833 67 70.5c-25.333 11.333 -44.833 26.666 -58.5 45.999s-20.5 41.333 -20.5 66c0 40.667 16.667 74.167 50 100.5s73.666 39.5 120.999 39.5
c8 0 16.5 -0.666992 25.5 -2s17.833 -3.33301 26.5 -6c13.333 -3.33301 24.166 -5.66602 32.499 -6.99902s16.833 -2 25.5 -2h111v-46h-89c10 -11.333 17.667 -23.333 23 -36s8 -26 8 -40zM137.003 237.003c0 -33.333 6.16699 -60.501 18.5 -81.501s28.833 -31.5 49.5 -31.5
s36 8.83301 46 26.5s15 45.5 15 83.5c0 34 -6 61.5 -18 82.5s-28 31.5 -48 31.5s-35.5 -9.66699 -46.5 -29s-16.5 -46.666 -16.5 -81.999zM108.003 -133.998c0 -32.667 10.001 -58.167 30.001 -76.5s48 -27.5 84 -27.5c38 0 69.833 10 95.5 30s38.5 45 38.5 75
c0 20 -5.83301 35.667 -17.5 47s-27.834 17 -48.501 17h-157c-8.66699 -10 -15 -20.333 -19 -31s-6 -22 -6 -34z" />
    <glyph glyph-name="h" unicode="h" horiz-adv-x="462" 
d="M217 17v-17.001h-203v17l25 7c10 2.66699 16.5 6.16699 19.5 10.5s4.5 12.166 4.5 23.499v516c0 10 -1.16699 17.167 -3.5 21.5s-8.16602 8.83301 -17.499 13.5l-18 10v14l138 47l11 -7c-2 -12 -3.33301 -23.833 -4 -35.5s-1 -29.167 -1 -52.5v-267
c18 14.667 38.167 27.334 60.5 38.001s40.5 16 54.5 16c38.667 0 68.5 -10.667 89.5 -32s31.5 -52 31.5 -92v-190c0 -11.333 1.5 -19.166 4.5 -23.499s9.5 -7.83301 19.5 -10.5l25 -7v-17h-203v17l25 7c10 2.66699 16.5 6.16699 19.5 10.5s4.5 12.166 4.5 23.499v169
c0 28 -5.5 48.833 -16.5 62.5s-27.5 20.5 -49.5 20.5c-10.667 0 -21.334 -1.5 -32.001 -4.5s-21.667 -7.83301 -33 -14.5v-233c0 -11.333 1.5 -19.166 4.5 -23.499s9.5 -7.83301 19.5 -10.5z" />
    <glyph glyph-name="i" unicode="i" horiz-adv-x="234" 
d="M181 530c0 -15.333 -5.16699 -28.166 -15.5 -38.499s-22.833 -15.5 -37.5 -15.5c-16 0 -29.167 5.16699 -39.5 15.5s-15.5 23.166 -15.5 38.499s5.33301 28.333 16 39s23.667 16 39 16c14.667 0 27.167 -5.33301 37.5 -16s15.5 -23.667 15.5 -39zM220 17
l-0.000976562 -17h-203v17l25 7c10 2.66699 16.5 6.16699 19.5 10.5s4.5 12.166 4.5 23.499v208c0 10 -1.16699 17.167 -3.5 21.5s-8.16602 8.83301 -17.499 13.5l-18 10v14l138 47l11 -7c-2 -12 -3.33301 -23.833 -4 -35.5s-1 -29.167 -1 -52.5v-219
c0 -11.333 1.5 -19.166 4.5 -23.499s9.5 -7.83301 19.5 -10.5z" />
    <glyph glyph-name="j" unicode="j" horiz-adv-x="234" 
d="M185 530c0 -15.333 -5.16699 -28.166 -15.5 -38.499s-22.833 -15.5 -37.5 -15.5c-16 0 -29.167 5.16699 -39.5 15.5s-15.5 23.166 -15.5 38.499s5.33301 28.333 16 39s23.667 16 39 16c14.667 0 27.167 -5.33301 37.5 -16s15.5 -23.667 15.5 -39zM171 277
l-0.000976562 -334.001c0 -26.667 -12.833 -52.667 -38.5 -78s-65.167 -50.666 -118.5 -75.999l-10 18c24 16.667 40.333 34.167 49 52.5s13 42.833 13 73.5v333c0 10 -1.16699 17.167 -3.5 21.5s-8.16602 8.83301 -17.499 13.5l-18 10v14l138 47l11 -7
c-2 -12 -3.33301 -23.833 -4 -35.5s-1 -29.167 -1 -52.5z" />
    <glyph glyph-name="k" unicode="k" horiz-adv-x="477" 
d="M217 17v-17h-205v17l27 7c10 2.66699 16.5 6.16699 19.5 10.5s4.5 12.166 4.5 23.499v516c0 8.66699 -1.16699 15.167 -3.5 19.5s-8.5 9.5 -18.5 15.5l-17 10v14l138 47l11 -7c-2 -12 -3.33301 -23.833 -4 -35.5s-1 -29.167 -1 -52.5v-527
c0 -11.333 1.5 -19.166 4.5 -23.499s9.5 -7.83301 19.5 -10.5zM455 21l20 -4v-17h-208v17l27 4c5.33301 0.666992 8.83301 2.5 10.5 5.5s0.833984 6.83301 -2.49902 11.5l-120 158v7l127 117c4 3.33301 5.16699 7 3.5 11s-4.83398 6.33301 -9.50098 7l-49 7v17h196v-17
l-49 -10c-9.33301 -2 -16.5 -4 -21.5 -6s-11.167 -5.66699 -18.5 -11l-92 -68l149 -199c8.66699 -11.333 15.5 -18.833 20.5 -22.5s10.5 -6.16699 16.5 -7.5z" />
    <glyph glyph-name="l" unicode="l" horiz-adv-x="231" 
d="M217 17v-17h-203v17l25 7c10 2.66699 16.5 6.16699 19.5 10.5s4.5 12.166 4.5 23.499v516c0 8.66699 -1.16699 15.167 -3.5 19.5s-8.5 9.5 -18.5 15.5l-17 10v14l138 47l11 -7c-2 -12 -3.33301 -23.833 -4 -35.5s-1 -29.167 -1 -52.5v-527
c0 -11.333 1.5 -19.166 4.5 -23.499s9.5 -7.83301 19.5 -10.5z" />
    <glyph glyph-name="m" unicode="m" horiz-adv-x="689" 
d="M220 17l-0.000976562 -17.001h-203v17l25 7c10 2.66699 16.5 6.16699 19.5 10.5s4.5 12.166 4.5 23.499v208c0 10 -1.16699 17.167 -3.5 21.5s-8.16602 8.83301 -17.499 13.5l-18 10v14l138 47l11 -7c0 -2 -0.666992 -8.66699 -2 -20s-2.33301 -20.333 -3 -27
c18 14.667 38.167 27.334 60.5 38.001s40.5 16 54.5 16c25.333 0 46.833 -5.5 64.5 -16.5s30.834 -26.833 39.501 -47.5c17.333 16.667 38.666 31.5 63.999 44.5s46 19.5 62 19.5c36.667 0 65 -10.667 85 -32s30 -52 30 -92v-190c0 -11.333 1.5 -19.166 4.5 -23.499
s9.5 -7.83301 19.5 -10.5l25 -7v-17h-203v17l25 7c10 2.66699 16.5 6.16699 19.5 10.5s4.5 12.166 4.5 23.499v169c0 28 -5 48.833 -15 62.5s-25 20.5 -45 20.5c-12 0 -23.667 -1.66699 -35 -5s-22.666 -8.66602 -33.999 -15.999c1.33301 -5.33301 2.33301 -11.333 3 -18
s1 -14.334 1 -23.001v-190c0 -11.333 1.5 -19.166 4.5 -23.499s9.5 -7.83301 19.5 -10.5l25 -7v-17h-203v17l25 7c10 2.66699 16.5 6.16699 19.5 10.5s4.5 12.166 4.5 23.499v169c0 28 -5 48.833 -15 62.5s-25 20.5 -45 20.5c-10.667 0 -21.334 -1.5 -32.001 -4.5
s-21.667 -7.83301 -33 -14.5v-233c0 -11.333 1.5 -19.166 4.5 -23.499s9.5 -7.83301 19.5 -10.5z" />
    <glyph glyph-name="n" unicode="n" horiz-adv-x="465" 
d="M220 17v-17.001h-203v17l25 7c10 2.66699 16.5 6.16699 19.5 10.5s4.5 12.166 4.5 23.499v208c0 10 -1.16699 17.167 -3.5 21.5s-8.16602 8.83301 -17.499 13.5l-18 10v14l138 47l11 -7c0 -2 -0.666992 -8.66699 -2 -20s-2.33301 -20.333 -3 -27
c18 14.667 38.167 27.334 60.5 38.001s40.5 16 54.5 16c38.667 0 68.5 -10.667 89.5 -32s31.5 -52 31.5 -92v-190c0 -11.333 1.5 -19.166 4.5 -23.499s9.5 -7.83301 19.5 -10.5l25 -7v-17h-203v17l25 7c10 2.66699 16.5 6.16699 19.5 10.5s4.5 12.166 4.5 23.499v169
c0 28 -5.5 48.833 -16.5 62.5s-27.5 20.5 -49.5 20.5c-10.667 0 -21.334 -1.5 -32.001 -4.5s-21.667 -7.83301 -33 -14.5v-233c0 -11.333 1.5 -19.166 4.5 -23.499s9.5 -7.83301 19.5 -10.5z" />
    <glyph glyph-name="o" unicode="o" horiz-adv-x="454" 
d="M429 186c0 -56.667 -19.832 -103.5 -59.499 -140.5s-87.834 -55.5 -144.501 -55.5c-59.333 0 -107.666 16.667 -144.999 50s-56 78.666 -56 135.999c0 56 20 102.667 60 140s88 56 144 56c59.333 0 107.666 -16.667 144.999 -50s56 -78.666 56 -135.999zM138.001 191
c0 -55.333 7.83301 -98.166 23.5 -128.499s38.167 -45.5 67.5 -45.5c28.667 0 50.167 12.833 64.5 38.5s21.5 64.167 21.5 115.5c0 55.333 -7.83301 98.166 -23.5 128.499s-38.167 45.5 -67.5 45.5c-28.667 0 -50.167 -13 -64.5 -39s-21.5 -64.333 -21.5 -115z" />
    <glyph glyph-name="p" unicode="p" horiz-adv-x="472" 
d="M447 202c0 -64 -20.5 -115.332 -61.5 -153.999s-94.167 -58 -159.5 -58c-10 0 -20 0.5 -30 1.5s-19.333 2.5 -28 4.5v-208c0 -10.667 1.33301 -18 4 -22s9.33398 -7 20.001 -9l45 -10v-17h-223v17l25 7c10 2.66699 16.5 6.16699 19.5 10.5s4.5 12.166 4.5 23.499v479
c0 8.66699 -1.16699 15.167 -3.5 19.5s-8.5 9.5 -18.5 15.5l-17 10v13l138 47l11 -7c-1.33301 -8 -2.33301 -15.667 -3 -23s-1 -15.333 -1 -24c19.333 16 40.166 29 62.499 39s41.5 15 57.5 15c46.667 0 84.667 -15.5 114 -46.5s44 -72.167 44 -123.5zM168 292.001
l0.000976562 -190.999c0 -26.667 6.16699 -47.334 18.5 -62.001s30.166 -22 53.499 -22c30 0 53.667 12.5 71 37.5s26 59.167 26 102.5c0 46.667 -9.16699 83.334 -27.5 110.001s-42.833 40 -73.5 40c-14 0 -26.667 -1.33301 -38 -4s-21.333 -6.33398 -30 -11.001z" />
    <glyph glyph-name="q" unicode="q" horiz-adv-x="472" 
d="M25 160c0 64 20.499 115.332 61.499 153.999s94.167 58 159.5 58c17.333 0 35.5 -1.5 54.5 -4.5s37.167 -7.16699 54.5 -12.5l38 27h16v-594c0 -11.333 1.5 -19.166 4.5 -23.499s9.5 -7.83301 19.5 -10.5l25 -7v-17h-223v17l45 10c10.667 2 17.334 5 20.001 9
s4 11.333 4 22v256c-19.333 -16 -40.5 -29 -63.5 -39s-42.5 -15 -58.5 -15c-46.667 0 -84.5 15.5 -113.5 46.5s-43.5 72.167 -43.5 123.5zM231.999 344.999c-30 0 -53.668 -12.502 -71.001 -37.502s-26 -59.167 -26 -102.5c0 -46 9.16699 -82.5 27.5 -109.5
s42.833 -40.5 73.5 -40.5c14 0 26.667 1.33301 38 4s21.333 6.33398 30 11.001v191c0 26.667 -6.16699 47.334 -18.5 62.001s-30.166 22 -53.499 22z" />
    <glyph glyph-name="r" unicode="r" horiz-adv-x="318" 
d="M240 17l0.000976562 -17.001h-223v17l25 7c10 2.66699 16.5 6.16699 19.5 10.5s4.5 12.166 4.5 23.499v208c0 10 -1.33301 17.167 -4 21.5s-8.33398 8.83301 -17.001 13.5l-18 10v14l138 47l11 -7c-2 -12 -3.33301 -23.5 -4 -34.5s-1 -23.5 -1 -37.5
c18.667 23.333 38 42.333 58 57s37 22 51 22c9.33301 0 17.166 -2.83301 23.499 -8.5s9.5 -12.834 9.5 -21.501c0 -5.33301 -1.33301 -13.666 -4 -24.999s-6.33398 -25.666 -11.001 -42.999l-5 -2c-14 4.66699 -26.667 8.33398 -38 11.001s-20.666 4 -27.999 4
c-12 0 -22.333 -1.33301 -31 -4s-17 -6.66699 -25 -12v-213c0 -10.667 1.33301 -18 4 -22s9.33398 -7 20.001 -9z" />
    <glyph glyph-name="s" unicode="s" horiz-adv-x="327" 
d="M301 107c0 -35.333 -14.666 -63.668 -43.999 -85.001s-66.333 -32 -111 -32c-19.333 0 -38.333 1.83301 -57 5.5s-36.334 8.83398 -53.001 15.501l-15 111h18c19.333 -40 37.333 -67.833 54 -83.5s36.334 -23.5 59.001 -23.5c17.333 0 31 4.83301 41 14.5
s15 23.167 15 40.5c0 12 -4.16699 23 -12.5 33s-26.833 22.333 -55.5 37c-40 20.667 -66.333 40 -79 58s-19 39 -19 63c0 34.667 12.667 61.834 38 81.501s60.333 29.5 105 29.5c15.333 0 32.666 -2.33301 51.999 -7s35 -10.334 47 -17.001l2 -91h-16
c-14 32 -27.5 55 -40.5 69s-28.167 21 -45.5 21c-16 0 -28.667 -4.16699 -38 -12.5s-14 -19.5 -14 -33.5c0 -13.333 4.5 -25.333 13.5 -36s28.5 -24 58.5 -40c39.333 -20 65.333 -38.667 78 -56s19 -38 19 -62z" />
    <glyph glyph-name="t" unicode="t" horiz-adv-x="305" 
d="M166 -10c-30.667 0 -55.5039 8.16699 -74.5039 24.5s-28.5 37.833 -28.5 64.5v226h-51v16l141 120h15v-79h130v-57h-130v-178c0 -22.667 5.83301 -40 17.5 -52s28.834 -18 51.501 -18c10.667 0 20.334 1 29.001 3s18.334 5.66699 29.001 11l9 -15
c-19.333 -18 -42.666 -33.5 -69.999 -46.5s-50 -19.5 -68 -19.5z" />
    <glyph glyph-name="u" unicode="u" horiz-adv-x="454" 
d="M173 -10c-36 0 -64.166 10.6709 -84.499 32.0039s-30.5 52 -30.5 92v153c0 9.33301 -1.33301 16.166 -4 20.499s-8.66699 9.16602 -18 14.499l-18 10v13l141 47l11 -7c-2.66699 -14 -4.5 -27.5 -5.5 -40.5s-1.5 -28.833 -1.5 -47.5v-142c0 -28 5 -48.833 15 -62.5
s25 -20.5 45 -20.5c10.667 0 21.334 1.5 32.001 4.5s21.667 7.83301 33 14.5v193c0 11.333 -1.33301 19.166 -4 23.499s-8.33398 8.16602 -17.001 11.499l-33 13v13l153 47l11 -7c-2 -12 -3.33301 -23.833 -4 -35.5s-1 -29.167 -1 -52.5v-191
c0 -10.667 1.66699 -18.167 5 -22.5s9.66602 -7.16602 18.999 -8.49902l30 -4v-16l-159 -45v54c-18 -14.667 -38.167 -27.334 -60.5 -38.001s-40.5 -16 -54.5 -16z" />
    <glyph glyph-name="v" unicode="v" horiz-adv-x="414" 
d="M223 -15h-35.001l-140 332c-3.33301 8.66699 -6.5 14.167 -9.5 16.5s-7.83301 4.5 -14.5 6.5l-21 5v17h206v-17l-38 -9c-4.66699 -1.33301 -7.66699 -3.5 -9 -6.5s-1 -7.16699 1 -12.5l84 -204l82 204c2 6 2.33301 10.667 1 14s-4.66602 5.33301 -9.99902 6l-39 8v17h130
v-17l-23 -6c-5.33301 -1.33301 -9.5 -3.5 -12.5 -6.5s-5.83301 -7.83301 -8.5 -14.5z" />
    <glyph glyph-name="w" unicode="w" horiz-adv-x="609" 
d="M215 -15l-34.998 0.000976562l-134 331c-4 8.66699 -7.66699 14.667 -11 18s-8 5.66602 -14 6.99902l-17 4v17h185v-17l-23 -4c-4.66699 -1.33301 -7.66699 -3.5 -9 -6.5s-1 -6.83301 1 -11.5l79 -203l49 130l-27 68c-2.66699 6.66699 -5.5 11.5 -8.5 14.5
s-7.83301 5.5 -14.5 7.5l-17 5v17h200v-17l-28 -4c-8.66699 -1.33301 -14.334 -4.33301 -17.001 -9s-2.33398 -11 0.999023 -19l76 -194l72 193c2.66699 6.66699 2.66699 11.667 0 15s-8.33398 6.33301 -17.001 9l-34 9v17h133v-17l-22 -7
c-5.33301 -2 -9.66602 -4.5 -12.999 -7.5s-6.33301 -7.5 -9 -13.5l-135 -332h-35l-88 223z" />
    <glyph glyph-name="x" unicode="x" horiz-adv-x="411" 
d="M139 17v-17h-134v17l22 7c7.33301 2.66699 13 5.16699 17 7.5s8.33301 6.83301 13 13.5l90 129l-90 137c-7.33301 11.333 -13 18.5 -17 21.5s-9.66699 5.5 -17 7.5l-18 5v17h218v-17l-25 -7c-9.33301 -2.66699 -14.666 -6.5 -15.999 -11.5s0.666992 -11.833 6 -20.5
l48 -73l63 84c4 6 5.66699 10.333 5 13s-4.33398 4.66699 -11.001 6l-37 9v17h145v-17l-25 -8c-14 -4.66699 -22.833 -8.16699 -26.5 -10.5s-6.83398 -5.5 -9.50098 -9.5l-88 -108l104 -158c5.33301 -8 10.333 -14 15 -18s11.667 -7.66699 21 -11l14 -5v-17h-218v17l27 7
c9.33301 2 14.833 5.66699 16.5 11s-0.5 12.333 -6.5 21l-61 92l-66 -101c-4.66699 -6.66699 -6.66699 -11.167 -6 -13.5s4.33398 -4.5 11.001 -6.5z" />
    <glyph glyph-name="y" unicode="y" horiz-adv-x="409" 
d="M86 -280c-9.33301 0 -17.168 3.16797 -23.501 9.50098s-12.833 16.5 -19.5 30.5c27.333 15.333 47 29.5 59 42.5s25.667 37.5 41 73.5l45 105l-143 336c-3.33301 8.66699 -6.5 14.167 -9.5 16.5s-7.83301 4.5 -14.5 6.5l-21 5v17h207v-17l-36 -9
c-5.33301 -1.33301 -8.5 -3.5 -9.5 -6.5s-0.5 -7.16699 1.5 -12.5l84 -204l80 204c2 6 2.33301 10.667 1 14s-4.66602 5.33301 -9.99902 6l-39 8v17h130v-17l-23 -6c-5.33301 -1.33301 -9.5 -3.5 -12.5 -6.5s-5.83301 -7.83301 -8.5 -14.5l-208 -490
c-19.333 -44.667 -33.5 -73.834 -42.5 -87.501s-18.5 -20.5 -28.5 -20.5z" />
    <glyph glyph-name="z" unicode="z" horiz-adv-x="367" 
d="M348 117l-14 -117h-319v14l199 321h-114c-7.33301 0 -12.333 -0.833008 -15 -2.5s-5 -5.16699 -7 -10.5l-27 -73h-15l3 113h304v-13l-197 -322h126c6 0 10.5 0.833008 13.5 2.5s5.83301 5.16699 8.5 10.5l37 77h17z" />
    <glyph glyph-name="braceleft" unicode="{" horiz-adv-x="225" 
d="M193 -100l-8 -22.0039l-32 11c-28.667 9.33301 -49.167 21.833 -61.5 37.5s-18.5 35.834 -18.5 60.501c0 10 1 21.333 3 34s6.66699 32.334 14 59.001c6 25.333 10 43.666 12 54.999s3 21.333 3 30c0 25.333 -5.83301 43.833 -17.5 55.5s-29.834 18.5 -54.501 20.5v24
c24.667 2 42.834 8.83301 54.501 20.5s17.5 30.167 17.5 55.5c0 8.66699 -1 18.834 -3 30.501s-6.33301 30.167 -13 55.5c-6.66699 26.667 -11 46.334 -13 59.001s-3 23.667 -3 33c0 24.667 6.16699 44.834 18.5 60.501s32.833 28.167 61.5 37.5l32 11l8 -22l-24 -9
c-24 -8.66699 -39.833 -18.5 -47.5 -29.5s-11.5 -25.833 -11.5 -44.5c0 -10.667 1 -23 3 -37s6 -35.333 12 -64c5.33301 -24 8.83301 -41.333 10.5 -52s2.5 -20 2.5 -28c0 -20.667 -5.33301 -39 -16 -55s-25 -27 -43 -33v-2c18 -6 32.333 -17 43 -33s16 -34.333 16 -55
c0 -8 -0.833008 -17.333 -2.5 -28s-5.16699 -28 -10.5 -52c-6 -28.667 -10 -50 -12 -64s-3 -26.333 -3 -37c0 -18.667 3.83301 -33.5 11.5 -44.5s23.5 -20.833 47.5 -29.5z" />
    <glyph glyph-name="bar" unicode="|" horiz-adv-x="200" 
d="M115 670v-940h-30v940h30z" />
    <glyph glyph-name="braceright" unicode="}" horiz-adv-x="225" 
d="M72 -110l-32 -11.998l-8 22l24 9c19.333 7.33301 32.666 17 39.999 29s11 28.333 11 49c0 5.33301 -0.5 13.333 -1.5 24s-3.5 29.334 -7.5 56.001c-4 30.667 -6.66699 52.667 -8 66s-2 23.666 -2 30.999c0 22 5 40.667 15 56s24.333 26 43 32v2
c-18.667 6 -33 16.667 -43 32s-15 34 -15 56c0 7.33301 0.666992 17.666 2 30.999s4 35.333 8 66c4 26.667 6.5 45.334 7.5 56.001s1.5 18.667 1.5 24c0 20.667 -3.66699 37 -11 49s-20.666 21.667 -39.999 29l-24 9l8 22l32 -12c26.667 -10 45.334 -22.333 56.001 -37
s16 -33.334 16 -56.001c0 -4 -0.5 -10.167 -1.5 -18.5s-3.5 -23.833 -7.5 -46.5c-5.33301 -33.333 -8.83301 -57.666 -10.5 -72.999s-2.5 -28 -2.5 -38c0 -30.667 5.33301 -51.334 16 -62.001s28.667 -16.667 54 -18v-28c-25.333 -1.33301 -43.333 -7.33301 -54 -18
s-16 -31.334 -16 -62.001c0 -10 0.833008 -22.667 2.5 -38s5.16699 -39.666 10.5 -72.999c4 -22.667 6.5 -38.167 7.5 -46.5s1.5 -14.5 1.5 -18.5c0 -22.667 -5.33301 -41.334 -16 -56.001s-29.334 -27 -56.001 -37z" />
    <glyph glyph-name="asciitilde" unicode="~" horiz-adv-x="500" 
d="M337 200c-11.333 0 -23.167 1.83398 -35.5 5.50098s-30.5 11.167 -54.5 22.5c-22.667 11.333 -39.834 18.666 -51.501 21.999s-22.834 5 -33.501 5c-16 0 -30.5 -3.83301 -43.5 -11.5s-26.833 -20.834 -41.5 -39.501l-23 20c15.333 22 32 38.333 50 49s38.667 16 62 16
c11.333 0 23.333 -1.83301 36 -5.5s31 -11.167 55 -22.5c22.667 -11.333 39.834 -18.666 51.501 -21.999s22.5 -5 32.5 -5c14.667 0 28.167 3.66699 40.5 11s25.833 20 40.5 38l23 -20c-15.333 -22 -31.666 -38 -48.999 -48s-37 -15 -59 -15z" />
    <glyph glyph-name="uni00A0" unicode="&#xa0;" horiz-adv-x="215" 
 />
    <glyph glyph-name="exclamdown" unicode="&#xa1;" horiz-adv-x="285" 
d="M80 -88l52.001 262h22l51 -262c1.33301 -7.33301 2.66602 -16.333 3.99902 -27s2 -19 2 -25c0 -24 -6 -43 -18 -57s-28.667 -21 -50 -21s-38.166 7 -50.499 21s-18.5 33 -18.5 57c0 6 0.666992 14.333 2 25s2.66602 19.667 3.99902 27zM143.001 238
c-19.333 0 -35.5 6.5 -48.5 19.5s-19.5 29.167 -19.5 48.5c0 18.667 6.5 34.334 19.5 47.001s29.167 19 48.5 19c18.667 0 34.334 -6.33301 47.001 -19s19 -28.334 19 -47.001c0 -19.333 -6.33301 -35.5 -19 -48.5s-28.334 -19.5 -47.001 -19.5z" />
    <glyph glyph-name="cent" unicode="&#xa2;" horiz-adv-x="362" 
d="M220 -8l0.00195312 -91.998h-33v90c-48 3.33301 -87 22 -117 56s-45 77 -45 129c0 50 14.667 92.333 44 127s68.666 56.667 117.999 66v87h33v-83h14c32.667 0 59.667 -4.5 81 -13.5s32 -20.167 32 -33.5c0 -6 -2.66699 -13.333 -8 -22s-14.333 -19.667 -27 -33h-7
c-27.333 33.333 -46.166 53.833 -56.499 61.5s-21.833 11.5 -34.5 11.5c-24.667 0 -44 -11.167 -58 -33.5s-21 -52.5 -21 -90.5c0 -46.667 11.667 -83.834 35 -111.501s54.666 -41.5 93.999 -41.5c16 0 30.667 1.5 44 4.5s27.666 8.16699 42.999 15.5l9 -13
c-16.667 -18 -38.5 -34.833 -65.5 -50.5s-51.833 -25.834 -74.5 -30.501z" />
    <glyph glyph-name="sterling" unicode="&#xa3;" horiz-adv-x="510" 
d="M67 0c-23.333 10 -38.6631 18.6689 -45.9961 26.002s-11 16.333 -11 27c0 16 10.167 30.5 30.5 43.5s45.166 21.5 74.499 25.5c13.333 14 23.666 30.5 30.999 49.5s11 39.167 11 60.5c0 8 -0.5 15.667 -1.5 23s-2.5 14.333 -4.5 21h-113v29h101
c-2 4.66699 -6.33301 13 -13 25s-11.667 22 -15 30c-4 10 -7 20 -9 30s-3 20.333 -3 31c0 47.333 20 85.666 60 114.999s92.333 44 157 44c38 0 67.667 -4.33301 89 -13s32 -21 32 -37c0 -7.33301 -3.16699 -15.833 -9.5 -25.5s-15.5 -19.834 -27.5 -30.501h-7
c-25.333 24 -50.666 42.667 -75.999 56s-48 20 -68 20s-35.833 -6.66699 -47.5 -20s-17.5 -31.333 -17.5 -54c0 -14 2 -27.833 6 -41.5s12.667 -32.834 26 -57.501c9.33301 -18.667 16 -33 20 -43s7 -19.667 9 -29h182v-29h-179v-2c0 -31.333 -9.16699 -60.5 -27.5 -87.5
s-43.166 -48.167 -74.499 -63.5c19.333 0 37.333 -1.33301 54 -4s38 -7.66699 64 -15c20 -6.66699 35.5 -10.834 46.5 -12.501s22.167 -2.5 33.5 -2.5c22 0 41.167 6 57.5 18s34.166 33 53.499 63l20 -8c-20.667 -64.667 -41.667 -109.5 -63 -134.5s-47.333 -37.5 -78 -37.5
c-18.667 0 -35.834 3.33301 -51.501 10s-34.834 20.334 -57.501 41.001c-17.333 16.667 -31 27.334 -41 32.001s-20.333 7 -31 7c-14.667 0 -27.834 -5 -39.501 -15s-27.167 -31.667 -46.5 -65z" />
    <glyph glyph-name="currency" unicode="&#xa4;" horiz-adv-x="500" 
d="M147 127l-56.002 -56.0039l-25 26l55 55c-12.667 14.667 -22.167 30.834 -28.5 48.501s-9.5 36.167 -9.5 55.5s3.16699 37.833 9.5 55.5s15.833 33.834 28.5 48.501l-56 56l25 25l56 -56c14 10.667 29.333 18.834 46 24.501s34.334 8.5 53.001 8.5
c19.333 0 38 -3.33301 56 -10s34 -16 48 -28l61 61l25 -26l-61 -61c10.667 -14 18.834 -29.333 24.501 -46s8.5 -34 8.5 -52s-2.83301 -35.333 -8.5 -52s-13.834 -32 -24.501 -46l61 -61l-26 -26l-61 61c-14.667 -12 -30.667 -21.333 -48 -28s-35.666 -10 -54.999 -10
c-18.667 0 -36.167 2.83301 -52.5 8.5s-31.5 13.834 -45.5 24.501zM117.998 255.996c0 -37.333 11.833 -68.333 35.5 -93s54.167 -37 91.5 -37c38 0 68.667 12.167 92 36.5s35 55.5 35 93.5s-11.667 69.167 -35 93.5s-54 36.5 -92 36.5c-37.333 0 -67.833 -12.333 -91.5 -37
s-35.5 -55.667 -35.5 -93z" />
    <glyph glyph-name="yen" unicode="&#xa5;" horiz-adv-x="573" 
d="M482 276l-392 0.000976562v29h117l-134 209c-6.66699 10.667 -12.667 17.667 -18 21s-12.333 6 -21 8l-30 6v21h265v-22l-50 -9c-10 -2 -16.667 -5 -20 -9s-3.33301 -9 0 -15l132 -208l128 199c6 9.33301 7.83301 17.166 5.5 23.499s-8.83301 10.5 -19.5 12.5l-37 7v21
h160v-21l-18 -5c-10 -3.33301 -18.167 -7.5 -24.5 -12.5s-13.833 -13.833 -22.5 -26.5l-137 -200h116v-29zM229 201.001h-139v29h392v-29h-139v-131c0 -14.667 2.16699 -24.5 6.5 -29.5s13.833 -9.16699 28.5 -12.5l37 -7v-21h-258v21l37 7
c14.667 3.33301 24.167 7.5 28.5 12.5s6.5 14.833 6.5 29.5v131z" />
    <glyph glyph-name="brokenbar" unicode="&#xa6;" horiz-adv-x="200" 
d="M115 670v-370h-30v370h30zM115 100v-370h-30v370h30z" />
    <glyph glyph-name="section" unicode="&#xa7;" horiz-adv-x="390" 
d="M358 124c0 -60.667 -20.502 -108.998 -61.502 -144.998s-95.5 -54 -163.5 -54c-29.333 0 -52.166 4 -68.499 12s-24.5 19.333 -24.5 34c0 6.66699 2 14.5 6 23.5s9.33301 17.833 16 26.5h7c26 -23.333 47.5 -39.333 64.5 -48s33.833 -13 50.5 -13
c19.333 0 34.333 4.66699 45 14s16 22.666 16 39.999c0 15.333 -6.5 33 -19.5 53s-32.833 43 -59.5 69c-47.333 46 -81.5 88.667 -102.5 128s-31.5 80 -31.5 122c0 56.667 20 103.167 60 139.5s89.667 54.5 149 54.5c31.333 0 55.333 -3.5 72 -10.5s25 -17.5 25 -31.5
c0 -7.33301 -2.16699 -14.5 -6.5 -21.5s-11.833 -15.5 -22.5 -25.5h-7c-19.333 19.333 -37.166 33.166 -53.499 41.499s-32.833 12.5 -49.5 12.5c-18 0 -31.833 -4.33301 -41.5 -13s-14.5 -21 -14.5 -37c0 -14.667 5.5 -31 16.5 -49s30.5 -41 58.5 -69
c52 -50.667 88.333 -95 109 -133s31 -78 31 -120zM196.998 195.002c32 -32 55.167 -59.1689 69.5 -81.502s23.833 -44.166 28.5 -65.499c10 44.667 6.83301 87.667 -9.5 129s-48.833 86.333 -97.5 135c-24.667 24.667 -44.5 48.834 -59.5 72.501s-25.167 47.5 -30.5 71.5
c-11.333 -42.667 -8.83301 -85.667 7.5 -129s46.833 -87.333 91.5 -132z" />
    <glyph glyph-name="dieresis" unicode="&#xa8;" 
d="M223 530c0 -15.333 -5.16699 -28.166 -15.5 -38.499s-22.833 -15.5 -37.5 -15.5c-16 0 -29.167 5.16699 -39.5 15.5s-15.5 23.166 -15.5 38.499s5.33301 28.333 16 39s23.667 16 39 16c14.667 0 27.167 -5.33301 37.5 -16s15.5 -23.667 15.5 -39zM384 530
c0 -15.333 -5.16699 -28.166 -15.5 -38.499s-22.833 -15.5 -37.5 -15.5c-16 0 -29.167 5.16699 -39.5 15.5s-15.5 23.166 -15.5 38.499s5.33301 28.333 16 39s23.667 16 39 16c14.667 0 27.167 -5.33301 37.5 -16s15.5 -23.667 15.5 -39z" />
    <glyph glyph-name="copyright" unicode="&#xa9;" horiz-adv-x="764" 
d="M743 285c0 -100 -34.167 -183.667 -102.5 -251s-154.5 -101 -258.5 -101c-106 0 -192.667 33.333 -260 100s-101 150.667 -101 252c0 102 33.5 186.167 100.5 252.5s153.833 99.5 260.5 99.5c104.667 0 191 -33.5 259 -100.5s102 -150.833 102 -251.5zM64 285
c0 -92 30.001 -168.667 90.001 -230s136.667 -92 230 -92c91.333 0 166.666 30.833 225.999 92.5s89 138.167 89 229.5s-30.333 167.833 -91 229.5s-136.667 92.5 -228 92.5c-93.333 0 -169.333 -30.167 -228 -90.5s-88 -137.5 -88 -231.5zM403.001 96
c-70 0 -125.33 16.5 -165.997 49.5s-61 78.167 -61 135.5c0 56.667 23.167 103.167 69.5 139.5s105.833 54.5 178.5 54.5c23.333 0 48.166 -3.5 74.499 -10.5s47.166 -15.833 62.499 -26.5v-75h-15l-9 21c-10.667 24 -25.834 42.167 -45.501 54.5s-43.5 18.5 -71.5 18.5
c-36.667 0 -64.5 -13.333 -83.5 -40s-28.5 -65.667 -28.5 -117c0 -64.667 8.5 -111.334 25.5 -140.001s43.833 -43 80.5 -43c23.333 0 44 5.83301 62 17.5s36.333 30.834 55 57.501l13 19h11l-4 -80c-14 -10.667 -34.833 -19.167 -62.5 -25.5s-56.167 -9.5 -85.5 -9.5z" />
    <glyph glyph-name="ordfeminine" unicode="&#xaa;" horiz-adv-x="261" 
d="M256 417l4.99609 -8.99902c-16.667 -12.667 -31.667 -22.334 -45 -29.001s-23.666 -10 -30.999 -10c-11.333 0 -20.333 2.66699 -27 8s-11 13.333 -13 24c-14.667 -10.667 -28 -18.667 -40 -24s-22.333 -8 -31 -8c-15.333 0 -27.5 4.16699 -36.5 12.5
s-13.5 20.166 -13.5 35.499c0 12 4.33301 22.333 13 31s22.667 16.334 42 23.001l65 23v31c0 12.667 -4.33301 23.334 -13 32.001s-19.334 13 -32.001 13c-5.33301 0 -9.66602 -0.5 -12.999 -1.5s-6 -2.5 -8 -4.5s-3.5 -4.83301 -4.5 -8.5s-1.5 -8.16699 -1.5 -13.5
c0 -3.33301 0.166992 -6.83301 0.5 -10.5s1.83301 -11.5 4.5 -23.5c-6 -3.33301 -11.5 -5.66602 -16.5 -6.99902s-10.167 -2 -15.5 -2c-6 0 -11 2 -15 6s-6 9 -6 15c0 17.333 14.167 35.666 42.5 54.999s55.5 29 81.5 29c18.667 0 36.167 -6.33301 52.5 -19
s24.5 -27.334 24.5 -44.001v-107c0 -7.33301 1.33301 -12.833 4 -16.5s6.33398 -5.5 11.001 -5.5c2.66699 0 5.33398 0.333008 8.00098 1s5.33398 2 8.00098 4zM104.996 440.001c0 -9.33301 1.99902 -16.165 5.99902 -20.498s10.333 -6.5 19 -6.5
c2 0 4.16699 0.166992 6.5 0.5s4.83301 1.16602 7.5 2.49902v65l-12 -5c-9.33301 -4 -16.166 -8.83301 -20.499 -14.5s-6.5 -12.834 -6.5 -21.501zM258.995 330.002v-37h-235v37h235z" />
    <glyph glyph-name="guillemotleft" unicode="&#xab;" horiz-adv-x="320" 
d="M70 178l78 -178l-23 -11l-98 182v14l98 182l23 -11zM190 178l78 -178l-23 -11l-98 182v14l98 182l23 -11z" />
    <glyph glyph-name="logicalnot" unicode="&#xac;" horiz-adv-x="499" 
d="M430 342v-195h-32v162h-330v33h362z" />
    <glyph glyph-name="uni00AD" unicode="&#xad;" horiz-adv-x="0" 
 />
    <glyph glyph-name="registered" unicode="&#xae;" horiz-adv-x="592" 
d="M574 285c0 -77.333 -26.167 -141.833 -78.5 -193.5s-118.833 -77.5 -199.5 -77.5c-82 0 -148.833 25.667 -200.5 77s-77.5 116 -77.5 194c0 78.667 25.833 143.5 77.5 194.5s118.5 76.5 200.5 76.5c80.667 0 147.167 -25.667 199.5 -77s78.5 -116 78.5 -194zM51 285
c0 -70.667 23.166 -129.5 69.499 -176.5s105.5 -70.5 177.5 -70.5c70.667 0 128.834 23.5 174.501 70.5s68.5 105.833 68.5 176.5c0 70 -23.5 128.833 -70.5 176.5s-105.833 71.5 -176.5 71.5c-72 0 -130.5 -23.333 -175.5 -70s-67.5 -106 -67.5 -178zM310.999 168v-15.001
h-168v15l23 3c6.66699 0.666992 11.167 2.5 13.5 5.5s3.5 8.16699 3.5 15.5v206c0 7.33301 -1.16699 12.5 -3.5 15.5s-6.83301 4.83301 -13.5 5.5l-23 3v15h147c45.333 0 81.166 -6.66699 107.499 -20s39.5 -31.666 39.5 -54.999c0 -17.333 -7.66699 -32.333 -23 -45
s-35 -20.667 -59 -24l88 -104c0.666992 -0.666992 3.16699 -3.5 7.5 -8.5s10.833 -8.16699 19.5 -9.5l14 -3v-15h-95c-9.33301 0 -16.166 1 -20.499 3s-9.16602 6.66699 -14.499 14l-63 87c-4.66699 6 -8.66699 10.167 -12 12.5s-8.33301 3.5 -15 3.5v-81
c0 -7.33301 1.16699 -12.5 3.5 -15.5s7.16602 -4.83301 14.499 -5.5zM287.999 418.999h-24.002v-129h24c16.667 0 29.834 6.16699 39.501 18.5s14.5 29.5 14.5 51.5c0 17.333 -5.16699 31.5 -15.5 42.5s-23.166 16.5 -38.499 16.5z" />
    <glyph glyph-name="macron" unicode="&#xaf;" 
d="M377 505h-254v37h254v-37z" />
    <glyph glyph-name="degree" unicode="&#xb0;" horiz-adv-x="306" 
d="M280 473c0 -34.667 -12.5 -64.167 -37.5 -88.5s-54.833 -36.5 -89.5 -36.5s-64.5 12.167 -89.5 36.5s-37.5 53.833 -37.5 88.5c0 34 12.5 63 37.5 87s54.833 36 89.5 36s64.5 -12 89.5 -36s37.5 -53 37.5 -87zM77 473c0 -22.667 7.33301 -41.667 22 -57
s32.667 -23 54 -23s39.333 7.66699 54 23s22 34.333 22 57c0 22 -7.33301 40.5 -22 55.5s-32.667 22.5 -54 22.5c-22 0 -40.167 -7.5 -54.5 -22.5s-21.5 -33.5 -21.5 -55.5z" />
    <glyph glyph-name="plusminus" unicode="&#xb1;" horiz-adv-x="500" 
d="M267 321v-162h-34v162h-168v33h168v169h34v-169h167v-33h-167zM434 33v-33h-369v33h369z" />
    <glyph glyph-name="twosuperior" unicode="&#xb2;" horiz-adv-x="233" 
d="M224 472l-21 -99.001h-190v8c46.667 43.333 79.834 78.5 99.501 105.5s29.5 52.167 29.5 75.5c0 16.667 -4.16699 29.334 -12.5 38.001s-20.833 13 -37.5 13c-15.333 0 -28.5 -4.5 -39.5 -13.5s-21.167 -23.167 -30.5 -42.5h-7c6 32 17.833 57.667 35.5 77
s39.167 29 64.5 29c29.333 0 52.166 -6.83301 68.499 -20.5s24.5 -32.167 24.5 -55.5c0 -19.333 -9.33301 -41.333 -28 -66s-47 -52 -85 -82v-2h92c5.33301 0 9.5 1.33301 12.5 4s5.5 7 7.5 13l6 19z" />
    <glyph glyph-name="threesuperior" unicode="&#xb3;" horiz-adv-x="226" 
d="M215 460c0 -27.333 -13.834 -49.5 -41.501 -66.5s-63.5 -25.5 -107.5 -25.5c-16.667 0 -30.167 3 -40.5 9s-15.5 14 -15.5 24c0 4.66699 2 10.5 6 17.5s8.66699 12.833 14 17.5h4c8.66699 -14.667 19 -26 31 -34s23.667 -12 35 -12c17.333 0 31.5 5 42.5 15
s16.5 22.667 16.5 38c0 16 -6.66699 29.333 -20 40s-31 16 -53 16c-5.33301 0 -12 -0.833008 -20 -2.5s-14 -3.5 -18 -5.5l-5 14c32.667 12.667 54.834 24.167 66.501 34.5s17.5 23.166 17.5 38.499c0 10 -4 18.333 -12 25s-19 10 -33 10c-15.333 0 -28 -3.83301 -38 -11.5
s-17.667 -19.5 -23 -35.5l-8 2c4 30 14.833 53.333 32.5 70s40.5 25 68.5 25c24 0 43 -5.33301 57 -16s21 -24.667 21 -42c0 -13.333 -4.66699 -24.5 -14 -33.5s-25 -17.5 -47 -25.5v-1c26 -2.66699 46.5 -11.667 61.5 -27s22.5 -34.666 22.5 -57.999z" />
    <glyph glyph-name="acute" unicode="&#xb4;" 
d="M227 414l-18 8l60 160c4 10.667 8.33301 18.5 13 23.5s10 7.5 16 7.5s11 -1.83301 15 -5.5s6 -8.16699 6 -13.5c0 -4 -0.5 -7.83301 -1.5 -11.5s-3.16699 -8.5 -6.5 -14.5z" />
    <glyph glyph-name="mu" unicode="&#xb5;" horiz-adv-x="457" 
d="M173 -10c-18 0 -33.835 2.67188 -47.502 8.00488s-25.5 13 -35.5 23v-65c0 -37.333 7.5 -70.833 22.5 -100.5s38.167 -57.167 69.5 -82.5l2 -6c-7.33301 -15.333 -16.166 -27 -26.499 -35s-21.5 -12 -33.5 -12c-23.333 0 -40.666 19.667 -51.999 59
s-16.666 97.666 -15.999 174.999l2 237v76c0 9.33301 -1.33301 16.166 -4 20.499s-8.66699 9.16602 -18 14.499l-18 10v13l141 47l11 -7c-2.66699 -14 -4.5 -27.5 -5.5 -40.5s-1.5 -28.833 -1.5 -47.5v-142c0 -28 5 -48.833 15 -62.5s25 -20.5 45 -20.5
c10.667 0 21.334 1.5 32.001 4.5s21.667 7.83301 33 14.5v193c0 11.333 -1.33301 19.166 -4 23.499s-8.33398 8.16602 -17.001 11.499l-33 13v13l153 47l11 -7c-2 -12 -3.33301 -23.833 -4 -35.5s-1 -29.167 -1 -52.5v-191c0 -10.667 1.66699 -18.167 5 -22.5
s9.66602 -7.16602 18.999 -8.49902l30 -4v-16l-159 -45v54c-18 -14.667 -38.167 -27.334 -60.5 -38.001s-40.5 -16 -54.5 -16z" />
    <glyph glyph-name="paragraph" unicode="&#xb6;" horiz-adv-x="487" 
d="M407 27c0 -65.333 -14.665 -115.496 -43.998 -150.496s-71.333 -52.5 -126 -52.5c-30 0 -56 4.33301 -78 13s-33 20 -33 34c0 6 3.16699 13.833 9.5 23.5s15.166 20.5 26.499 32.5h7c25.333 -30 45 -49.667 59 -59s28.333 -14 43 -14c26 0 45.333 13 58 39s19 66 19 120
c0 14 -0.666992 29.167 -2 45.5s-3.66602 40.5 -6.99902 72.5c-2 16 -3.33301 27.833 -4 35.5s-1.33398 14.5 -2.00098 20.5h-62c-73.333 0 -132.666 18.5 -177.999 55.5s-68 86.5 -68 148.5c0 57.333 20.167 101.5 60.5 132.5s97.166 46.5 170.499 46.5h209v-21l-38 -7
c-10.667 -2 -18 -5.33301 -22 -10s-7.33301 -12.667 -10 -24c-3.33301 -14.667 -5.83301 -33.834 -7.5 -57.501s-2.5 -52.834 -2.5 -87.501c0 -23.333 0.666992 -47.5 2 -72.5s4.66602 -60.5 9.99902 -106.5c4 -42.667 6.66699 -74.834 8 -96.501s2 -41.834 2 -60.501z" />
    <glyph glyph-name="periodcentered" unicode="&#xb7;" horiz-adv-x="500" 
d="M304 332c0 -15.333 -5.16699 -28.166 -15.5 -38.499s-22.833 -15.5 -37.5 -15.5c-16 0 -29.167 5.16699 -39.5 15.5s-15.5 23.166 -15.5 38.499s5.33301 28.333 16 39s23.667 16 39 16c14.667 0 27.167 -5.33301 37.5 -16s15.5 -23.667 15.5 -39z" />
    <glyph glyph-name="cedilla" unicode="&#xb8;" horiz-adv-x="500" 
d="M347 -145c0 -24.667 -11.501 -44.499 -34.501 -59.499s-52.833 -22.5 -89.5 -22.5c-16.667 0 -29.334 2.16699 -38.001 6.5s-13 10.5 -13 18.5c0 5.33301 1.5 10.333 4.5 15s8.83301 10.667 17.5 18c12.667 -12 24 -20.5 34 -25.5s22 -7.5 36 -7.5
c12.667 0 22.834 3.66699 30.501 11s11.5 17 11.5 29c0 14.667 -7.5 27.167 -22.5 37.5s-39.5 20.166 -73.5 29.499v12l42 83h30l-31 -59c32.667 -9.33301 56.834 -21 72.501 -35s23.5 -31 23.5 -51z" />
    <glyph glyph-name="onesuperior" unicode="&#xb9;" horiz-adv-x="171" 
d="M165 385l-0.00292969 -11.999h-145v12l26 5c4.66699 1.33301 7.83398 3.16602 9.50098 5.49902s2.5 6.16602 2.5 11.499v164c0 12 -2 20.833 -6 26.5s-10.333 8.5 -19 8.5c-3.33301 0 -6.83301 -0.166992 -10.5 -0.5s-7.16699 -1.16602 -10.5 -2.49902l-5 12l117 53l6 -3
c-1.33301 -7.33301 -2.16602 -14.5 -2.49902 -21.5s-0.5 -17.167 -0.5 -30.5v-206c0 -6 0.833008 -10.167 2.5 -12.5s4.83398 -3.83301 9.50098 -4.5z" />
    <glyph glyph-name="ordmasculine" unicode="&#xba;" horiz-adv-x="280" 
d="M141 604c37.333 0 67.6699 -10 91.0029 -30s35 -47.333 35 -82c0 -36 -12.333 -65.5 -37 -88.5s-55.334 -34.5 -92.001 -34.5s-66.834 10.167 -90.501 30.5s-35.5 47.833 -35.5 82.5c0 35.333 12.667 64.5 38 87.5s55.666 34.5 90.999 34.5zM139.004 585
c-14 0 -24 -7 -30 -21s-9 -37 -9 -69c0 -36 3.33301 -63 10 -81s16.667 -27 30 -27c14 0 24 6.83301 30 20.5s9 37.167 9 70.5c0 36 -3.33301 62.833 -10 80.5s-16.667 26.5 -30 26.5zM268.004 330v-37h-256v37h256z" />
    <glyph glyph-name="guillemotright" unicode="&#xbb;" horiz-adv-x="320" 
d="M75 -11l-23 11l78 178l-78 178l23 11l98 -182v-14zM195 -11l-23 11l78 178l-78 178l23 11l98 -182v-14z" />
    <glyph glyph-name="onequarter" unicode="&#xbc;" horiz-adv-x="466" 
d="M165 297l-0.00292969 -11.999h-145v12l26 5c4.66699 1.33301 7.83398 3.16602 9.50098 5.49902s2.5 6.16602 2.5 11.499v164c0 12 -2 20.833 -6 26.5s-10.333 8.5 -19 8.5c-3.33301 0 -6.83301 -0.166992 -10.5 -0.5s-7.16699 -1.16602 -10.5 -2.49902l-5 12l117 53l6 -3
c-1.33301 -7.33301 -2.16602 -14.5 -2.49902 -21.5s-0.5 -17.167 -0.5 -30.5v-206c0 -6 0.833008 -10.167 2.5 -12.5s4.83398 -3.83301 9.50098 -4.5zM391.997 555.001l-323 -555l-28 15l326 555zM434.997 15.001l-0.000976562 -15h-139v15l15 2
c8 0.666992 13.333 2.66699 16 6s4 9.33301 4 18v27h-110v30l153 192h25v-188h49v-34h-49v-27c0 -8.66699 1.33301 -14.667 4 -18s8.33398 -5.33301 17.001 -6zM330.996 203.001l-82 -101h82v101z" />
    <glyph glyph-name="onehalf" unicode="&#xbd;" horiz-adv-x="495" 
d="M165 297l-0.00292969 -11.999h-145v12l26 5c4.66699 1.33301 7.83398 3.16602 9.50098 5.49902s2.5 6.16602 2.5 11.499v164c0 12 -2 20.833 -6 26.5s-10.333 8.5 -19 8.5c-3.33301 0 -6.83301 -0.166992 -10.5 -0.5s-7.16699 -1.16602 -10.5 -2.49902l-5 12l117 53l6 -3
c-1.33301 -7.33301 -2.16602 -14.5 -2.49902 -21.5s-0.5 -17.167 -0.5 -30.5v-206c0 -6 0.833008 -10.167 2.5 -12.5s4.83398 -3.83301 9.50098 -4.5zM391.997 555.001l-323 -555l-28 15l326 555zM485.997 99.001l-21 -99.001h-190v8
c46.667 43.333 79.834 78.5 99.501 105.5s29.5 52.167 29.5 75.5c0 16.667 -4.16699 29.334 -12.5 38.001s-20.833 13 -37.5 13c-15.333 0 -28.5 -4.5 -39.5 -13.5s-21.167 -23.167 -30.5 -42.5h-7c6 32 17.833 57.667 35.5 77s39.167 29 64.5 29
c29.333 0 52.166 -6.83301 68.499 -20.5s24.5 -32.167 24.5 -55.5c0 -19.333 -9.33301 -41.333 -28 -66s-47 -52 -85 -82v-2h92c5.33301 0 9.5 1.33301 12.5 4s5.5 7 7.5 13l6 19z" />
    <glyph glyph-name="threequarters" unicode="&#xbe;" horiz-adv-x="581" 
d="M215 372c0 -27.333 -13.834 -49.5 -41.501 -66.5s-63.5 -25.5 -107.5 -25.5c-16.667 0 -30.167 3 -40.5 9s-15.5 14 -15.5 24c0 4.66699 2 10.5 6 17.5s8.66699 12.833 14 17.5h4c8.66699 -14.667 19 -26 31 -34s23.667 -12 35 -12c17.333 0 31.5 5 42.5 15
s16.5 22.667 16.5 38c0 16 -6.66699 29.333 -20 40s-31 16 -53 16c-5.33301 0 -12 -0.833008 -20 -2.5s-14 -3.5 -18 -5.5l-5 14c32.667 12.667 54.834 24.167 66.501 34.5s17.5 23.166 17.5 38.499c0 10 -4 18.333 -12 25s-19 10 -33 10c-15.333 0 -28 -3.83301 -38 -11.5
s-17.667 -19.5 -23 -35.5l-8 2c4 30 14.833 53.333 32.5 70s40.5 25 68.5 25c24 0 43 -5.33301 57 -16s21 -24.667 21 -42c0 -13.333 -4.66699 -24.5 -14 -33.5s-25 -17.5 -47 -25.5v-1c26 -2.66699 46.5 -11.667 61.5 -27s22.5 -34.666 22.5 -57.999zM446.999 555
l-323 -555l-28 15l326 555zM549.999 15l-0.000976562 -15h-139v15l15 2c8 0.666992 13.333 2.66699 16 6s4 9.33301 4 18v27h-110v30l153 192h25v-188h49v-34h-49v-27c0 -8.66699 1.33301 -14.667 4 -18s8.33398 -5.33301 17.001 -6zM445.998 203l-82 -101h82v101z" />
    <glyph glyph-name="questiondown" unicode="&#xbf;" horiz-adv-x="385" 
d="M216 150l5.00195 24.001h22l21 -117c2 -12.667 1.66699 -21.334 -1 -26.001s-12 -10 -28 -16c-44.667 -16.667 -76.334 -34.167 -95.001 -52.5s-28 -39.833 -28 -64.5c0 -23.333 6.66699 -42.333 20 -57s30.666 -22 51.999 -22c15.333 0 29.833 5 43.5 15
s32.5 30 56.5 60h7c13.333 -12.667 23.5 -25.167 30.5 -37.5s10.5 -23.833 10.5 -34.5c0 -13.333 -8.16699 -23.333 -24.5 -30s-39.833 -10 -70.5 -10c-63.333 0 -115.833 16.667 -157.5 50s-62.5 74.666 -62.5 123.999c0 40.667 13 73.834 39 99.501
s70.667 49.167 134 70.5c10 3.33301 16.5 6.33301 19.5 9s5.16699 7.66699 6.5 15zM232.002 238.001c-19.333 0 -35.5 6.5 -48.5 19.5s-19.5 29.167 -19.5 48.5c0 18.667 6.5 34.334 19.5 47.001s29.167 19 48.5 19c18.667 0 34.334 -6.33301 47.001 -19
s19 -28.334 19 -47.001c0 -19.333 -6.33301 -35.5 -19 -48.5s-28.334 -19.5 -47.001 -19.5z" />
    <glyph glyph-name="Agrave" unicode="&#xc0;" horiz-adv-x="598" 
d="M168 21l-0.00195312 -21.001h-163v21l18 5c10.667 3.33301 18.167 6.83301 22.5 10.5s8.5 10.5 12.5 20.5l213 522h54l214 -522c4 -9.33301 8.33301 -16.166 13 -20.499s11.667 -7.83301 21 -10.5l20 -5v-21h-245v21l50 9c10 2 16.333 4.66699 19 8
s2.33398 9 -0.999023 17l-59 145h-198l-56 -146c-2.66699 -7.33301 -2.66699 -12.833 0 -16.5s9.33398 -6.5 20.001 -8.5zM254.998 452.999l-84 -221h173zM265.998 735.999l38 -111.001l-19 -8l-59 103c-2.66699 4.66699 -4.66699 9 -6 13s-2 7.33301 -2 10
c0 6 1.83301 10.833 5.5 14.5s8.5 5.5 14.5 5.5s11.333 -2.16699 16 -6.5s8.66699 -11.166 12 -20.499z" />
    <glyph glyph-name="Aacute" unicode="&#xc1;" horiz-adv-x="598" 
d="M168 21l-0.00195312 -21.001h-163v21l18 5c10.667 3.33301 18.167 6.83301 22.5 10.5s8.5 10.5 12.5 20.5l213 522h54l214 -522c4 -9.33301 8.33301 -16.166 13 -20.499s11.667 -7.83301 21 -10.5l20 -5v-21h-245v21l50 9c10 2 16.333 4.66699 19 8
s2.33398 9 -0.999023 17l-59 145h-198l-56 -146c-2.66699 -7.33301 -2.66699 -12.833 0 -16.5s9.33398 -6.5 20.001 -8.5zM254.998 452.999l-84 -221h173zM309.998 616.999l-19 8.00098l38 111c3.33301 9.33301 7.33301 16.166 12 20.499s10 6.5 16 6.5
s10.833 -1.83301 14.5 -5.5s5.5 -8.5 5.5 -14.5c0 -2.66699 -0.666992 -6 -2 -10s-3.33301 -8.33301 -6 -13z" />
    <glyph glyph-name="Acircumflex" unicode="&#xc2;" horiz-adv-x="598" 
d="M168 21l-0.00195312 -21.001h-163v21l18 5c10.667 3.33301 18.167 6.83301 22.5 10.5s8.5 10.5 12.5 20.5l213 522h54l214 -522c4 -9.33301 8.33301 -16.166 13 -20.499s11.667 -7.83301 21 -10.5l20 -5v-21h-245v21l50 9c10 2 16.333 4.66699 19 8
s2.33398 9 -0.999023 17l-59 145h-198l-56 -146c-2.66699 -7.33301 -2.66699 -12.833 0 -16.5s9.33398 -6.5 20.001 -8.5zM254.998 452.999l-84 -221h173zM327.998 740.999l79 -112l-19 -12l-91 100h-1l-91 -100l-19 12l79 112c6 8.66699 11.167 14.5 15.5 17.5
s9.5 4.5 15.5 4.5s11.167 -1.5 15.5 -4.5s9.83301 -8.83301 16.5 -17.5z" />
    <glyph glyph-name="Atilde" unicode="&#xc3;" horiz-adv-x="598" 
d="M168 21l-0.00195312 -21.001h-163v21l18 5c10.667 3.33301 18.167 6.83301 22.5 10.5s8.5 10.5 12.5 20.5l213 522h54l214 -522c4 -9.33301 8.33301 -16.166 13 -20.499s11.667 -7.83301 21 -10.5l20 -5v-21h-245v21l50 9c10 2 16.333 4.66699 19 8
s2.33398 9 -0.999023 17l-59 145h-198l-56 -146c-2.66699 -7.33301 -2.66699 -12.833 0 -16.5s9.33398 -6.5 20.001 -8.5zM254.998 452.999l-84 -221h173zM351.998 648.999c-6 0 -12.999 1.33301 -20.999 4s-20.667 8 -38 16c-15.333 8 -26.5 13.167 -33.5 15.5
s-12.833 3.5 -17.5 3.5c-8 0 -14.5 -2 -19.5 -6s-9.83301 -11 -14.5 -21l-18 -39l-18 7l20 50c9.33301 22 18.333 36.667 27 44s19.667 11 33 11c5.33301 0 12 -1.33301 20 -4s20.667 -8 38 -16c16 -8 27.5 -13.167 34.5 -15.5s12.833 -3.5 17.5 -3.5c8 0 14.5 2 19.5 6
s9.83301 11 14.5 21l18 38l18 -7l-20 -49c-8.66699 -22 -17.334 -36.667 -26.001 -44s-20 -11 -34 -11z" />
    <glyph glyph-name="Adieresis" unicode="&#xc4;" horiz-adv-x="598" 
d="M168 21l-0.00195312 -21.001h-163v21l18 5c10.667 3.33301 18.167 6.83301 22.5 10.5s8.5 10.5 12.5 20.5l213 522h54l214 -522c4 -9.33301 8.33301 -16.166 13 -20.499s11.667 -7.83301 21 -10.5l20 -5v-21h-245v21l50 9c10 2 16.333 4.66699 19 8
s2.33398 9 -0.999023 17l-59 145h-198l-56 -146c-2.66699 -7.33301 -2.66699 -12.833 0 -16.5s9.33398 -6.5 20.001 -8.5zM254.998 452.999l-84 -221h173zM271.998 680.999c0 -15.333 -5.16699 -28.166 -15.5 -38.499s-22.833 -15.5 -37.5 -15.5
c-16 0 -29.167 5.16699 -39.5 15.5s-15.5 23.166 -15.5 38.499s5.33301 28.333 16 39s23.667 16 39 16c14.667 0 27.167 -5.33301 37.5 -16s15.5 -23.667 15.5 -39zM433.998 680.999c0 -15.333 -5.16699 -28.166 -15.5 -38.499s-22.833 -15.5 -37.5 -15.5
c-16 0 -29.167 5.16699 -39.5 15.5s-15.5 23.166 -15.5 38.499s5.33301 28.333 16 39s23.667 16 39 16c14.667 0 27.167 -5.33301 37.5 -16s15.5 -23.667 15.5 -39z" />
    <glyph glyph-name="Aring" unicode="&#xc5;" horiz-adv-x="598" 
d="M168 21l-0.00195312 -21.001h-163v21l18 5c10.667 3.33301 18.167 6.83301 22.5 10.5s8.5 10.5 12.5 20.5l213 522h54l214 -522c4 -9.33301 8.33301 -16.166 13 -20.499s11.667 -7.83301 21 -10.5l20 -5v-21h-245v21l50 9c10 2 16.333 4.66699 19 8
s2.33398 9 -0.999023 17l-59 145h-198l-56 -146c-2.66699 -7.33301 -2.66699 -12.833 0 -16.5s9.33398 -6.5 20.001 -8.5zM254.998 452.999l-84 -221h173zM300.998 766.999c28.667 0 51.668 -7 69.001 -21s26 -32.333 26 -55c0 -24.667 -9 -44.667 -27 -60
s-41.333 -23 -70 -23s-51.834 7 -69.501 21s-26.5 32.333 -26.5 55c0 24.667 9 44.667 27 60s41.667 23 71 23zM301.999 626.999c16.667 0 30 5.5 40 16.5s15 25.5 15 43.5c0 18.667 -5.5 33.667 -16.5 45s-25.5 17 -43.5 17c-16.667 0 -30.167 -5.5 -40.5 -16.5
s-15.5 -25.833 -15.5 -44.5s5.5 -33.5 16.5 -44.5s25.833 -16.5 44.5 -16.5z" />
    <glyph glyph-name="AE" unicode="&#xc6;" horiz-adv-x="807" 
d="M167 21l-0.00195312 -20.998h-165v21l18 5c9.33301 2.66699 16.333 5.66699 21 9s10.334 10.666 17.001 21.999l281 444c6.66699 12 8.5 20.833 5.5 26.5s-12.833 10.167 -29.5 13.5l-41 8v21h390c13.333 0 24.833 0.833008 34.5 2.5s18.834 4.5 27.501 8.5l9 -3v-141
h-19l-20 56c-6 17.333 -12.667 29.166 -20 35.499s-20.333 9.83301 -39 10.5l-124 4v-248h102c12 0 20.333 1.5 25 4.5s9 9.5 13 19.5l22 56h19v-192h-19l-22 55c-4 10 -8.66699 16.667 -14 20s-13.333 5 -24 5h-102v-198c0 -16.667 3.66699 -27.667 11 -33
s22 -7.33301 44 -6l100 6c16.667 1.33301 29 4.5 37 9.5s14.667 13.833 20 26.5l36 85h19l-12 -153h-440v21l37 7c14.667 3.33301 24.167 7.5 28.5 12.5s6.5 14.833 6.5 29.5v150h-194l-101 -166c-4 -7.33301 -4.66699 -12.833 -2 -16.5s9 -6.5 19 -8.5zM399.998 537.002
l-174 -285h174v285z" />
    <glyph glyph-name="Ccedilla" unicode="&#xc7;" horiz-adv-x="618" 
d="M446 -145c0 -24.667 -11.5 -44.4971 -34.5 -59.4971s-52.833 -22.5 -89.5 -22.5c-16.667 0 -29.334 2.16699 -38.001 6.5s-13 10.5 -13 18.5c0 5.33301 1.5 10.333 4.5 15s8.83301 10.667 17.5 18c12.667 -12 24 -20.5 34 -25.5s22 -7.5 36 -7.5
c12.667 0 22.834 3.66699 30.501 11s11.5 17 11.5 29c0 14.667 -7.5 27.167 -22.5 37.5s-39.5 20.166 -73.5 29.499v12l37 73c-93.333 1.33301 -167.5 28 -222.5 80s-82.5 121.333 -82.5 208c0 88 30.333 160.333 91 217s137.667 85 231 85
c34 0 68.833 -5.16699 104.5 -15.5s65.5 -23.833 89.5 -40.5v-114h-18l-15 38c-13.333 34 -33.833 59.833 -61.5 77.5s-60.834 26.5 -99.501 26.5c-61.333 0 -109 -22.833 -143 -68.5s-51 -109.167 -51 -190.5c0 -84.667 18 -151.5 54 -200.5s85.333 -73.5 148 -73.5
c37.333 0 70 8.16699 98 24.5s50 40.166 66 71.499l20 39h15l-5 -110c-19.333 -14.667 -46.333 -26.834 -81 -36.501s-70.667 -15.167 -108 -16.5l-26 -50c32.667 -9.33301 56.834 -21 72.501 -35s23.5 -31 23.5 -51z" />
    <glyph glyph-name="Egrave" unicode="&#xc8;" horiz-adv-x="534" 
d="M421 385l-0.000976562 -191.999h-19l-22 55c-4 10 -8.66699 16.667 -14 20s-13.333 5 -24 5h-122v-208c0 -16.667 3.66699 -27.667 11 -33s22 -7.33301 44 -6l120 6c16.667 1.33301 29 4.5 37 9.5s14.667 13.833 20 26.5l36 85h19l-12 -153h-460v21l37 7
c14.667 3.33301 24.167 7.5 28.5 12.5s6.5 14.833 6.5 29.5v430c0 14.667 -2.16699 24.5 -6.5 29.5s-13.833 9.16699 -28.5 12.5l-37 7v21h356c13.333 0 24.833 0.833008 34.5 2.5s18.834 4.5 27.501 8.5l9 -3v-141h-19l-20 56c-6 17.333 -12.667 29.166 -20 35.499
s-20.333 9.83301 -39 10.5l-144 4v-238h122c12 0 20.333 1.5 25 4.5s9 9.5 13 19.5l22 56h19zM261.999 736.001l38 -111.001l-19 -8l-59 103c-2.66699 4.66699 -4.66699 9 -6 13s-2 7.33301 -2 10c0 6 1.83301 10.833 5.5 14.5s8.5 5.5 14.5 5.5s11.333 -2.16699 16 -6.5
s8.66699 -11.166 12 -20.499z" />
    <glyph glyph-name="Eacute" unicode="&#xc9;" horiz-adv-x="534" 
d="M421 385l-0.000976562 -191.999h-19l-22 55c-4 10 -8.66699 16.667 -14 20s-13.333 5 -24 5h-122v-208c0 -16.667 3.66699 -27.667 11 -33s22 -7.33301 44 -6l120 6c16.667 1.33301 29 4.5 37 9.5s14.667 13.833 20 26.5l36 85h19l-12 -153h-460v21l37 7
c14.667 3.33301 24.167 7.5 28.5 12.5s6.5 14.833 6.5 29.5v430c0 14.667 -2.16699 24.5 -6.5 29.5s-13.833 9.16699 -28.5 12.5l-37 7v21h356c13.333 0 24.833 0.833008 34.5 2.5s18.834 4.5 27.501 8.5l9 -3v-141h-19l-20 56c-6 17.333 -12.667 29.166 -20 35.499
s-20.333 9.83301 -39 10.5l-144 4v-238h122c12 0 20.333 1.5 25 4.5s9 9.5 13 19.5l22 56h19zM305.999 617.001l-19 8.00098l38 111c3.33301 9.33301 7.33301 16.166 12 20.499s10 6.5 16 6.5s10.833 -1.83301 14.5 -5.5s5.5 -8.5 5.5 -14.5c0 -2.66699 -0.666992 -6 -2 -10
s-3.33301 -8.33301 -6 -13z" />
    <glyph glyph-name="Ecircumflex" unicode="&#xca;" horiz-adv-x="534" 
d="M421 385l-0.000976562 -191.999h-19l-22 55c-4 10 -8.66699 16.667 -14 20s-13.333 5 -24 5h-122v-208c0 -16.667 3.66699 -27.667 11 -33s22 -7.33301 44 -6l120 6c16.667 1.33301 29 4.5 37 9.5s14.667 13.833 20 26.5l36 85h19l-12 -153h-460v21l37 7
c14.667 3.33301 24.167 7.5 28.5 12.5s6.5 14.833 6.5 29.5v430c0 14.667 -2.16699 24.5 -6.5 29.5s-13.833 9.16699 -28.5 12.5l-37 7v21h356c13.333 0 24.833 0.833008 34.5 2.5s18.834 4.5 27.501 8.5l9 -3v-141h-19l-20 56c-6 17.333 -12.667 29.166 -20 35.499
s-20.333 9.83301 -39 10.5l-144 4v-238h122c12 0 20.333 1.5 25 4.5s9 9.5 13 19.5l22 56h19zM323.999 741.001l79 -112l-19 -12l-91 100h-1l-91 -100l-19 12l79 112c6 8.66699 11.167 14.5 15.5 17.5s9.5 4.5 15.5 4.5s11.167 -1.5 15.5 -4.5s9.83301 -8.83301 16.5 -17.5z
" />
    <glyph glyph-name="Edieresis" unicode="&#xcb;" horiz-adv-x="534" 
d="M421 385l-0.000976562 -191.999h-19l-22 55c-4 10 -8.66699 16.667 -14 20s-13.333 5 -24 5h-122v-208c0 -16.667 3.66699 -27.667 11 -33s22 -7.33301 44 -6l120 6c16.667 1.33301 29 4.5 37 9.5s14.667 13.833 20 26.5l36 85h19l-12 -153h-460v21l37 7
c14.667 3.33301 24.167 7.5 28.5 12.5s6.5 14.833 6.5 29.5v430c0 14.667 -2.16699 24.5 -6.5 29.5s-13.833 9.16699 -28.5 12.5l-37 7v21h356c13.333 0 24.833 0.833008 34.5 2.5s18.834 4.5 27.501 8.5l9 -3v-141h-19l-20 56c-6 17.333 -12.667 29.166 -20 35.499
s-20.333 9.83301 -39 10.5l-144 4v-238h122c12 0 20.333 1.5 25 4.5s9 9.5 13 19.5l22 56h19zM267.999 681.001c0 -15.333 -5.16699 -28.166 -15.5 -38.499s-22.833 -15.5 -37.5 -15.5c-16 0 -29.167 5.16699 -39.5 15.5s-15.5 23.166 -15.5 38.499s5.33301 28.333 16 39
s23.667 16 39 16c14.667 0 27.167 -5.33301 37.5 -16s15.5 -23.667 15.5 -39zM429.999 681.001c0 -15.333 -5.16699 -28.166 -15.5 -38.499s-22.833 -15.5 -37.5 -15.5c-16 0 -29.167 5.16699 -39.5 15.5s-15.5 23.166 -15.5 38.499s5.33301 28.333 16 39s23.667 16 39 16
c14.667 0 27.167 -5.33301 37.5 -16s15.5 -23.667 15.5 -39z" />
    <glyph glyph-name="Igrave" unicode="&#xcc;" horiz-adv-x="327" 
d="M292 21v-21h-257v21l37 7c14.667 3.33301 24.167 7.5 28.5 12.5s6.5 14.833 6.5 29.5v430c0 14.667 -2.16699 24.5 -6.5 29.5s-13.833 9.16699 -28.5 12.5l-37 7v21h257v-21l-37 -7c-14.667 -3.33301 -24.167 -7.5 -28.5 -12.5s-6.5 -14.833 -6.5 -29.5v-430
c0 -14.667 2.16699 -24.5 6.5 -29.5s13.833 -9.16699 28.5 -12.5zM131 736l38 -111.001l-19 -8l-59 103c-2.66699 4.66699 -4.66699 9 -6 13s-2 7.33301 -2 10c0 6 1.83301 10.833 5.5 14.5s8.5 5.5 14.5 5.5s11.333 -2.16699 16 -6.5s8.66699 -11.166 12 -20.499z" />
    <glyph glyph-name="Iacute" unicode="&#xcd;" horiz-adv-x="327" 
d="M292 21v-21h-257v21l37 7c14.667 3.33301 24.167 7.5 28.5 12.5s6.5 14.833 6.5 29.5v430c0 14.667 -2.16699 24.5 -6.5 29.5s-13.833 9.16699 -28.5 12.5l-37 7v21h257v-21l-37 -7c-14.667 -3.33301 -24.167 -7.5 -28.5 -12.5s-6.5 -14.833 -6.5 -29.5v-430
c0 -14.667 2.16699 -24.5 6.5 -29.5s13.833 -9.16699 28.5 -12.5zM175 617l-19 8.00098l38 111c3.33301 9.33301 7.33301 16.166 12 20.499s10 6.5 16 6.5s10.833 -1.83301 14.5 -5.5s5.5 -8.5 5.5 -14.5c0 -2.66699 -0.666992 -6 -2 -10s-3.33301 -8.33301 -6 -13z" />
    <glyph glyph-name="Icircumflex" unicode="&#xce;" horiz-adv-x="327" 
d="M292 21v-21h-257v21l37 7c14.667 3.33301 24.167 7.5 28.5 12.5s6.5 14.833 6.5 29.5v430c0 14.667 -2.16699 24.5 -6.5 29.5s-13.833 9.16699 -28.5 12.5l-37 7v21h257v-21l-37 -7c-14.667 -3.33301 -24.167 -7.5 -28.5 -12.5s-6.5 -14.833 -6.5 -29.5v-430
c0 -14.667 2.16699 -24.5 6.5 -29.5s13.833 -9.16699 28.5 -12.5zM193 741l79 -112l-19 -12l-91 100h-1l-91 -100l-19 12l79 112c6 8.66699 11.167 14.5 15.5 17.5s9.5 4.5 15.5 4.5s11.167 -1.5 15.5 -4.5s9.83301 -8.83301 16.5 -17.5z" />
    <glyph glyph-name="Idieresis" unicode="&#xcf;" horiz-adv-x="327" 
d="M292 21v-21h-257v21l37 7c14.667 3.33301 24.167 7.5 28.5 12.5s6.5 14.833 6.5 29.5v430c0 14.667 -2.16699 24.5 -6.5 29.5s-13.833 9.16699 -28.5 12.5l-37 7v21h257v-21l-37 -7c-14.667 -3.33301 -24.167 -7.5 -28.5 -12.5s-6.5 -14.833 -6.5 -29.5v-430
c0 -14.667 2.16699 -24.5 6.5 -29.5s13.833 -9.16699 28.5 -12.5zM137 681c0 -15.333 -5.16699 -28.166 -15.5 -38.499s-22.833 -15.5 -37.5 -15.5c-16 0 -29.167 5.16699 -39.5 15.5s-15.5 23.166 -15.5 38.499s5.33301 28.333 16 39s23.667 16 39 16
c14.667 0 27.167 -5.33301 37.5 -16s15.5 -23.667 15.5 -39zM299 681c0 -15.333 -5.16699 -28.166 -15.5 -38.499s-22.833 -15.5 -37.5 -15.5c-16 0 -29.167 5.16699 -39.5 15.5s-15.5 23.166 -15.5 38.499s5.33301 28.333 16 39s23.667 16 39 16
c14.667 0 27.167 -5.33301 37.5 -16s15.5 -23.667 15.5 -39z" />
    <glyph glyph-name="Eth" unicode="&#xd0;" horiz-adv-x="675" 
d="M107 274l-72 -0.000976562v30h72v196c0 14.667 -2.16699 24.5 -6.5 29.5s-13.833 9.16699 -28.5 12.5l-37 7v21h271c102 0 182.167 -25.667 240.5 -77s87.5 -120.666 87.5 -207.999c0 -84 -29.833 -152.5 -89.5 -205.5s-138.167 -79.5 -235.5 -79.5h-274v21l37 7
c14.667 3.33301 24.167 7.5 28.5 12.5s6.5 14.833 6.5 29.5v204zM506 270.999c0 86 -18.168 152.5 -54.501 199.5s-88.166 70.5 -155.499 70.5h-76v-237h134v-30h-134v-204c0 -16 2.5 -26.833 7.5 -32.5s13.833 -8.5 26.5 -8.5h55c64.667 0 113.667 20.5 147 61.5
s50 101.167 50 180.5z" />
    <glyph glyph-name="Ntilde" unicode="&#xd1;" horiz-adv-x="666" 
d="M224 21v-21h-194v21l37 7c14.667 3.33301 24.167 7.5 28.5 12.5s6.5 14.833 6.5 29.5v430c0 14.667 -2.16699 24.5 -6.5 29.5s-13.833 9.16699 -28.5 12.5l-37 7v21h166l328 -410v340c0 15.333 -2.33301 25.666 -7 30.999s-14 9 -28 11l-47 7v21h194v-21l-37 -7
c-14.667 -3.33301 -24.167 -7.5 -28.5 -12.5s-6.5 -14.833 -6.5 -29.5v-500h-57l-365 459v-389c0 -15.333 2.33301 -25.666 7 -30.999s14 -9 28 -11zM388 649c-6 0 -12.999 1.33301 -20.999 4s-20.667 8 -38 16c-15.333 8 -26.5 13.167 -33.5 15.5s-12.833 3.5 -17.5 3.5
c-8 0 -14.5 -2 -19.5 -6s-9.83301 -11 -14.5 -21l-18 -39l-18 7l20 50c9.33301 22 18.333 36.667 27 44s19.667 11 33 11c5.33301 0 12 -1.33301 20 -4s20.667 -8 38 -16c16 -8 27.5 -13.167 34.5 -15.5s12.833 -3.5 17.5 -3.5c8 0 14.5 2 19.5 6s9.83301 11 14.5 21l18 38
l18 -7l-20 -49c-8.66699 -22 -17.334 -36.667 -26.001 -44s-20 -11 -34 -11z" />
    <glyph glyph-name="Ograve" unicode="&#xd2;" horiz-adv-x="699" 
d="M658 294c0 -87.333 -30 -159.833 -90 -217.5s-132.333 -86.5 -217 -86.5c-90 0 -164.167 26.167 -222.5 78.5s-87.5 121.5 -87.5 207.5c0 86.667 30.167 159 90.5 217s132.5 87 216.5 87c90 0 164.167 -26.167 222.5 -78.5s87.5 -121.5 87.5 -207.5zM169 301
c0 -84 17.167 -152 51.5 -204s80.166 -78 137.499 -78c56 0 98.667 21.5 128 64.5s44 105.167 44 186.5c0 84 -17.167 151.833 -51.5 203.5s-80.5 77.5 -138.5 77.5c-55.333 0 -97.666 -21.5 -126.999 -64.5s-44 -104.833 -44 -185.5zM317 736l38 -111.001l-19 -8l-59 103
c-2.66699 4.66699 -4.66699 9 -6 13s-2 7.33301 -2 10c0 6 1.83301 10.833 5.5 14.5s8.5 5.5 14.5 5.5s11.333 -2.16699 16 -6.5s8.66699 -11.166 12 -20.499z" />
    <glyph glyph-name="Oacute" unicode="&#xd3;" horiz-adv-x="699" 
d="M658 294c0 -87.333 -30 -159.833 -90 -217.5s-132.333 -86.5 -217 -86.5c-90 0 -164.167 26.167 -222.5 78.5s-87.5 121.5 -87.5 207.5c0 86.667 30.167 159 90.5 217s132.5 87 216.5 87c90 0 164.167 -26.167 222.5 -78.5s87.5 -121.5 87.5 -207.5zM169 301
c0 -84 17.167 -152 51.5 -204s80.166 -78 137.499 -78c56 0 98.667 21.5 128 64.5s44 105.167 44 186.5c0 84 -17.167 151.833 -51.5 203.5s-80.5 77.5 -138.5 77.5c-55.333 0 -97.666 -21.5 -126.999 -64.5s-44 -104.833 -44 -185.5zM361 617l-19 8.00098l38 111
c3.33301 9.33301 7.33301 16.166 12 20.499s10 6.5 16 6.5s10.833 -1.83301 14.5 -5.5s5.5 -8.5 5.5 -14.5c0 -2.66699 -0.666992 -6 -2 -10s-3.33301 -8.33301 -6 -13z" />
    <glyph glyph-name="Ocircumflex" unicode="&#xd4;" horiz-adv-x="699" 
d="M658 294c0 -87.333 -30 -159.833 -90 -217.5s-132.333 -86.5 -217 -86.5c-90 0 -164.167 26.167 -222.5 78.5s-87.5 121.5 -87.5 207.5c0 86.667 30.167 159 90.5 217s132.5 87 216.5 87c90 0 164.167 -26.167 222.5 -78.5s87.5 -121.5 87.5 -207.5zM169 301
c0 -84 17.167 -152 51.5 -204s80.166 -78 137.499 -78c56 0 98.667 21.5 128 64.5s44 105.167 44 186.5c0 84 -17.167 151.833 -51.5 203.5s-80.5 77.5 -138.5 77.5c-55.333 0 -97.666 -21.5 -126.999 -64.5s-44 -104.833 -44 -185.5zM379 741l79 -112l-19 -12l-91 100h-1
l-91 -100l-19 12l79 112c6 8.66699 11.167 14.5 15.5 17.5s9.5 4.5 15.5 4.5s11.167 -1.5 15.5 -4.5s9.83301 -8.83301 16.5 -17.5z" />
    <glyph glyph-name="Otilde" unicode="&#xd5;" horiz-adv-x="699" 
d="M658 294c0 -87.333 -30 -159.833 -90 -217.5s-132.333 -86.5 -217 -86.5c-90 0 -164.167 26.167 -222.5 78.5s-87.5 121.5 -87.5 207.5c0 86.667 30.167 159 90.5 217s132.5 87 216.5 87c90 0 164.167 -26.167 222.5 -78.5s87.5 -121.5 87.5 -207.5zM169 301
c0 -84 17.167 -152 51.5 -204s80.166 -78 137.499 -78c56 0 98.667 21.5 128 64.5s44 105.167 44 186.5c0 84 -17.167 151.833 -51.5 203.5s-80.5 77.5 -138.5 77.5c-55.333 0 -97.666 -21.5 -126.999 -64.5s-44 -104.833 -44 -185.5zM403 649
c-6 0 -12.999 1.33301 -20.999 4s-20.667 8 -38 16c-15.333 8 -26.5 13.167 -33.5 15.5s-12.833 3.5 -17.5 3.5c-8 0 -14.5 -2 -19.5 -6s-9.83301 -11 -14.5 -21l-18 -39l-18 7l20 50c9.33301 22 18.333 36.667 27 44s19.667 11 33 11c5.33301 0 12 -1.33301 20 -4
s20.667 -8 38 -16c16 -8 27.5 -13.167 34.5 -15.5s12.833 -3.5 17.5 -3.5c8 0 14.5 2 19.5 6s9.83301 11 14.5 21l18 38l18 -7l-20 -49c-8.66699 -22 -17.334 -36.667 -26.001 -44s-20 -11 -34 -11z" />
    <glyph glyph-name="Odieresis" unicode="&#xd6;" horiz-adv-x="699" 
d="M658 294c0 -87.333 -30 -159.833 -90 -217.5s-132.333 -86.5 -217 -86.5c-90 0 -164.167 26.167 -222.5 78.5s-87.5 121.5 -87.5 207.5c0 86.667 30.167 159 90.5 217s132.5 87 216.5 87c90 0 164.167 -26.167 222.5 -78.5s87.5 -121.5 87.5 -207.5zM169 301
c0 -84 17.167 -152 51.5 -204s80.166 -78 137.499 -78c56 0 98.667 21.5 128 64.5s44 105.167 44 186.5c0 84 -17.167 151.833 -51.5 203.5s-80.5 77.5 -138.5 77.5c-55.333 0 -97.666 -21.5 -126.999 -64.5s-44 -104.833 -44 -185.5zM323 681
c0 -15.333 -5.16699 -28.166 -15.5 -38.499s-22.833 -15.5 -37.5 -15.5c-16 0 -29.167 5.16699 -39.5 15.5s-15.5 23.166 -15.5 38.499s5.33301 28.333 16 39s23.667 16 39 16c14.667 0 27.167 -5.33301 37.5 -16s15.5 -23.667 15.5 -39zM485 681
c0 -15.333 -5.16699 -28.166 -15.5 -38.499s-22.833 -15.5 -37.5 -15.5c-16 0 -29.167 5.16699 -39.5 15.5s-15.5 23.166 -15.5 38.499s5.33301 28.333 16 39s23.667 16 39 16c14.667 0 27.167 -5.33301 37.5 -16s15.5 -23.667 15.5 -39z" />
    <glyph glyph-name="multiply" unicode="&#xd7;" horiz-adv-x="499" 
d="M249 217l-136 -136l-23 24l135 135l-135 136l23 23l136 -135l135 135l23 -24l-135 -135l136 -135l-24 -24z" />
    <glyph glyph-name="Oslash" unicode="&#xd8;" horiz-adv-x="699" 
d="M133 64l-70 -64l-22 26l68 62c-22.667 25.333 -39.667 53.833 -51 85.5s-17 65.834 -17 102.501c0 86.667 30.167 159 90.5 217s132.5 87 216.5 87c42.667 0 82.667 -6.33301 120 -19s70 -31 98 -55l70 64l22 -26l-68 -62c22.667 -25.333 39.667 -53.833 51 -85.5
s17 -65.834 17 -102.501c0 -87.333 -30 -159.833 -90 -217.5s-132.333 -86.5 -217 -86.5c-42.667 0 -82.667 6.33301 -120 19s-70 31 -98 55zM340 551c-55.333 0 -97.667 -21.501 -127 -64.501s-44 -104.833 -44 -185.5c0 -25.333 1.83301 -49.666 5.5 -72.999
s8.83398 -45.333 15.501 -66l306 280c-16.667 35.333 -38.334 62.333 -65.001 81s-57 28 -91 28zM357.999 18.999c56 0 98.667 21.501 128 64.501s44 105.167 44 186.5c0 25.333 -1.66699 49.666 -5 72.999s-8.33301 45 -15 65l-307 -280c16 -35.333 37.333 -62.333 64 -81
s57 -28 91 -28z" />
    <glyph glyph-name="Ugrave" unicode="&#xd9;" horiz-adv-x="657" 
d="M339 -10c-74.667 0 -132.001 18.335 -172.001 55.002s-60 89.667 -60 159v296c0 14.667 -2.16699 24.5 -6.5 29.5s-13.833 9.16699 -28.5 12.5l-37 7v21h257v-21l-37 -7c-14.667 -3.33301 -24.167 -7.5 -28.5 -12.5s-6.5 -14.833 -6.5 -29.5v-293
c0 -59.333 11.333 -103 34 -131s58.334 -42 107.001 -42c48 0 84.833 16 110.5 48s38.5 78.333 38.5 139v279c0 15.333 -2.33301 25.666 -7 30.999s-14 9 -28 11l-47 7v21h194v-21l-37 -7c-14.667 -3.33301 -24.167 -7.5 -28.5 -12.5s-6.5 -14.833 -6.5 -29.5v-279
c0 -74.667 -18.167 -131.834 -54.5 -171.501s-88.5 -59.5 -156.5 -59.5zM334.999 736.002l38 -111.001l-19 -8l-59 103c-2.66699 4.66699 -4.66699 9 -6 13s-2 7.33301 -2 10c0 6 1.83301 10.833 5.5 14.5s8.5 5.5 14.5 5.5s11.333 -2.16699 16 -6.5
s8.66699 -11.166 12 -20.499z" />
    <glyph glyph-name="Uacute" unicode="&#xda;" horiz-adv-x="657" 
d="M339 -10c-74.667 0 -132.001 18.335 -172.001 55.002s-60 89.667 -60 159v296c0 14.667 -2.16699 24.5 -6.5 29.5s-13.833 9.16699 -28.5 12.5l-37 7v21h257v-21l-37 -7c-14.667 -3.33301 -24.167 -7.5 -28.5 -12.5s-6.5 -14.833 -6.5 -29.5v-293
c0 -59.333 11.333 -103 34 -131s58.334 -42 107.001 -42c48 0 84.833 16 110.5 48s38.5 78.333 38.5 139v279c0 15.333 -2.33301 25.666 -7 30.999s-14 9 -28 11l-47 7v21h194v-21l-37 -7c-14.667 -3.33301 -24.167 -7.5 -28.5 -12.5s-6.5 -14.833 -6.5 -29.5v-279
c0 -74.667 -18.167 -131.834 -54.5 -171.501s-88.5 -59.5 -156.5 -59.5zM378.999 617.002l-19 8.00098l38 111c3.33301 9.33301 7.33301 16.166 12 20.499s10 6.5 16 6.5s10.833 -1.83301 14.5 -5.5s5.5 -8.5 5.5 -14.5c0 -2.66699 -0.666992 -6 -2 -10
s-3.33301 -8.33301 -6 -13z" />
    <glyph glyph-name="Ucircumflex" unicode="&#xdb;" horiz-adv-x="657" 
d="M339 -10c-74.667 0 -132.001 18.335 -172.001 55.002s-60 89.667 -60 159v296c0 14.667 -2.16699 24.5 -6.5 29.5s-13.833 9.16699 -28.5 12.5l-37 7v21h257v-21l-37 -7c-14.667 -3.33301 -24.167 -7.5 -28.5 -12.5s-6.5 -14.833 -6.5 -29.5v-293
c0 -59.333 11.333 -103 34 -131s58.334 -42 107.001 -42c48 0 84.833 16 110.5 48s38.5 78.333 38.5 139v279c0 15.333 -2.33301 25.666 -7 30.999s-14 9 -28 11l-47 7v21h194v-21l-37 -7c-14.667 -3.33301 -24.167 -7.5 -28.5 -12.5s-6.5 -14.833 -6.5 -29.5v-279
c0 -74.667 -18.167 -131.834 -54.5 -171.501s-88.5 -59.5 -156.5 -59.5zM396.999 741.002l79 -112l-19 -12l-91 100h-1l-91 -100l-19 12l79 112c6 8.66699 11.167 14.5 15.5 17.5s9.5 4.5 15.5 4.5s11.167 -1.5 15.5 -4.5s9.83301 -8.83301 16.5 -17.5z" />
    <glyph glyph-name="Udieresis" unicode="&#xdc;" horiz-adv-x="657" 
d="M339 -10c-74.667 0 -132.001 18.335 -172.001 55.002s-60 89.667 -60 159v296c0 14.667 -2.16699 24.5 -6.5 29.5s-13.833 9.16699 -28.5 12.5l-37 7v21h257v-21l-37 -7c-14.667 -3.33301 -24.167 -7.5 -28.5 -12.5s-6.5 -14.833 -6.5 -29.5v-293
c0 -59.333 11.333 -103 34 -131s58.334 -42 107.001 -42c48 0 84.833 16 110.5 48s38.5 78.333 38.5 139v279c0 15.333 -2.33301 25.666 -7 30.999s-14 9 -28 11l-47 7v21h194v-21l-37 -7c-14.667 -3.33301 -24.167 -7.5 -28.5 -12.5s-6.5 -14.833 -6.5 -29.5v-279
c0 -74.667 -18.167 -131.834 -54.5 -171.501s-88.5 -59.5 -156.5 -59.5zM340.999 681.002c0 -15.333 -5.16699 -28.166 -15.5 -38.499s-22.833 -15.5 -37.5 -15.5c-16 0 -29.167 5.16699 -39.5 15.5s-15.5 23.166 -15.5 38.499s5.33301 28.333 16 39s23.667 16 39 16
c14.667 0 27.167 -5.33301 37.5 -16s15.5 -23.667 15.5 -39zM502.999 681.002c0 -15.333 -5.16699 -28.166 -15.5 -38.499s-22.833 -15.5 -37.5 -15.5c-16 0 -29.167 5.16699 -39.5 15.5s-15.5 23.166 -15.5 38.499s5.33301 28.333 16 39s23.667 16 39 16
c14.667 0 27.167 -5.33301 37.5 -16s15.5 -23.667 15.5 -39z" />
    <glyph glyph-name="Yacute" unicode="&#xdd;" horiz-adv-x="568" 
d="M412 21v-21h-257v21l37 7c14.667 3.33301 24.167 7.5 28.5 12.5s6.5 14.833 6.5 29.5v169l-161 274c-7.33301 12.667 -13 20.5 -17 23.5s-9.66699 5.16699 -17 6.5l-30 6v21h265v-22l-50 -9c-10.667 -2 -17.5 -5 -20.5 -9s-2.83301 -9.33301 0.5 -16l134 -239l131 231
c6 10 7.33301 17.833 4 23.5s-11 9.83398 -23 12.501l-37 7v21h160v-21l-18 -5c-9.33301 -2.66699 -16.5 -6.33398 -21.5 -11.001s-11.833 -14 -20.5 -28l-166 -268v-167c0 -14.667 2.16699 -24.5 6.5 -29.5s13.833 -9.16699 28.5 -12.5zM346 617l-19 8.00098l38 111
c3.33301 9.33301 7.33301 16.166 12 20.499s10 6.5 16 6.5s10.833 -1.83301 14.5 -5.5s5.5 -8.5 5.5 -14.5c0 -2.66699 -0.666992 -6 -2 -10s-3.33301 -8.33301 -6 -13z" />
    <glyph glyph-name="Thorn" unicode="&#xde;" horiz-adv-x="530" 
d="M268 136l-13.9971 -0.00390625v21l17 2c37.333 4 66.166 19 86.499 45s30.5 60.333 30.5 103c0 46.667 -10.833 82.334 -32.5 107.001s-52.834 37 -93.501 37h-42v-381c0 -13.333 1.66699 -22.166 5 -26.499s13.333 -8.16602 30 -11.499l57 -11v-21h-277v21l37 7
c14.667 3.33301 24.167 7.5 28.5 12.5s6.5 14.833 6.5 29.5v430c0 14.667 -2.16699 24.5 -6.5 29.5s-13.833 9.16699 -28.5 12.5l-37 7v21h257v-21l-37 -7c-14.667 -3.33301 -24.167 -7.5 -28.5 -12.5s-6.5 -14.833 -6.5 -29.5v-20h74c66 0 118.167 -14.5 156.5 -43.5
s57.5 -69.167 57.5 -120.5c0 -55.333 -21.333 -99.166 -64 -131.499s-101.334 -48.5 -176.001 -48.5z" />
    <glyph glyph-name="germandbls" unicode="&#xdf;" horiz-adv-x="533" 
d="M410 243c42 -26 69.6641 -48.8311 82.9971 -68.498s20 -42.5 20 -68.5c0 -34.667 -14.667 -62.667 -44 -84s-66.333 -32 -111 -32c-19.333 0 -38.333 1.83301 -57 5.5s-36.334 8.83398 -53.001 15.501l-15 111h18c19.333 -40 37.333 -67.833 54 -83.5
s36.334 -23.5 59.001 -23.5c17.333 0 31 4.83301 41 14.5s15 23.167 15 40.5c0 12.667 -4.16699 24.5 -12.5 35.5s-26.833 25.5 -55.5 43.5c-44 28 -73.167 54 -87.5 78s-21.5 51.667 -21.5 83c0 20 5.5 41 16.5 63s28.167 46.333 51.5 73
c18.667 21.333 31.834 41.166 39.501 59.499s11.5 37.833 11.5 58.5c0 26.667 -7.83301 48 -23.5 64s-36.5 24 -62.5 24c-37.333 0 -63.666 -10.833 -78.999 -32.5s-23 -58.167 -23 -109.5v-510h-156v17l27 7c10 2.66699 16.5 6.16699 19.5 10.5s4.5 12.166 4.5 23.499v247
h-54v17l54 36v39c0 93.333 19.667 163.833 59 211.5s97.333 71.5 174 71.5c45.333 0 81.333 -9.16699 108 -27.5s40 -42.5 40 -72.5c0 -15.333 -4.66699 -30.833 -14 -46.5s-30.333 -38.5 -63 -68.5c-19.333 -18 -33.5 -35.667 -42.5 -53s-13.5 -35 -13.5 -53
c0 -20.667 5.83301 -39.334 17.5 -56.001s36.834 -36.667 75.501 -60z" />
    <glyph glyph-name="agrave" unicode="&#xe0;" horiz-adv-x="389" 
d="M222 41c-23.333 -16.667 -44.8369 -29.335 -64.5039 -38.002s-36.167 -13 -49.5 -13c-25.333 0 -45.666 6.83301 -60.999 20.5s-23 32.5 -23 56.5c0 20 6.83301 36.667 20.5 50s36.167 25.333 67.5 36l109 38v59c0 22 -6.83301 39.667 -20.5 53s-31.5 20 -53.5 20
c-8.66699 0 -16.167 -0.833008 -22.5 -2.5s-11.833 -4.16699 -16.5 -7.5c-6 -4 -10.333 -9 -13 -15s-4 -13 -4 -21c0 -2.66699 0.833008 -8 2.5 -16l6.5 -32c-6.66699 -3.33301 -15 -6.16602 -25 -8.49902s-17.667 -3.5 -23 -3.5c-8 0 -14.667 2.83301 -20 8.5
s-8 13.167 -8 22.5c0 24.667 21.167 51.5 63.5 80.5s82.833 43.5 121.5 43.5c30.667 0 57.834 -9.16699 81.501 -27.5s35.5 -40.5 35.5 -66.5v-188c0 -12.667 2.33301 -22.334 7 -29.001s11.334 -10 20.001 -10c3.33301 0 6.83301 0.333008 10.5 1s9.83398 2.66699 18.501 6
l6 -14c-24 -17.333 -45.167 -30.666 -63.5 -39.999s-32.833 -14 -43.5 -14c-16 0 -29 4.33301 -39 13s-16.667 21.334 -20 38.001zM127.996 95.999c0 -14.667 4.16699 -26 12.5 -34s20.5 -12 36.5 -12c8.66699 0 16.5 0.666992 23.5 2s13.833 3.66602 20.5 6.99902v112
l-43 -18c-18.667 -8 -31.667 -16.167 -39 -24.5s-11 -19.166 -11 -32.499zM141.996 581.999l60 -160l-18 -8l-84 154c-3.33301 6 -5.5 10.833 -6.5 14.5s-1.5 7.5 -1.5 11.5c0 5.33301 2 9.83301 6 13.5s9 5.5 15 5.5s11.333 -2.5 16 -7.5s9 -12.833 13 -23.5z" />
    <glyph glyph-name="aacute" unicode="&#xe1;" horiz-adv-x="389" 
d="M222 41c-23.333 -16.667 -44.8369 -29.335 -64.5039 -38.002s-36.167 -13 -49.5 -13c-25.333 0 -45.666 6.83301 -60.999 20.5s-23 32.5 -23 56.5c0 20 6.83301 36.667 20.5 50s36.167 25.333 67.5 36l109 38v59c0 22 -6.83301 39.667 -20.5 53s-31.5 20 -53.5 20
c-8.66699 0 -16.167 -0.833008 -22.5 -2.5s-11.833 -4.16699 -16.5 -7.5c-6 -4 -10.333 -9 -13 -15s-4 -13 -4 -21c0 -2.66699 0.833008 -8 2.5 -16l6.5 -32c-6.66699 -3.33301 -15 -6.16602 -25 -8.49902s-17.667 -3.5 -23 -3.5c-8 0 -14.667 2.83301 -20 8.5
s-8 13.167 -8 22.5c0 24.667 21.167 51.5 63.5 80.5s82.833 43.5 121.5 43.5c30.667 0 57.834 -9.16699 81.501 -27.5s35.5 -40.5 35.5 -66.5v-188c0 -12.667 2.33301 -22.334 7 -29.001s11.334 -10 20.001 -10c3.33301 0 6.83301 0.333008 10.5 1s9.83398 2.66699 18.501 6
l6 -14c-24 -17.333 -45.167 -30.666 -63.5 -39.999s-32.833 -14 -43.5 -14c-16 0 -29 4.33301 -39 13s-16.667 21.334 -20 38.001zM127.996 95.999c0 -14.667 4.16699 -26 12.5 -34s20.5 -12 36.5 -12c8.66699 0 16.5 0.666992 23.5 2s13.833 3.66602 20.5 6.99902v112
l-43 -18c-18.667 -8 -31.667 -16.167 -39 -24.5s-11 -19.166 -11 -32.499zM204.996 413.999l-18 8l60 160c4 10.667 8.33301 18.5 13 23.5s10 7.5 16 7.5s11 -1.83301 15 -5.5s6 -8.16699 6 -13.5c0 -4 -0.5 -7.83301 -1.5 -11.5s-3.16699 -8.5 -6.5 -14.5z" />
    <glyph glyph-name="acircumflex" unicode="&#xe2;" horiz-adv-x="389" 
d="M222 41c-23.333 -16.667 -44.8369 -29.335 -64.5039 -38.002s-36.167 -13 -49.5 -13c-25.333 0 -45.666 6.83301 -60.999 20.5s-23 32.5 -23 56.5c0 20 6.83301 36.667 20.5 50s36.167 25.333 67.5 36l109 38v59c0 22 -6.83301 39.667 -20.5 53s-31.5 20 -53.5 20
c-8.66699 0 -16.167 -0.833008 -22.5 -2.5s-11.833 -4.16699 -16.5 -7.5c-6 -4 -10.333 -9 -13 -15s-4 -13 -4 -21c0 -2.66699 0.833008 -8 2.5 -16l6.5 -32c-6.66699 -3.33301 -15 -6.16602 -25 -8.49902s-17.667 -3.5 -23 -3.5c-8 0 -14.667 2.83301 -20 8.5
s-8 13.167 -8 22.5c0 24.667 21.167 51.5 63.5 80.5s82.833 43.5 121.5 43.5c30.667 0 57.834 -9.16699 81.501 -27.5s35.5 -40.5 35.5 -66.5v-188c0 -12.667 2.33301 -22.334 7 -29.001s11.334 -10 20.001 -10c3.33301 0 6.83301 0.333008 10.5 1s9.83398 2.66699 18.501 6
l6 -14c-24 -17.333 -45.167 -30.666 -63.5 -39.999s-32.833 -14 -43.5 -14c-16 0 -29 4.33301 -39 13s-16.667 21.334 -20 38.001zM127.996 95.999c0 -14.667 4.16699 -26 12.5 -34s20.5 -12 36.5 -12c8.66699 0 16.5 0.666992 23.5 2s13.833 3.66602 20.5 6.99902v112
l-43 -18c-18.667 -8 -31.667 -16.167 -39 -24.5s-11 -19.166 -11 -32.499zM220.996 591.999l90 -167l-19 -10l-98 147h-3l-98 -147l-19 10l90 167c4 8 8.16699 13.5 12.5 16.5s9.83301 4.5 16.5 4.5c6 0 11.167 -1.5 15.5 -4.5s8.5 -8.5 12.5 -16.5z" />
    <glyph glyph-name="atilde" unicode="&#xe3;" horiz-adv-x="389" 
d="M222 41c-23.333 -16.667 -44.8369 -29.335 -64.5039 -38.002s-36.167 -13 -49.5 -13c-25.333 0 -45.666 6.83301 -60.999 20.5s-23 32.5 -23 56.5c0 20 6.83301 36.667 20.5 50s36.167 25.333 67.5 36l109 38v59c0 22 -6.83301 39.667 -20.5 53s-31.5 20 -53.5 20
c-8.66699 0 -16.167 -0.833008 -22.5 -2.5s-11.833 -4.16699 -16.5 -7.5c-6 -4 -10.333 -9 -13 -15s-4 -13 -4 -21c0 -2.66699 0.833008 -8 2.5 -16l6.5 -32c-6.66699 -3.33301 -15 -6.16602 -25 -8.49902s-17.667 -3.5 -23 -3.5c-8 0 -14.667 2.83301 -20 8.5
s-8 13.167 -8 22.5c0 24.667 21.167 51.5 63.5 80.5s82.833 43.5 121.5 43.5c30.667 0 57.834 -9.16699 81.501 -27.5s35.5 -40.5 35.5 -66.5v-188c0 -12.667 2.33301 -22.334 7 -29.001s11.334 -10 20.001 -10c3.33301 0 6.83301 0.333008 10.5 1s9.83398 2.66699 18.501 6
l6 -14c-24 -17.333 -45.167 -30.666 -63.5 -39.999s-32.833 -14 -43.5 -14c-16 0 -29 4.33301 -39 13s-16.667 21.334 -20 38.001zM127.996 95.999c0 -14.667 4.16699 -26 12.5 -34s20.5 -12 36.5 -12c8.66699 0 16.5 0.666992 23.5 2s13.833 3.66602 20.5 6.99902v112
l-43 -18c-18.667 -8 -31.667 -16.167 -39 -24.5s-11 -19.166 -11 -32.499zM261.996 478.999c-6.66699 0 -14.5 1 -23.5 3s-23.5 6.33301 -43.5 13c-18 6 -31 9.83301 -39 11.5s-14.667 2.5 -20 2.5c-9.33301 0 -16.5 -1.83301 -21.5 -5.5s-9.83301 -10.5 -14.5 -20.5
l-22 -48l-18 5l25 61c9.33301 23.333 17.666 38.333 24.999 45s17 10 29 10c6.66699 0 14.5 -1 23.5 -3s23.5 -6.33301 43.5 -13c18 -6 31 -9.83301 39 -11.5s14.667 -2.5 20 -2.5c8.66699 0 15.5 1.66699 20.5 5s10.167 10.333 15.5 21l22 47l17 -6l-24 -59
c-9.33301 -23.333 -17.666 -38.333 -24.999 -45s-17 -10 -29 -10z" />
    <glyph glyph-name="adieresis" unicode="&#xe4;" horiz-adv-x="389" 
d="M222 41c-23.333 -16.667 -44.8369 -29.335 -64.5039 -38.002s-36.167 -13 -49.5 -13c-25.333 0 -45.666 6.83301 -60.999 20.5s-23 32.5 -23 56.5c0 20 6.83301 36.667 20.5 50s36.167 25.333 67.5 36l109 38v59c0 22 -6.83301 39.667 -20.5 53s-31.5 20 -53.5 20
c-8.66699 0 -16.167 -0.833008 -22.5 -2.5s-11.833 -4.16699 -16.5 -7.5c-6 -4 -10.333 -9 -13 -15s-4 -13 -4 -21c0 -2.66699 0.833008 -8 2.5 -16l6.5 -32c-6.66699 -3.33301 -15 -6.16602 -25 -8.49902s-17.667 -3.5 -23 -3.5c-8 0 -14.667 2.83301 -20 8.5
s-8 13.167 -8 22.5c0 24.667 21.167 51.5 63.5 80.5s82.833 43.5 121.5 43.5c30.667 0 57.834 -9.16699 81.501 -27.5s35.5 -40.5 35.5 -66.5v-188c0 -12.667 2.33301 -22.334 7 -29.001s11.334 -10 20.001 -10c3.33301 0 6.83301 0.333008 10.5 1s9.83398 2.66699 18.501 6
l6 -14c-24 -17.333 -45.167 -30.666 -63.5 -39.999s-32.833 -14 -43.5 -14c-16 0 -29 4.33301 -39 13s-16.667 21.334 -20 38.001zM127.996 95.999c0 -14.667 4.16699 -26 12.5 -34s20.5 -12 36.5 -12c8.66699 0 16.5 0.666992 23.5 2s13.833 3.66602 20.5 6.99902v112
l-43 -18c-18.667 -8 -31.667 -16.167 -39 -24.5s-11 -19.166 -11 -32.499zM167.996 529.999c0 -15.333 -5.16699 -28.166 -15.5 -38.499s-22.833 -15.5 -37.5 -15.5c-16 0 -29.167 5.16699 -39.5 15.5s-15.5 23.166 -15.5 38.499s5.33301 28.333 16 39s23.667 16 39 16
c14.667 0 27.167 -5.33301 37.5 -16s15.5 -23.667 15.5 -39zM328.996 529.999c0 -15.333 -5.16699 -28.166 -15.5 -38.499s-22.833 -15.5 -37.5 -15.5c-16 0 -29.167 5.16699 -39.5 15.5s-15.5 23.166 -15.5 38.499s5.33301 28.333 16 39s23.667 16 39 16
c14.667 0 27.167 -5.33301 37.5 -16s15.5 -23.667 15.5 -39z" />
    <glyph glyph-name="aring" unicode="&#xe5;" horiz-adv-x="389" 
d="M222 41c-23.333 -16.667 -44.8369 -29.335 -64.5039 -38.002s-36.167 -13 -49.5 -13c-25.333 0 -45.666 6.83301 -60.999 20.5s-23 32.5 -23 56.5c0 20 6.83301 36.667 20.5 50s36.167 25.333 67.5 36l109 38v59c0 22 -6.83301 39.667 -20.5 53s-31.5 20 -53.5 20
c-8.66699 0 -16.167 -0.833008 -22.5 -2.5s-11.833 -4.16699 -16.5 -7.5c-6 -4 -10.333 -9 -13 -15s-4 -13 -4 -21c0 -2.66699 0.833008 -8 2.5 -16l6.5 -32c-6.66699 -3.33301 -15 -6.16602 -25 -8.49902s-17.667 -3.5 -23 -3.5c-8 0 -14.667 2.83301 -20 8.5
s-8 13.167 -8 22.5c0 24.667 21.167 51.5 63.5 80.5s82.833 43.5 121.5 43.5c30.667 0 57.834 -9.16699 81.501 -27.5s35.5 -40.5 35.5 -66.5v-188c0 -12.667 2.33301 -22.334 7 -29.001s11.334 -10 20.001 -10c3.33301 0 6.83301 0.333008 10.5 1s9.83398 2.66699 18.501 6
l6 -14c-24 -17.333 -45.167 -30.666 -63.5 -39.999s-32.833 -14 -43.5 -14c-16 0 -29 4.33301 -39 13s-16.667 21.334 -20 38.001zM127.996 95.999c0 -14.667 4.16699 -26 12.5 -34s20.5 -12 36.5 -12c8.66699 0 16.5 0.666992 23.5 2s13.833 3.66602 20.5 6.99902v112
l-43 -18c-18.667 -8 -31.667 -16.167 -39 -24.5s-11 -19.166 -11 -32.499zM196.996 595.999c28.667 0 51.668 -7.5 69.001 -22.5s26 -34.5 26 -58.5c0 -26 -9 -47.167 -27 -63.5s-41.333 -24.5 -70 -24.5s-51.834 7.5 -69.501 22.5s-26.5 34.5 -26.5 58.5
c0 26 9 47.167 27 63.5s41.667 24.5 71 24.5zM197.997 445.999c16.667 0 30 5.83301 40 17.5s15 27.5 15 47.5s-5.5 36.167 -16.5 48.5s-25.5 18.5 -43.5 18.5c-16.667 0 -30.167 -6 -40.5 -18s-15.5 -28 -15.5 -48s5.5 -36 16.5 -48s25.833 -18 44.5 -18z" />
    <glyph glyph-name="ae" unicode="&#xe6;" horiz-adv-x="578" 
d="M255 61c-23.333 -20.667 -49 -37.668 -77 -51.001s-51.333 -20 -70 -20c-25.333 0 -45.666 6.83301 -60.999 20.5s-23 32.5 -23 56.5c0 20 6.83301 36.667 20.5 50s36.167 25.333 67.5 36l109 38v59c0 22 -6.83301 39.667 -20.5 53s-31.5 20 -53.5 20
c-8.66699 0 -16.167 -0.833008 -22.5 -2.5s-11.833 -4.16699 -16.5 -7.5c-6 -4 -10.333 -9 -13 -15s-4 -13 -4 -21c0 -2.66699 0.833008 -8 2.5 -16l6.5 -32c-6.66699 -3.33301 -15 -6.16602 -25 -8.49902s-17.667 -3.5 -23 -3.5c-8 0 -14.667 2.83301 -20 8.5
s-8 13.167 -8 22.5c0 24.667 21.167 51.5 63.5 80.5s82.833 43.5 121.5 43.5c18.667 0 36 -3.66699 52 -11s29.333 -18 40 -32c14.667 12.667 32.5 23 53.5 31s41.167 12 60.5 12c43.333 0 78 -11.333 104 -34s40 -53.667 42 -93l-4 -10h-229v-9
c0 -52 11.5 -91.667 34.5 -119s56.167 -41 99.5 -41c16 0 31.833 1.66699 47.5 5s30.5 8.33301 44.5 15l9 -13c-18.667 -22.667 -43.834 -42.167 -75.501 -58.5s-58.5 -24.5 -80.5 -24.5c-32.667 0 -62 6.16699 -88 18.5s-47.333 29.833 -64 52.5zM467 273.999
c0 20 -5.99902 37 -17.999 51s-26.667 21 -44 21c-20.667 0 -37.334 -7.5 -50.001 -22.5s-21 -36.5 -25 -64.5h122c6 0 10 1 12 3s3 6 3 12zM128.001 95.999c0 -14.667 4.16699 -26 12.5 -34s20.5 -12 36.5 -12c11.333 0 23 2.16699 35 6.5s23.333 10.5 34 18.5
c-8 13.333 -14 28.166 -18 44.499s-6.33301 33.5 -7 51.5l-43 -18c-18.667 -8 -31.667 -16.167 -39 -24.5s-11 -19.166 -11 -32.499z" />
    <glyph glyph-name="ccedilla" unicode="&#xe7;" horiz-adv-x="359" 
d="M298 -142c0 -26 -11.4971 -46.666 -34.4971 -61.999s-52.833 -23 -89.5 -23c-16.667 0 -29.334 2.33301 -38.001 7s-13 11.334 -13 20.001c0 4.66699 1.83301 9.5 5.5 14.5s9.16699 10.5 16.5 16.5c10 -11.333 20 -19.666 30 -24.999s21.333 -8 34 -8
c14 0 25.5 3.66699 34.5 11s13.5 16.666 13.5 27.999c0 7.33301 -2.16699 14.5 -6.5 21.5s-13.5 16.167 -27.5 27.5c-14.667 11.333 -24.167 20.5 -28.5 27.5s-6.5 14.5 -6.5 22.5c0 7.33301 5.33301 16.666 16 27.999s26 24 46 38c-8 -4 -16.5 -7 -25.5 -9
s-17.5 -3 -25.5 -3c-50.667 0 -92.334 17.167 -125.001 51.5s-49 78.833 -49 133.5c0 59.333 19.833 107 59.5 143s89.5 54 149.5 54c30 0 56.333 -4.66699 79 -14s34 -20.333 34 -33c0 -5.33301 -3.16699 -12.833 -9.5 -22.5s-14.833 -20.5 -25.5 -32.5h-7
c-30 36 -49.333 57.167 -58 63.5s-18.667 9.5 -30 9.5c-25.333 0 -45.333 -11.333 -60 -34s-22 -52.667 -22 -90c0 -46.667 11.667 -83.834 35 -111.501s54.666 -41.5 93.999 -41.5c16 0 30.5 1.5 43.5 4.5s26.5 8.16699 40.5 15.5l9 -13c-6 -8 -13.167 -16.333 -21.5 -25
s-18.166 -17.667 -29.499 -27c-37.333 -32 -58.333 -51 -63 -57s-7 -11.333 -7 -16c0 -3.33301 1.33301 -7 4 -11s9 -9.66699 19 -17c15.333 -12.667 25.666 -23.5 30.999 -32.5s8 -18.833 8 -29.5z" />
    <glyph glyph-name="egrave" unicode="&#xe8;" horiz-adv-x="382" 
d="M211 -10c-56 0 -100.999 17 -134.999 51s-51 79.667 -51 137c0 58.667 18.333 105.667 55 141s83 53 139 53c43.333 0 78 -11.333 104 -34s40 -53.667 42 -93l-4 -10h-229v-9c0 -52 11.5 -91.667 34.5 -119s56.167 -41 99.5 -41c16 0 31.833 1.66699 47.5 5
s30.5 8.33301 44.5 15l9 -13c-18.667 -22.667 -43.834 -42.167 -75.501 -58.5s-58.5 -24.5 -80.5 -24.5zM271.001 274c0 20 -5.99902 37 -17.999 51s-26.667 21 -44 21c-20.667 0 -37.334 -7.5 -50.001 -22.5s-21 -36.5 -25 -64.5h122c6 0 10 1 12 3s3 6 3 12zM182.002 582
l60 -160l-18 -8l-84 154c-3.33301 6 -5.5 10.833 -6.5 14.5s-1.5 7.5 -1.5 11.5c0 5.33301 2 9.83301 6 13.5s9 5.5 15 5.5s11.333 -2.5 16 -7.5s9 -12.833 13 -23.5z" />
    <glyph glyph-name="eacute" unicode="&#xe9;" horiz-adv-x="382" 
d="M211 -10c-56 0 -100.999 17 -134.999 51s-51 79.667 -51 137c0 58.667 18.333 105.667 55 141s83 53 139 53c43.333 0 78 -11.333 104 -34s40 -53.667 42 -93l-4 -10h-229v-9c0 -52 11.5 -91.667 34.5 -119s56.167 -41 99.5 -41c16 0 31.833 1.66699 47.5 5
s30.5 8.33301 44.5 15l9 -13c-18.667 -22.667 -43.834 -42.167 -75.501 -58.5s-58.5 -24.5 -80.5 -24.5zM271.001 274c0 20 -5.99902 37 -17.999 51s-26.667 21 -44 21c-20.667 0 -37.334 -7.5 -50.001 -22.5s-21 -36.5 -25 -64.5h122c6 0 10 1 12 3s3 6 3 12zM245.002 414
l-18 8l60 160c4 10.667 8.33301 18.5 13 23.5s10 7.5 16 7.5s11 -1.83301 15 -5.5s6 -8.16699 6 -13.5c0 -4 -0.5 -7.83301 -1.5 -11.5s-3.16699 -8.5 -6.5 -14.5z" />
    <glyph glyph-name="ecircumflex" unicode="&#xea;" horiz-adv-x="382" 
d="M211 -10c-56 0 -100.999 17 -134.999 51s-51 79.667 -51 137c0 58.667 18.333 105.667 55 141s83 53 139 53c43.333 0 78 -11.333 104 -34s40 -53.667 42 -93l-4 -10h-229v-9c0 -52 11.5 -91.667 34.5 -119s56.167 -41 99.5 -41c16 0 31.833 1.66699 47.5 5
s30.5 8.33301 44.5 15l9 -13c-18.667 -22.667 -43.834 -42.167 -75.501 -58.5s-58.5 -24.5 -80.5 -24.5zM271.001 274c0 20 -5.99902 37 -17.999 51s-26.667 21 -44 21c-20.667 0 -37.334 -7.5 -50.001 -22.5s-21 -36.5 -25 -64.5h122c6 0 10 1 12 3s3 6 3 12zM261.002 592
l90 -167l-19 -10l-98 147h-3l-98 -147l-19 10l90 167c4 8 8.16699 13.5 12.5 16.5s9.83301 4.5 16.5 4.5c6 0 11.167 -1.5 15.5 -4.5s8.5 -8.5 12.5 -16.5z" />
    <glyph glyph-name="edieresis" unicode="&#xeb;" horiz-adv-x="382" 
d="M211 -10c-56 0 -100.999 17 -134.999 51s-51 79.667 -51 137c0 58.667 18.333 105.667 55 141s83 53 139 53c43.333 0 78 -11.333 104 -34s40 -53.667 42 -93l-4 -10h-229v-9c0 -52 11.5 -91.667 34.5 -119s56.167 -41 99.5 -41c16 0 31.833 1.66699 47.5 5
s30.5 8.33301 44.5 15l9 -13c-18.667 -22.667 -43.834 -42.167 -75.501 -58.5s-58.5 -24.5 -80.5 -24.5zM271.001 274c0 20 -5.99902 37 -17.999 51s-26.667 21 -44 21c-20.667 0 -37.334 -7.5 -50.001 -22.5s-21 -36.5 -25 -64.5h122c6 0 10 1 12 3s3 6 3 12zM177.002 530
c0 -15.333 -5.16699 -28.166 -15.5 -38.499s-22.833 -15.5 -37.5 -15.5c-16 0 -29.167 5.16699 -39.5 15.5s-15.5 23.166 -15.5 38.499s5.33301 28.333 16 39s23.667 16 39 16c14.667 0 27.167 -5.33301 37.5 -16s15.5 -23.667 15.5 -39zM338.002 530
c0 -15.333 -5.16699 -28.166 -15.5 -38.499s-22.833 -15.5 -37.5 -15.5c-16 0 -29.167 5.16699 -39.5 15.5s-15.5 23.166 -15.5 38.499s5.33301 28.333 16 39s23.667 16 39 16c14.667 0 27.167 -5.33301 37.5 -16s15.5 -23.667 15.5 -39z" />
    <glyph glyph-name="igrave" unicode="&#xec;" horiz-adv-x="234" 
d="M223 17l-0.000976562 -17h-208v17l27 7c10 2.66699 16.5 6.16699 19.5 10.5s4.5 12.166 4.5 23.499v208c0 10 -1.16699 17.167 -3.5 21.5s-8.16602 8.83301 -17.499 13.5l-18 10v14l138 47l11 -7c-2 -12 -3.33301 -23.833 -4 -35.5s-1 -29.167 -1 -52.5v-219
c0 -11.333 1.5 -19.166 4.5 -23.499s9.5 -7.83301 19.5 -10.5zM61.999 582l60 -160l-18 -8l-84 154c-3.33301 6 -5.5 10.833 -6.5 14.5s-1.5 7.5 -1.5 11.5c0 5.33301 2 9.83301 6 13.5s9 5.5 15 5.5s11.333 -2.5 16 -7.5s9 -12.833 13 -23.5z" />
    <glyph glyph-name="iacute" unicode="&#xed;" horiz-adv-x="234" 
d="M223 17l-0.000976562 -17h-208v17l27 7c10 2.66699 16.5 6.16699 19.5 10.5s4.5 12.166 4.5 23.499v208c0 10 -1.16699 17.167 -3.5 21.5s-8.16602 8.83301 -17.499 13.5l-18 10v14l138 47l11 -7c-2 -12 -3.33301 -23.833 -4 -35.5s-1 -29.167 -1 -52.5v-219
c0 -11.333 1.5 -19.166 4.5 -23.499s9.5 -7.83301 19.5 -10.5zM141.999 414l-18 8l60 160c4 10.667 8.33301 18.5 13 23.5s10 7.5 16 7.5s11 -1.83301 15 -5.5s6 -8.16699 6 -13.5c0 -4 -0.5 -7.83301 -1.5 -11.5s-3.16699 -8.5 -6.5 -14.5z" />
    <glyph glyph-name="icircumflex" unicode="&#xee;" horiz-adv-x="234" 
d="M223 17l-0.000976562 -17h-208v17l27 7c10 2.66699 16.5 6.16699 19.5 10.5s4.5 12.166 4.5 23.499v208c0 10 -1.16699 17.167 -3.5 21.5s-8.16602 8.83301 -17.499 13.5l-18 10v14l138 47l11 -7c-2 -12 -3.33301 -23.833 -4 -35.5s-1 -29.167 -1 -52.5v-219
c0 -11.333 1.5 -19.166 4.5 -23.499s9.5 -7.83301 19.5 -10.5zM169.999 592l90 -167l-19 -10l-98 147h-3l-98 -147l-19 10l90 167c4 8 8.16699 13.5 12.5 16.5s9.83301 4.5 16.5 4.5c6 0 11.167 -1.5 15.5 -4.5s8.5 -8.5 12.5 -16.5z" />
    <glyph glyph-name="idieresis" unicode="&#xef;" horiz-adv-x="234" 
d="M223 17l-0.000976562 -17h-208v17l27 7c10 2.66699 16.5 6.16699 19.5 10.5s4.5 12.166 4.5 23.499v208c0 10 -1.16699 17.167 -3.5 21.5s-8.16602 8.83301 -17.499 13.5l-18 10v14l138 47l11 -7c-2 -12 -3.33301 -23.833 -4 -35.5s-1 -29.167 -1 -52.5v-219
c0 -11.333 1.5 -19.166 4.5 -23.499s9.5 -7.83301 19.5 -10.5zM96.999 530c0 -15.333 -5.16699 -28.166 -15.5 -38.499s-22.833 -15.5 -37.5 -15.5c-16 0 -29.167 5.16699 -39.5 15.5s-15.5 23.166 -15.5 38.499s5.33301 28.333 16 39s23.667 16 39 16
c14.667 0 27.167 -5.33301 37.5 -16s15.5 -23.667 15.5 -39zM257.999 530c0 -15.333 -5.16699 -28.166 -15.5 -38.499s-22.833 -15.5 -37.5 -15.5c-16 0 -29.167 5.16699 -39.5 15.5s-15.5 23.166 -15.5 38.499s5.33301 28.333 16 39s23.667 16 39 16
c14.667 0 27.167 -5.33301 37.5 -16s15.5 -23.667 15.5 -39z" />
    <glyph glyph-name="eth" unicode="&#xf0;" horiz-adv-x="465" 
d="M430 251c0 -81.333 -18.3359 -145.168 -55.0029 -191.501s-86.334 -69.5 -149.001 -69.5c-59.333 0 -107.666 16.667 -144.999 50s-56 78.666 -56 135.999c0 56 20 102.667 60 140s88 56 144 56c12.667 0 24.834 -1.16699 36.501 -3.5s23.167 -5.5 34.5 -9.5
c-8 40 -18.5 76.333 -31.5 109s-28.167 62.334 -45.5 89.001l-126 -64l-13 25l122 62c-14 17.333 -29.333 32.666 -46 45.999s-34.667 25 -54 35l9 19c26.667 -9.33301 51.834 -20.166 75.501 -32.499s45.834 -26.166 66.501 -41.499l126 64l13 -25l-115 -58
c48.667 -41.333 85.667 -90.833 111 -148.5s38 -120.167 38 -187.5zM229.997 16.998c28.667 0 50.167 12.999 64.5 38.999s21.5 65.333 21.5 118c0 54 -8 96 -24 126s-38.333 45 -67 45s-50.167 -12.833 -64.5 -38.5s-21.5 -64.167 -21.5 -115.5
c0 -55.333 7.83301 -98.166 23.5 -128.499s38.167 -45.5 67.5 -45.5z" />
    <glyph glyph-name="ntilde" unicode="&#xf1;" horiz-adv-x="465" 
d="M220 17v-17.001h-203v17l25 7c10 2.66699 16.5 6.16699 19.5 10.5s4.5 12.166 4.5 23.499v208c0 10 -1.16699 17.167 -3.5 21.5s-8.16602 8.83301 -17.499 13.5l-18 10v14l138 47l11 -7c0 -2 -0.666992 -8.66699 -2 -20s-2.33301 -20.333 -3 -27
c18 14.667 38.167 27.334 60.5 38.001s40.5 16 54.5 16c38.667 0 68.5 -10.667 89.5 -32s31.5 -52 31.5 -92v-190c0 -11.333 1.5 -19.166 4.5 -23.499s9.5 -7.83301 19.5 -10.5l25 -7v-17h-203v17l25 7c10 2.66699 16.5 6.16699 19.5 10.5s4.5 12.166 4.5 23.499v169
c0 28 -5.5 48.833 -16.5 62.5s-27.5 20.5 -49.5 20.5c-10.667 0 -21.334 -1.5 -32.001 -4.5s-21.667 -7.83301 -33 -14.5v-233c0 -11.333 1.5 -19.166 4.5 -23.499s9.5 -7.83301 19.5 -10.5zM308 478.999c-6.66699 0 -14.5 1 -23.5 3s-23.5 6.33301 -43.5 13
c-18 6 -31 9.83301 -39 11.5s-14.667 2.5 -20 2.5c-9.33301 0 -16.5 -1.83301 -21.5 -5.5s-9.83301 -10.5 -14.5 -20.5l-22 -48l-18 5l25 61c9.33301 23.333 17.666 38.333 24.999 45s17 10 29 10c6.66699 0 14.5 -1 23.5 -3s23.5 -6.33301 43.5 -13
c18 -6 31 -9.83301 39 -11.5s14.667 -2.5 20 -2.5c8.66699 0 15.5 1.66699 20.5 5s10.167 10.333 15.5 21l22 47l17 -6l-24 -59c-9.33301 -23.333 -17.666 -38.333 -24.999 -45s-17 -10 -29 -10z" />
    <glyph glyph-name="ograve" unicode="&#xf2;" horiz-adv-x="454" 
d="M429 186c0 -56.667 -19.832 -103.5 -59.499 -140.5s-87.834 -55.5 -144.501 -55.5c-59.333 0 -107.666 16.667 -144.999 50s-56 78.666 -56 135.999c0 56 20 102.667 60 140s88 56 144 56c59.333 0 107.666 -16.667 144.999 -50s56 -78.666 56 -135.999zM138.001 191
c0 -55.333 7.83301 -98.166 23.5 -128.499s38.167 -45.5 67.5 -45.5c28.667 0 50.167 12.833 64.5 38.5s21.5 64.167 21.5 115.5c0 55.333 -7.83301 98.166 -23.5 128.499s-38.167 45.5 -67.5 45.5c-28.667 0 -50.167 -13 -64.5 -39s-21.5 -64.333 -21.5 -115zM179.001 582
l60 -160l-18 -8l-84 154c-3.33301 6 -5.5 10.833 -6.5 14.5s-1.5 7.5 -1.5 11.5c0 5.33301 2 9.83301 6 13.5s9 5.5 15 5.5s11.333 -2.5 16 -7.5s9 -12.833 13 -23.5z" />
    <glyph glyph-name="oacute" unicode="&#xf3;" horiz-adv-x="454" 
d="M429 186c0 -56.667 -19.832 -103.5 -59.499 -140.5s-87.834 -55.5 -144.501 -55.5c-59.333 0 -107.666 16.667 -144.999 50s-56 78.666 -56 135.999c0 56 20 102.667 60 140s88 56 144 56c59.333 0 107.666 -16.667 144.999 -50s56 -78.666 56 -135.999zM138.001 191
c0 -55.333 7.83301 -98.166 23.5 -128.499s38.167 -45.5 67.5 -45.5c28.667 0 50.167 12.833 64.5 38.5s21.5 64.167 21.5 115.5c0 55.333 -7.83301 98.166 -23.5 128.499s-38.167 45.5 -67.5 45.5c-28.667 0 -50.167 -13 -64.5 -39s-21.5 -64.333 -21.5 -115zM242.001 414
l-18 8l60 160c4 10.667 8.33301 18.5 13 23.5s10 7.5 16 7.5s11 -1.83301 15 -5.5s6 -8.16699 6 -13.5c0 -4 -0.5 -7.83301 -1.5 -11.5s-3.16699 -8.5 -6.5 -14.5z" />
    <glyph glyph-name="ocircumflex" unicode="&#xf4;" horiz-adv-x="454" 
d="M429 186c0 -56.667 -19.832 -103.5 -59.499 -140.5s-87.834 -55.5 -144.501 -55.5c-59.333 0 -107.666 16.667 -144.999 50s-56 78.666 -56 135.999c0 56 20 102.667 60 140s88 56 144 56c59.333 0 107.666 -16.667 144.999 -50s56 -78.666 56 -135.999zM138.001 191
c0 -55.333 7.83301 -98.166 23.5 -128.499s38.167 -45.5 67.5 -45.5c28.667 0 50.167 12.833 64.5 38.5s21.5 64.167 21.5 115.5c0 55.333 -7.83301 98.166 -23.5 128.499s-38.167 45.5 -67.5 45.5c-28.667 0 -50.167 -13 -64.5 -39s-21.5 -64.333 -21.5 -115zM258.001 592
l90 -167l-19 -10l-98 147h-3l-98 -147l-19 10l90 167c4 8 8.16699 13.5 12.5 16.5s9.83301 4.5 16.5 4.5c6 0 11.167 -1.5 15.5 -4.5s8.5 -8.5 12.5 -16.5z" />
    <glyph glyph-name="otilde" unicode="&#xf5;" horiz-adv-x="454" 
d="M429 186c0 -56.667 -19.832 -103.5 -59.499 -140.5s-87.834 -55.5 -144.501 -55.5c-59.333 0 -107.666 16.667 -144.999 50s-56 78.666 -56 135.999c0 56 20 102.667 60 140s88 56 144 56c59.333 0 107.666 -16.667 144.999 -50s56 -78.666 56 -135.999zM138.001 191
c0 -55.333 7.83301 -98.166 23.5 -128.499s38.167 -45.5 67.5 -45.5c28.667 0 50.167 12.833 64.5 38.5s21.5 64.167 21.5 115.5c0 55.333 -7.83301 98.166 -23.5 128.499s-38.167 45.5 -67.5 45.5c-28.667 0 -50.167 -13 -64.5 -39s-21.5 -64.333 -21.5 -115zM300.001 479
c-6.66699 0 -14.5 1 -23.5 3s-23.5 6.33301 -43.5 13c-18 6 -31 9.83301 -39 11.5s-14.667 2.5 -20 2.5c-9.33301 0 -16.5 -1.83301 -21.5 -5.5s-9.83301 -10.5 -14.5 -20.5l-22 -48l-18 5l25 61c9.33301 23.333 17.666 38.333 24.999 45s17 10 29 10
c6.66699 0 14.5 -1 23.5 -3s23.5 -6.33301 43.5 -13c18 -6 31 -9.83301 39 -11.5s14.667 -2.5 20 -2.5c8.66699 0 15.5 1.66699 20.5 5s10.167 10.333 15.5 21l22 47l17 -6l-24 -59c-9.33301 -23.333 -17.666 -38.333 -24.999 -45s-17 -10 -29 -10z" />
    <glyph glyph-name="odieresis" unicode="&#xf6;" horiz-adv-x="454" 
d="M429 186c0 -56.667 -19.832 -103.5 -59.499 -140.5s-87.834 -55.5 -144.501 -55.5c-59.333 0 -107.666 16.667 -144.999 50s-56 78.666 -56 135.999c0 56 20 102.667 60 140s88 56 144 56c59.333 0 107.666 -16.667 144.999 -50s56 -78.666 56 -135.999zM138.001 191
c0 -55.333 7.83301 -98.166 23.5 -128.499s38.167 -45.5 67.5 -45.5c28.667 0 50.167 12.833 64.5 38.5s21.5 64.167 21.5 115.5c0 55.333 -7.83301 98.166 -23.5 128.499s-38.167 45.5 -67.5 45.5c-28.667 0 -50.167 -13 -64.5 -39s-21.5 -64.333 -21.5 -115zM205.001 530
c0 -15.333 -5.16699 -28.166 -15.5 -38.499s-22.833 -15.5 -37.5 -15.5c-16 0 -29.167 5.16699 -39.5 15.5s-15.5 23.166 -15.5 38.499s5.33301 28.333 16 39s23.667 16 39 16c14.667 0 27.167 -5.33301 37.5 -16s15.5 -23.667 15.5 -39zM366.001 530
c0 -15.333 -5.16699 -28.166 -15.5 -38.499s-22.833 -15.5 -37.5 -15.5c-16 0 -29.167 5.16699 -39.5 15.5s-15.5 23.166 -15.5 38.499s5.33301 28.333 16 39s23.667 16 39 16c14.667 0 27.167 -5.33301 37.5 -16s15.5 -23.667 15.5 -39z" />
    <glyph glyph-name="divide" unicode="&#xf7;" horiz-adv-x="500" 
d="M283 386c0 -9.33301 -3.16797 -17.165 -9.50098 -23.498s-14.166 -9.5 -23.499 -9.5s-17.333 3.16699 -24 9.5s-10 14.166 -10 23.499s3.33301 17.166 10 23.499s14.667 9.5 24 9.5c10 0 18 -3 24 -9s9 -14 9 -24zM433.999 254.001v-33h-369v33h369zM282.999 88.001
c0 -9.33301 -3.16797 -17.167 -9.50098 -23.5s-14.166 -9.5 -23.499 -9.5s-17.333 3.33301 -24 10s-10 14.334 -10 23.001c0 9.33301 3.33301 17.166 10 23.499s14.667 9.5 24 9.5c10 0 18 -3 24 -9s9 -14 9 -24z" />
    <glyph glyph-name="oslash" unicode="&#xf8;" horiz-adv-x="454" 
d="M85 35l-39.999 -35.001l-20 22l39 34c-13.333 16 -23.333 34 -30 54s-10 42 -10 66c0 56 20 102.667 60 140s88 56 144 56c27.333 0 53.166 -4 77.499 -12s45.5 -19.333 63.5 -34l41 36l20 -22l-40 -35c12.667 -16 22.334 -34 29.001 -54s10 -41.667 10 -65
c0 -56.667 -19.833 -103.5 -59.5 -140.5s-87.834 -55.5 -144.501 -55.5c-26.667 0 -52.167 3.83301 -76.5 11.5s-45.5 18.834 -63.5 33.501zM224.001 344.999c-28.667 0 -50.167 -12.999 -64.5 -38.999s-21.5 -64.333 -21.5 -115c0 -11.333 0.5 -22.333 1.5 -33
s2.16699 -21.334 3.5 -32.001l161 142c-8 25.333 -18.667 44.5 -32 57.5s-29.333 19.5 -48 19.5zM229.001 17c28.667 0 50.168 12.834 64.501 38.501s21.5 64.167 21.5 115.5c0 13.333 -0.333008 25.166 -1 35.499s-1.66699 19.833 -3 28.5l-161 -142
c7.33301 -24.667 17.666 -43.5 30.999 -56.5s29.333 -19.5 48 -19.5z" />
    <glyph glyph-name="ugrave" unicode="&#xf9;" horiz-adv-x="457" 
d="M173 -10c-36 0 -64.166 10.6709 -84.499 32.0039s-30.5 52 -30.5 92v153c0 9.33301 -1.33301 16.166 -4 20.499s-8.66699 9.16602 -18 14.499l-18 10v13l141 47l11 -7c-2.66699 -14 -4.5 -27.5 -5.5 -40.5s-1.5 -28.833 -1.5 -47.5v-142c0 -28 5 -48.833 15 -62.5
s25 -20.5 45 -20.5c10.667 0 21.334 1.5 32.001 4.5s21.667 7.83301 33 14.5v193c0 11.333 -1.33301 19.166 -4 23.499s-8.33398 8.16602 -17.001 11.499l-33 13v13l153 47l11 -7c-2 -12 -3.33301 -23.833 -4 -35.5s-1 -29.167 -1 -52.5v-191
c0 -10.667 1.66699 -18.167 5 -22.5s9.66602 -7.16602 18.999 -8.49902l30 -4v-16l-159 -45v54c-18 -14.667 -38.167 -27.334 -60.5 -38.001s-40.5 -16 -54.5 -16zM187.001 582.004l60 -160l-18 -8l-84 154c-3.33301 6 -5.5 10.833 -6.5 14.5s-1.5 7.5 -1.5 11.5
c0 5.33301 2 9.83301 6 13.5s9 5.5 15 5.5s11.333 -2.5 16 -7.5s9 -12.833 13 -23.5z" />
    <glyph glyph-name="uacute" unicode="&#xfa;" horiz-adv-x="457" 
d="M173 -10c-36 0 -64.166 10.6709 -84.499 32.0039s-30.5 52 -30.5 92v153c0 9.33301 -1.33301 16.166 -4 20.499s-8.66699 9.16602 -18 14.499l-18 10v13l141 47l11 -7c-2.66699 -14 -4.5 -27.5 -5.5 -40.5s-1.5 -28.833 -1.5 -47.5v-142c0 -28 5 -48.833 15 -62.5
s25 -20.5 45 -20.5c10.667 0 21.334 1.5 32.001 4.5s21.667 7.83301 33 14.5v193c0 11.333 -1.33301 19.166 -4 23.499s-8.33398 8.16602 -17.001 11.499l-33 13v13l153 47l11 -7c-2 -12 -3.33301 -23.833 -4 -35.5s-1 -29.167 -1 -52.5v-191
c0 -10.667 1.66699 -18.167 5 -22.5s9.66602 -7.16602 18.999 -8.49902l30 -4v-16l-159 -45v54c-18 -14.667 -38.167 -27.334 -60.5 -38.001s-40.5 -16 -54.5 -16zM250.001 414.004l-18 8l60 160c4 10.667 8.33301 18.5 13 23.5s10 7.5 16 7.5s11 -1.83301 15 -5.5
s6 -8.16699 6 -13.5c0 -4 -0.5 -7.83301 -1.5 -11.5s-3.16699 -8.5 -6.5 -14.5z" />
    <glyph glyph-name="ucircumflex" unicode="&#xfb;" horiz-adv-x="457" 
d="M173 -10c-36 0 -64.166 10.6709 -84.499 32.0039s-30.5 52 -30.5 92v153c0 9.33301 -1.33301 16.166 -4 20.499s-8.66699 9.16602 -18 14.499l-18 10v13l141 47l11 -7c-2.66699 -14 -4.5 -27.5 -5.5 -40.5s-1.5 -28.833 -1.5 -47.5v-142c0 -28 5 -48.833 15 -62.5
s25 -20.5 45 -20.5c10.667 0 21.334 1.5 32.001 4.5s21.667 7.83301 33 14.5v193c0 11.333 -1.33301 19.166 -4 23.499s-8.33398 8.16602 -17.001 11.499l-33 13v13l153 47l11 -7c-2 -12 -3.33301 -23.833 -4 -35.5s-1 -29.167 -1 -52.5v-191
c0 -10.667 1.66699 -18.167 5 -22.5s9.66602 -7.16602 18.999 -8.49902l30 -4v-16l-159 -45v54c-18 -14.667 -38.167 -27.334 -60.5 -38.001s-40.5 -16 -54.5 -16zM266.001 592.004l90 -167l-19 -10l-98 147h-3l-98 -147l-19 10l90 167c4 8 8.16699 13.5 12.5 16.5
s9.83301 4.5 16.5 4.5c6 0 11.167 -1.5 15.5 -4.5s8.5 -8.5 12.5 -16.5z" />
    <glyph glyph-name="udieresis" unicode="&#xfc;" horiz-adv-x="457" 
d="M173 -10c-36 0 -64.166 10.6709 -84.499 32.0039s-30.5 52 -30.5 92v153c0 9.33301 -1.33301 16.166 -4 20.499s-8.66699 9.16602 -18 14.499l-18 10v13l141 47l11 -7c-2.66699 -14 -4.5 -27.5 -5.5 -40.5s-1.5 -28.833 -1.5 -47.5v-142c0 -28 5 -48.833 15 -62.5
s25 -20.5 45 -20.5c10.667 0 21.334 1.5 32.001 4.5s21.667 7.83301 33 14.5v193c0 11.333 -1.33301 19.166 -4 23.499s-8.33398 8.16602 -17.001 11.499l-33 13v13l153 47l11 -7c-2 -12 -3.33301 -23.833 -4 -35.5s-1 -29.167 -1 -52.5v-191
c0 -10.667 1.66699 -18.167 5 -22.5s9.66602 -7.16602 18.999 -8.49902l30 -4v-16l-159 -45v54c-18 -14.667 -38.167 -27.334 -60.5 -38.001s-40.5 -16 -54.5 -16zM213.001 530.004c0 -15.333 -5.16699 -28.166 -15.5 -38.499s-22.833 -15.5 -37.5 -15.5
c-16 0 -29.167 5.16699 -39.5 15.5s-15.5 23.166 -15.5 38.499s5.33301 28.333 16 39s23.667 16 39 16c14.667 0 27.167 -5.33301 37.5 -16s15.5 -23.667 15.5 -39zM374.001 530.004c0 -15.333 -5.16699 -28.166 -15.5 -38.499s-22.833 -15.5 -37.5 -15.5
c-16 0 -29.167 5.16699 -39.5 15.5s-15.5 23.166 -15.5 38.499s5.33301 28.333 16 39s23.667 16 39 16c14.667 0 27.167 -5.33301 37.5 -16s15.5 -23.667 15.5 -39z" />
    <glyph glyph-name="yacute" unicode="&#xfd;" horiz-adv-x="409" 
d="M86 -280c-9.33301 0 -17.168 3.16797 -23.501 9.50098s-12.833 16.5 -19.5 30.5c27.333 15.333 47 29.5 59 42.5s25.667 37.5 41 73.5l45 105l-143 336c-3.33301 8.66699 -6.5 14.167 -9.5 16.5s-7.83301 4.5 -14.5 6.5l-21 5v17h207v-17l-36 -9
c-5.33301 -1.33301 -8.5 -3.5 -9.5 -6.5s-0.5 -7.16699 1.5 -12.5l84 -204l80 204c2 6 2.33301 10.667 1 14s-4.66602 5.33301 -9.99902 6l-39 8v17h130v-17l-23 -6c-5.33301 -1.33301 -9.5 -3.5 -12.5 -6.5s-5.83301 -7.83301 -8.5 -14.5l-208 -490
c-19.333 -44.667 -33.5 -73.834 -42.5 -87.501s-18.5 -20.5 -28.5 -20.5zM236.998 414.001l-18 8l60 160c4 10.667 8.33301 18.5 13 23.5s10 7.5 16 7.5s11 -1.83301 15 -5.5s6 -8.16699 6 -13.5c0 -4 -0.5 -7.83301 -1.5 -11.5s-3.16699 -8.5 -6.5 -14.5z" />
    <glyph glyph-name="thorn" unicode="&#xfe;" horiz-adv-x="472" 
d="M447 202c0 -64 -20.501 -115.332 -61.501 -153.999s-94.167 -58 -159.5 -58c-10 0 -20 0.5 -30 1.5s-19.333 2.5 -28 4.5v-208c0 -10.667 1.33301 -18 4 -22s9.33398 -7 20.001 -9l45 -10v-17h-225v17l27 7c10 2.66699 16.5 6.16699 19.5 10.5s4.5 12.166 4.5 23.499v787
c0 8.66699 -1.16699 15.167 -3.5 19.5s-8.5 9.5 -18.5 15.5l-17 10v13l138 47l11 -7c-2 -12 -3.33301 -23.833 -4 -35.5s-1 -29.167 -1 -52.5v-267c20 16 41.333 29 64 39s41.667 15 57 15c46.667 0 84.667 -15.5 114 -46.5s44 -72.167 44 -123.5zM167.999 292.001
l0.000976562 -190.999c0 -26.667 6.16699 -47.334 18.5 -62.001s30.166 -22 53.499 -22c30 0 53.667 12.5 71 37.5s26 59.167 26 102.5c0 46.667 -9.16699 83.334 -27.5 110.001s-42.833 40 -73.5 40c-14 0 -26.667 -1.33301 -38 -4s-21.333 -6.33398 -30 -11.001z" />
    <glyph glyph-name="ydieresis" unicode="&#xff;" horiz-adv-x="409" 
d="M86 -280c-9.33301 0 -17.168 3.16797 -23.501 9.50098s-12.833 16.5 -19.5 30.5c27.333 15.333 47 29.5 59 42.5s25.667 37.5 41 73.5l45 105l-143 336c-3.33301 8.66699 -6.5 14.167 -9.5 16.5s-7.83301 4.5 -14.5 6.5l-21 5v17h207v-17l-36 -9
c-5.33301 -1.33301 -8.5 -3.5 -9.5 -6.5s-0.5 -7.16699 1.5 -12.5l84 -204l80 204c2 6 2.33301 10.667 1 14s-4.66602 5.33301 -9.99902 6l-39 8v17h130v-17l-23 -6c-5.33301 -1.33301 -9.5 -3.5 -12.5 -6.5s-5.83301 -7.83301 -8.5 -14.5l-208 -490
c-19.333 -44.667 -33.5 -73.834 -42.5 -87.501s-18.5 -20.5 -28.5 -20.5zM199.998 530.001c0 -15.333 -5.16699 -28.166 -15.5 -38.499s-22.833 -15.5 -37.5 -15.5c-16 0 -29.167 5.16699 -39.5 15.5s-15.5 23.166 -15.5 38.499s5.33301 28.333 16 39s23.667 16 39 16
c14.667 0 27.167 -5.33301 37.5 -16s15.5 -23.667 15.5 -39zM360.998 530.001c0 -15.333 -5.16699 -28.166 -15.5 -38.499s-22.833 -15.5 -37.5 -15.5c-16 0 -29.167 5.16699 -39.5 15.5s-15.5 23.166 -15.5 38.499s5.33301 28.333 16 39s23.667 16 39 16
c14.667 0 27.167 -5.33301 37.5 -16s15.5 -23.667 15.5 -39z" />
    <glyph glyph-name="Amacron" unicode="&#x100;" horiz-adv-x="598" 
d="M168 21l-0.00195312 -21.001h-163v21l18 5c10.667 3.33301 18.167 6.83301 22.5 10.5s8.5 10.5 12.5 20.5l213 522h54l214 -522c4 -9.33301 8.33301 -16.166 13 -20.499s11.667 -7.83301 21 -10.5l20 -5v-21h-245v21l50 9c10 2 16.333 4.66699 19 8
s2.33398 9 -0.999023 17l-59 145h-198l-56 -146c-2.66699 -7.33301 -2.66699 -12.833 0 -16.5s9.33398 -6.5 20.001 -8.5zM254.998 452.999l-84 -221h173zM426.998 675.999h-256v37h256v-37z" />
    <glyph glyph-name="amacron" unicode="&#x101;" horiz-adv-x="389" 
d="M222 41c-23.333 -16.667 -44.8369 -29.335 -64.5039 -38.002s-36.167 -13 -49.5 -13c-25.333 0 -45.666 6.83301 -60.999 20.5s-23 32.5 -23 56.5c0 20 6.83301 36.667 20.5 50s36.167 25.333 67.5 36l109 38v59c0 22 -6.83301 39.667 -20.5 53s-31.5 20 -53.5 20
c-8.66699 0 -16.167 -0.833008 -22.5 -2.5s-11.833 -4.16699 -16.5 -7.5c-6 -4 -10.333 -9 -13 -15s-4 -13 -4 -21c0 -2.66699 0.833008 -8 2.5 -16l6.5 -32c-6.66699 -3.33301 -15 -6.16602 -25 -8.49902s-17.667 -3.5 -23 -3.5c-8 0 -14.667 2.83301 -20 8.5
s-8 13.167 -8 22.5c0 24.667 21.167 51.5 63.5 80.5s82.833 43.5 121.5 43.5c30.667 0 57.834 -9.16699 81.501 -27.5s35.5 -40.5 35.5 -66.5v-188c0 -12.667 2.33301 -22.334 7 -29.001s11.334 -10 20.001 -10c3.33301 0 6.83301 0.333008 10.5 1s9.83398 2.66699 18.501 6
l6 -14c-24 -17.333 -45.167 -30.666 -63.5 -39.999s-32.833 -14 -43.5 -14c-16 0 -29 4.33301 -39 13s-16.667 21.334 -20 38.001zM127.996 95.999c0 -14.667 4.16699 -26 12.5 -34s20.5 -12 36.5 -12c8.66699 0 16.5 0.666992 23.5 2s13.833 3.66602 20.5 6.99902v112
l-43 -18c-18.667 -8 -31.667 -16.167 -39 -24.5s-11 -19.166 -11 -32.499zM321.996 504.999h-254v37h254v-37z" />
    <glyph glyph-name="Abreve" unicode="&#x102;" horiz-adv-x="598" 
d="M168 21l-0.00195312 -21.001h-163v21l18 5c10.667 3.33301 18.167 6.83301 22.5 10.5s8.5 10.5 12.5 20.5l213 522h54l214 -522c4 -9.33301 8.33301 -16.166 13 -20.499s11.667 -7.83301 21 -10.5l20 -5v-21h-245v21l50 9c10 2 16.333 4.66699 19 8
s2.33398 9 -0.999023 17l-59 145h-198l-56 -146c-2.66699 -7.33301 -2.66699 -12.833 0 -16.5s9.33398 -6.5 20.001 -8.5zM254.998 452.999l-84 -221h173zM298.998 615.999c-32.667 0 -57.8291 10.667 -75.4961 32s-27.834 53.333 -30.501 96l18 1
c4.66699 -26.667 14.167 -46.667 28.5 -60s34.166 -20 59.499 -20c26 0 46 6.33301 60 19s23.333 33 28 61l18 -1c-2.66699 -42.667 -12.834 -74.667 -30.501 -96s-42.834 -32 -75.501 -32z" />
    <glyph glyph-name="abreve" unicode="&#x103;" horiz-adv-x="389" 
d="M222 41c-23.333 -16.667 -44.8369 -29.335 -64.5039 -38.002s-36.167 -13 -49.5 -13c-25.333 0 -45.666 6.83301 -60.999 20.5s-23 32.5 -23 56.5c0 20 6.83301 36.667 20.5 50s36.167 25.333 67.5 36l109 38v59c0 22 -6.83301 39.667 -20.5 53s-31.5 20 -53.5 20
c-8.66699 0 -16.167 -0.833008 -22.5 -2.5s-11.833 -4.16699 -16.5 -7.5c-6 -4 -10.333 -9 -13 -15s-4 -13 -4 -21c0 -2.66699 0.833008 -8 2.5 -16l6.5 -32c-6.66699 -3.33301 -15 -6.16602 -25 -8.49902s-17.667 -3.5 -23 -3.5c-8 0 -14.667 2.83301 -20 8.5
s-8 13.167 -8 22.5c0 24.667 21.167 51.5 63.5 80.5s82.833 43.5 121.5 43.5c30.667 0 57.834 -9.16699 81.501 -27.5s35.5 -40.5 35.5 -66.5v-188c0 -12.667 2.33301 -22.334 7 -29.001s11.334 -10 20.001 -10c3.33301 0 6.83301 0.333008 10.5 1s9.83398 2.66699 18.501 6
l6 -14c-24 -17.333 -45.167 -30.666 -63.5 -39.999s-32.833 -14 -43.5 -14c-16 0 -29 4.33301 -39 13s-16.667 21.334 -20 38.001zM127.996 95.999c0 -14.667 4.16699 -26 12.5 -34s20.5 -12 36.5 -12c8.66699 0 16.5 0.666992 23.5 2s13.833 3.66602 20.5 6.99902v112
l-43 -18c-18.667 -8 -31.667 -16.167 -39 -24.5s-11 -19.166 -11 -32.499zM194.996 439.999c-34 0 -60.665 13.667 -79.998 41s-31 68.333 -35 123l18 1c5.33301 -40.667 15.666 -70.167 30.999 -88.5s37.333 -27.5 66 -27.5s50.667 9.16699 66 27.5
s25.666 47.833 30.999 88.5l18 -1c-4 -54.667 -15.667 -95.667 -35 -123s-46 -41 -80 -41z" />
    <glyph glyph-name="Aogonek" unicode="&#x104;" horiz-adv-x="598" 
d="M168 21v-21h-163v21l18 5c10.667 3.33301 18.167 6.83301 22.5 10.5s8.5 10.5 12.5 20.5l213 522h54l214 -522c4 -9.33301 8.33301 -16.166 13 -20.499s11.667 -7.83301 21 -10.5l20 -5v-21h-54c-22 -24.667 -38.167 -47 -48.5 -67s-15.5 -40 -15.5 -60
c0 -18 4.66699 -32 14 -42s22.666 -15 39.999 -15c9.33301 0 18.333 1.66699 27 5s17.667 8.33301 27 15l9 -12c-12 -14.667 -25.5 -25.834 -40.5 -33.501s-30.833 -11.5 -47.5 -11.5c-24.667 0 -44.5 6.66699 -59.5 20s-22.5 31.333 -22.5 54
c0 17.333 5.16699 35.333 15.5 54s36.166 49.667 77.499 93h-167v21l50 9c10 2 16.333 4.66699 19 8s2.33398 9 -0.999023 17l-59 145h-198l-56 -146c-2.66699 -7.33301 -2.66699 -12.833 0 -16.5s9.33398 -6.5 20.001 -8.5zM255 453l-84 -221h173z" />
    <glyph glyph-name="aogonek" unicode="&#x105;" horiz-adv-x="389" 
d="M222 41c-23.333 -16.667 -44.833 -29.334 -64.5 -38.001s-36.167 -13 -49.5 -13c-25.333 0 -45.666 6.83301 -60.999 20.5s-23 32.5 -23 56.5c0 20 6.83301 36.667 20.5 50s36.167 25.333 67.5 36l109 38v59c0 22 -6.83301 39.667 -20.5 53s-31.5 20 -53.5 20
c-8.66699 0 -16.167 -0.833008 -22.5 -2.5s-11.833 -4.16699 -16.5 -7.5c-6 -4 -10.333 -9 -13 -15s-4 -13 -4 -21c0 -2.66699 0.833008 -8 2.5 -16l6.5 -32c-6.66699 -3.33301 -15 -6.16602 -25 -8.49902s-17.667 -3.5 -23 -3.5c-8 0 -14.667 2.83301 -20 8.5
s-8 13.167 -8 22.5c0 24.667 21.167 51.5 63.5 80.5s82.833 43.5 121.5 43.5c31.333 0 58.666 -9.16699 81.999 -27.5s35 -40.5 35 -66.5v-188c0 -12.667 2.33301 -22.334 7 -29.001s11.334 -10 20.001 -10c3.33301 0 6.83301 0.333008 10.5 1s9.83398 2.66699 18.501 6
l7 -15c-2.66699 -2.66699 -5.83398 -5.66699 -9.50098 -9l-16.5 -15c-4 -4 -7.16699 -7 -9.5 -9s-4.5 -4 -6.5 -6c-23.333 -20.667 -41.833 -42.667 -55.5 -66s-20.5 -45.666 -20.5 -66.999c0 -17.333 4.66699 -30.833 14 -40.5s22.666 -14.5 39.999 -14.5
c9.33301 0 18.333 1.66699 27 5s17.667 8.33301 27 15l9 -12c-9.33301 -12.667 -22.5 -23.334 -39.5 -32.001s-34.167 -13 -51.5 -13c-24.667 0 -44 6.16699 -58 18.5s-21 29.5 -21 51.5c0 19.333 7 40 21 62s40.667 52.333 80 91c-8 -4 -15.167 -7 -21.5 -9
s-11.833 -3 -16.5 -3c-16 0 -29 4.33301 -39 13s-16.667 21.334 -20 38.001zM128 96c0 -14.667 4.16699 -26 12.5 -34s20.5 -12 36.5 -12c8.66699 0 16.5 0.666992 23.5 2s13.833 3.66602 20.5 6.99902v112l-43 -18c-18.667 -8 -31.667 -16.167 -39 -24.5
s-11 -19.166 -11 -32.499z" />
    <glyph glyph-name="Cacute" unicode="&#x106;" horiz-adv-x="618" 
d="M355 -10c-96 0 -172.333 26.001 -229 78.001s-85 122 -85 210s30.333 160.333 91 217s137.667 85 231 85c34 0 68.833 -5.16699 104.5 -15.5s65.5 -23.833 89.5 -40.5v-114h-18l-15 38c-13.333 34 -33.833 59.833 -61.5 77.5s-60.834 26.5 -99.501 26.5
c-61.333 0 -109 -22.833 -143 -68.5s-51 -109.167 -51 -190.5c0 -84.667 18 -151.5 54 -200.5s85.333 -73.5 148 -73.5c37.333 0 70 8.16699 98 24.5s50 40.166 66 71.499l20 39h15l-5 -110c-21.333 -16 -51.666 -29 -90.999 -39s-79 -15 -119 -15zM386 617.001l-19 8.00098
l38 111c3.33301 9.33301 7.33301 16.166 12 20.499s10 6.5 16 6.5s10.833 -1.83301 14.5 -5.5s5.5 -8.5 5.5 -14.5c0 -2.66699 -0.666992 -6 -2 -10s-3.33301 -8.33301 -6 -13z" />
    <glyph glyph-name="cacute" unicode="&#x107;" horiz-adv-x="362" 
d="M199 -10c-50.667 0 -92.3311 17.168 -124.998 51.501s-49 78.833 -49 133.5c0 59.333 19.833 107 59.5 143s89.5 54 149.5 54c32.667 0 59.667 -4.5 81 -13.5s32 -20.167 32 -33.5c0 -6 -2.66699 -13.333 -8 -22s-14.333 -19.667 -27 -33h-7
c-27.333 33.333 -46.166 53.833 -56.499 61.5s-21.833 11.5 -34.5 11.5c-24.667 0 -44 -11.167 -58 -33.5s-21 -52.5 -21 -90.5c0 -46.667 11.667 -83.834 35 -111.501s54.666 -41.5 93.999 -41.5c16 0 30.667 1.5 44 4.5s27.666 8.16699 42.999 15.5l9 -13
c-19.333 -21.333 -45.333 -40.5 -78 -57.5s-60.334 -25.5 -83.001 -25.5zM240.003 414.001l-18 8l60 160c4 10.667 8.33301 18.5 13 23.5s10 7.5 16 7.5s11 -1.83301 15 -5.5s6 -8.16699 6 -13.5c0 -4 -0.5 -7.83301 -1.5 -11.5s-3.16699 -8.5 -6.5 -14.5z" />
    <glyph glyph-name="Ccircumflex" unicode="&#x108;" horiz-adv-x="618" 
d="M355 -10c-96 0 -172.333 26.001 -229 78.001s-85 122 -85 210s30.333 160.333 91 217s137.667 85 231 85c34 0 68.833 -5.16699 104.5 -15.5s65.5 -23.833 89.5 -40.5v-114h-18l-15 38c-13.333 34 -33.833 59.833 -61.5 77.5s-60.834 26.5 -99.501 26.5
c-61.333 0 -109 -22.833 -143 -68.5s-51 -109.167 -51 -190.5c0 -84.667 18 -151.5 54 -200.5s85.333 -73.5 148 -73.5c37.333 0 70 8.16699 98 24.5s50 40.166 66 71.499l20 39h15l-5 -110c-21.333 -16 -51.666 -29 -90.999 -39s-79 -15 -119 -15zM404 741.001l79 -112
l-19 -12l-91 100h-1l-91 -100l-19 12l79 112c6 8.66699 11.167 14.5 15.5 17.5s9.5 4.5 15.5 4.5s11.167 -1.5 15.5 -4.5s9.83301 -8.83301 16.5 -17.5z" />
    <glyph glyph-name="ccircumflex" unicode="&#x109;" horiz-adv-x="362" 
d="M199 -10c-50.667 0 -92.3311 17.168 -124.998 51.501s-49 78.833 -49 133.5c0 59.333 19.833 107 59.5 143s89.5 54 149.5 54c32.667 0 59.667 -4.5 81 -13.5s32 -20.167 32 -33.5c0 -6 -2.66699 -13.333 -8 -22s-14.333 -19.667 -27 -33h-7
c-27.333 33.333 -46.166 53.833 -56.499 61.5s-21.833 11.5 -34.5 11.5c-24.667 0 -44 -11.167 -58 -33.5s-21 -52.5 -21 -90.5c0 -46.667 11.667 -83.834 35 -111.501s54.666 -41.5 93.999 -41.5c16 0 30.667 1.5 44 4.5s27.666 8.16699 42.999 15.5l9 -13
c-19.333 -21.333 -45.333 -40.5 -78 -57.5s-60.334 -25.5 -83.001 -25.5zM256.003 592.001l90 -167l-19 -10l-98 147h-3l-98 -147l-19 10l90 167c4 8 8.16699 13.5 12.5 16.5s9.83301 4.5 16.5 4.5c6 0 11.167 -1.5 15.5 -4.5s8.5 -8.5 12.5 -16.5z" />
    <glyph glyph-name="Cdotaccent" unicode="&#x10a;" horiz-adv-x="618" 
d="M355 -10c-96 0 -172.333 26.001 -229 78.001s-85 122 -85 210s30.333 160.333 91 217s137.667 85 231 85c34 0 68.833 -5.16699 104.5 -15.5s65.5 -23.833 89.5 -40.5v-114h-18l-15 38c-13.333 34 -33.833 59.833 -61.5 77.5s-60.834 26.5 -99.501 26.5
c-61.333 0 -109 -22.833 -143 -68.5s-51 -109.167 -51 -190.5c0 -84.667 18 -151.5 54 -200.5s85.333 -73.5 148 -73.5c37.333 0 70 8.16699 98 24.5s50 40.166 66 71.499l20 39h15l-5 -110c-21.333 -16 -51.666 -29 -90.999 -39s-79 -15 -119 -15zM429 686.001
c0 -15.333 -5.16699 -28.166 -15.5 -38.499s-22.833 -15.5 -37.5 -15.5c-16 0 -29.167 5.16699 -39.5 15.5s-15.5 23.166 -15.5 38.499s5.33301 28.333 16 39s23.667 16 39 16c14.667 0 27.167 -5.33301 37.5 -16s15.5 -23.667 15.5 -39z" />
    <glyph glyph-name="cdotaccent" unicode="&#x10b;" horiz-adv-x="362" 
d="M199 -10c-50.667 0 -92.3311 17.168 -124.998 51.501s-49 78.833 -49 133.5c0 59.333 19.833 107 59.5 143s89.5 54 149.5 54c32.667 0 59.667 -4.5 81 -13.5s32 -20.167 32 -33.5c0 -6 -2.66699 -13.333 -8 -22s-14.333 -19.667 -27 -33h-7
c-27.333 33.333 -46.166 53.833 -56.499 61.5s-21.833 11.5 -34.5 11.5c-24.667 0 -44 -11.167 -58 -33.5s-21 -52.5 -21 -90.5c0 -46.667 11.667 -83.834 35 -111.501s54.666 -41.5 93.999 -41.5c16 0 30.667 1.5 44 4.5s27.666 8.16699 42.999 15.5l9 -13
c-19.333 -21.333 -45.333 -40.5 -78 -57.5s-60.334 -25.5 -83.001 -25.5zM284.003 530.001c0 -15.333 -5.16699 -28.166 -15.5 -38.499s-22.833 -15.5 -37.5 -15.5c-16 0 -29.167 5.16699 -39.5 15.5s-15.5 23.166 -15.5 38.499s5.33301 28.333 16 39s23.667 16 39 16
c14.667 0 27.167 -5.33301 37.5 -16s15.5 -23.667 15.5 -39z" />
    <glyph glyph-name="Ccaron" unicode="&#x10c;" horiz-adv-x="618" 
d="M355 -10c-96 0 -172.333 26.001 -229 78.001s-85 122 -85 210s30.333 160.333 91 217s137.667 85 231 85c34 0 68.833 -5.16699 104.5 -15.5s65.5 -23.833 89.5 -40.5v-114h-18l-15 38c-13.333 34 -33.833 59.833 -61.5 77.5s-60.834 26.5 -99.501 26.5
c-61.333 0 -109 -22.833 -143 -68.5s-51 -109.167 -51 -190.5c0 -84.667 18 -151.5 54 -200.5s85.333 -73.5 148 -73.5c37.333 0 70 8.16699 98 24.5s50 40.166 66 71.499l20 39h15l-5 -110c-21.333 -16 -51.666 -29 -90.999 -39s-79 -15 -119 -15zM464 764.001l19 -12
l-79 -112c-6 -8.66699 -11.167 -14.5 -15.5 -17.5s-9.5 -4.5 -15.5 -4.5s-11.167 1.5 -15.5 4.5s-9.83301 8.83301 -16.5 17.5l-79 112l19 12l91 -100h1z" />
    <glyph glyph-name="ccaron" unicode="&#x10d;" horiz-adv-x="362" 
d="M199 -10c-50.667 0 -92.3311 17.168 -124.998 51.501s-49 78.833 -49 133.5c0 59.333 19.833 107 59.5 143s89.5 54 149.5 54c32.667 0 59.667 -4.5 81 -13.5s32 -20.167 32 -33.5c0 -6 -2.66699 -13.333 -8 -22s-14.333 -19.667 -27 -33h-7
c-27.333 33.333 -46.166 53.833 -56.499 61.5s-21.833 11.5 -34.5 11.5c-24.667 0 -44 -11.167 -58 -33.5s-21 -52.5 -21 -90.5c0 -46.667 11.667 -83.834 35 -111.501s54.666 -41.5 93.999 -41.5c16 0 30.667 1.5 44 4.5s27.666 8.16699 42.999 15.5l9 -13
c-19.333 -21.333 -45.333 -40.5 -78 -57.5s-60.334 -25.5 -83.001 -25.5zM199.003 436.001l-85 167l19 10l93 -150h3l93 150l19 -10l-85 -167c-4 -8 -8.16699 -13.5 -12.5 -16.5s-9.83301 -4.5 -16.5 -4.5c-6 0 -11.167 1.5 -15.5 4.5s-8.5 8.5 -12.5 16.5z" />
    <glyph glyph-name="Dcaron" unicode="&#x10e;" horiz-adv-x="675" 
d="M634 285c0 -84 -29.833 -152.501 -89.5 -205.501s-138.167 -79.5 -235.5 -79.5h-274v21l37 7c14.667 3.33301 24.167 7.5 28.5 12.5s6.5 14.833 6.5 29.5v430c0 14.667 -2.16699 24.5 -6.5 29.5s-13.833 9.16699 -28.5 12.5l-37 7v21h271
c102 0 182.167 -25.667 240.5 -77s87.5 -120.666 87.5 -207.999zM506 270.999c0 86 -18.168 152.5 -54.501 199.5s-88.166 70.5 -155.499 70.5h-76v-471c0 -16 2.5 -26.833 7.5 -32.5s13.833 -8.5 26.5 -8.5h55c64.667 0 113.667 20.5 147 61.5s50 101.167 50 180.5z
M383.999 763.999l19 -12l-79 -112c-6 -8.66699 -11.167 -14.5 -15.5 -17.5s-9.5 -4.5 -15.5 -4.5s-11.167 1.5 -15.5 4.5s-9.83301 8.83301 -16.5 17.5l-79 112l19 12l91 -100h1z" />
    <glyph glyph-name="dcaron" unicode="&#x10f;" horiz-adv-x="524" 
d="M458 33l-154 -43v54c-20 -16 -41.333 -29 -64 -39s-41.667 -15 -57 -15c-46.667 0 -84.667 15.5 -114 46.5s-44 72.167 -44 123.5c0 64 20.5 115.333 61.5 154s94.167 58 159.5 58c10 0 20 -0.5 30 -1.5s19.333 -2.5 28 -4.5v208c0 8.66699 -1.16699 15.167 -3.5 19.5
s-8.5 9.5 -18.5 15.5l-17 10v14l138 47l11 -7c-2 -12 -3.33301 -23.833 -4 -35.5s-1 -29.167 -1 -52.5v-499c0 -10 1.5 -17 4.5 -21s9.5 -7.33301 19.5 -10l25 -6v-16zM232 345c-30 0 -53.668 -12.502 -71.001 -37.502s-26 -59.167 -26 -102.5
c0 -46 9.16699 -82.5 27.5 -109.5s42.833 -40.5 73.5 -40.5c14 0 26.667 1.33301 38 4s21.333 6.33398 30 11.001v191c0 26.667 -6.16699 47.334 -18.5 62.001s-30.166 22 -53.499 22zM474.999 490.998l-14 2.00098l16 170c1.33301 12 3.83301 20.5 7.5 25.5
s9.5 7.5 17.5 7.5c5.33301 0 10 -1.83301 14 -5.5s6 -8.5 6 -14.5c0 -2.66699 -0.333008 -5.83398 -1 -9.50098s-2 -8.5 -4 -14.5z" />
    <glyph glyph-name="Dcroat" unicode="&#x110;" horiz-adv-x="675" 
d="M107 274l-72 -0.000976562v30h72v196c0 14.667 -2.16699 24.5 -6.5 29.5s-13.833 9.16699 -28.5 12.5l-37 7v21h271c102 0 182.167 -25.667 240.5 -77s87.5 -120.666 87.5 -207.999c0 -84 -29.833 -152.5 -89.5 -205.5s-138.167 -79.5 -235.5 -79.5h-274v21l37 7
c14.667 3.33301 24.167 7.5 28.5 12.5s6.5 14.833 6.5 29.5v204zM506 270.999c0 86 -18.168 152.5 -54.501 199.5s-88.166 70.5 -155.499 70.5h-76v-237h134v-30h-134v-204c0 -16 2.5 -26.833 7.5 -32.5s13.833 -8.5 26.5 -8.5h55c64.667 0 113.667 20.5 147 61.5
s50 101.167 50 180.5z" />
    <glyph glyph-name="dcroat" unicode="&#x111;" horiz-adv-x="472" 
d="M458 33l-154 -43v54c-20 -16 -41.333 -29 -64 -39s-41.667 -15 -57 -15c-46.667 0 -84.667 15.5 -114 46.5s-44 72.167 -44 123.5c0 64 20.5 115.333 61.5 154s94.167 58 159.5 58c10 0 20 -0.5 30 -1.5s19.333 -2.5 28 -4.5v122h-104v28h104v58
c0 8.66699 -1.16699 15.167 -3.5 19.5s-8.5 9.5 -18.5 15.5l-17 10v14l138 47l11 -7c-2 -12 -3.33301 -23.833 -4 -35.5s-1 -29.167 -1 -52.5v-69h49v-28h-49v-402c0 -10 1.5 -17 4.5 -21s9.5 -7.33301 19.5 -10l25 -6v-16zM232 345c-30 0 -53.668 -12.502 -71.001 -37.502
s-26 -59.167 -26 -102.5c0 -46 9.16699 -82.5 27.5 -109.5s42.833 -40.5 73.5 -40.5c14 0 26.667 1.33301 38 4s21.333 6.33398 30 11.001v191c0 26.667 -6.16699 47.334 -18.5 62.001s-30.166 22 -53.499 22z" />
    <glyph glyph-name="Emacron" unicode="&#x112;" horiz-adv-x="534" 
d="M421 385l-0.000976562 -191.999h-19l-22 55c-4 10 -8.66699 16.667 -14 20s-13.333 5 -24 5h-122v-208c0 -16.667 3.66699 -27.667 11 -33s22 -7.33301 44 -6l120 6c16.667 1.33301 29 4.5 37 9.5s14.667 13.833 20 26.5l36 85h19l-12 -153h-460v21l37 7
c14.667 3.33301 24.167 7.5 28.5 12.5s6.5 14.833 6.5 29.5v430c0 14.667 -2.16699 24.5 -6.5 29.5s-13.833 9.16699 -28.5 12.5l-37 7v21h356c13.333 0 24.833 0.833008 34.5 2.5s18.834 4.5 27.501 8.5l9 -3v-141h-19l-20 56c-6 17.333 -12.667 29.166 -20 35.499
s-20.333 9.83301 -39 10.5l-144 4v-238h122c12 0 20.333 1.5 25 4.5s9 9.5 13 19.5l22 56h19zM422.999 676.001h-256v37h256v-37z" />
    <glyph glyph-name="emacron" unicode="&#x113;" horiz-adv-x="382" 
d="M211 -10c-56 0 -100.999 17 -134.999 51s-51 79.667 -51 137c0 58.667 18.333 105.667 55 141s83 53 139 53c43.333 0 78 -11.333 104 -34s40 -53.667 42 -93l-4 -10h-229v-9c0 -52 11.5 -91.667 34.5 -119s56.167 -41 99.5 -41c16 0 31.833 1.66699 47.5 5
s30.5 8.33301 44.5 15l9 -13c-18.667 -22.667 -43.834 -42.167 -75.501 -58.5s-58.5 -24.5 -80.5 -24.5zM271.001 274c0 20 -5.99902 37 -17.999 51s-26.667 21 -44 21c-20.667 0 -37.334 -7.5 -50.001 -22.5s-21 -36.5 -25 -64.5h122c6 0 10 1 12 3s3 6 3 12zM362.002 505
h-254v37h254v-37z" />
    <glyph glyph-name="Ebreve" unicode="&#x114;" horiz-adv-x="534" 
d="M421 385l-0.000976562 -191.999h-19l-22 55c-4 10 -8.66699 16.667 -14 20s-13.333 5 -24 5h-122v-208c0 -16.667 3.66699 -27.667 11 -33s22 -7.33301 44 -6l120 6c16.667 1.33301 29 4.5 37 9.5s14.667 13.833 20 26.5l36 85h19l-12 -153h-460v21l37 7
c14.667 3.33301 24.167 7.5 28.5 12.5s6.5 14.833 6.5 29.5v430c0 14.667 -2.16699 24.5 -6.5 29.5s-13.833 9.16699 -28.5 12.5l-37 7v21h356c13.333 0 24.833 0.833008 34.5 2.5s18.834 4.5 27.501 8.5l9 -3v-141h-19l-20 56c-6 17.333 -12.667 29.166 -20 35.499
s-20.333 9.83301 -39 10.5l-144 4v-238h122c12 0 20.333 1.5 25 4.5s9 9.5 13 19.5l22 56h19zM294.999 616.001c-32.667 0 -57.8291 10.667 -75.4961 32s-27.834 53.333 -30.501 96l18 1c4.66699 -26.667 14.167 -46.667 28.5 -60s34.166 -20 59.499 -20
c26 0 46 6.33301 60 19s23.333 33 28 61l18 -1c-2.66699 -42.667 -12.834 -74.667 -30.501 -96s-42.834 -32 -75.501 -32z" />
    <glyph glyph-name="ebreve" unicode="&#x115;" horiz-adv-x="382" 
d="M211 -10c-56 0 -100.999 17 -134.999 51s-51 79.667 -51 137c0 58.667 18.333 105.667 55 141s83 53 139 53c43.333 0 78 -11.333 104 -34s40 -53.667 42 -93l-4 -10h-229v-9c0 -52 11.5 -91.667 34.5 -119s56.167 -41 99.5 -41c16 0 31.833 1.66699 47.5 5
s30.5 8.33301 44.5 15l9 -13c-18.667 -22.667 -43.834 -42.167 -75.501 -58.5s-58.5 -24.5 -80.5 -24.5zM271.001 274c0 20 -5.99902 37 -17.999 51s-26.667 21 -44 21c-20.667 0 -37.334 -7.5 -50.001 -22.5s-21 -36.5 -25 -64.5h122c6 0 10 1 12 3s3 6 3 12zM235.002 440
c-34 0 -60.665 13.667 -79.998 41s-31 68.333 -35 123l18 1c5.33301 -40.667 15.666 -70.167 30.999 -88.5s37.333 -27.5 66 -27.5s50.667 9.16699 66 27.5s25.666 47.833 30.999 88.5l18 -1c-4 -54.667 -15.667 -95.667 -35 -123s-46 -41 -80 -41z" />
    <glyph glyph-name="Edotaccent" unicode="&#x116;" horiz-adv-x="534" 
d="M421 385l-0.000976562 -191.999h-19l-22 55c-4 10 -8.66699 16.667 -14 20s-13.333 5 -24 5h-122v-208c0 -16.667 3.66699 -27.667 11 -33s22 -7.33301 44 -6l120 6c16.667 1.33301 29 4.5 37 9.5s14.667 13.833 20 26.5l36 85h19l-12 -153h-460v21l37 7
c14.667 3.33301 24.167 7.5 28.5 12.5s6.5 14.833 6.5 29.5v430c0 14.667 -2.16699 24.5 -6.5 29.5s-13.833 9.16699 -28.5 12.5l-37 7v21h356c13.333 0 24.833 0.833008 34.5 2.5s18.834 4.5 27.501 8.5l9 -3v-141h-19l-20 56c-6 17.333 -12.667 29.166 -20 35.499
s-20.333 9.83301 -39 10.5l-144 4v-238h122c12 0 20.333 1.5 25 4.5s9 9.5 13 19.5l22 56h19zM348.999 686.001c0 -15.333 -5.16699 -28.166 -15.5 -38.499s-22.833 -15.5 -37.5 -15.5c-16 0 -29.167 5.16699 -39.5 15.5s-15.5 23.166 -15.5 38.499s5.33301 28.333 16 39
s23.667 16 39 16c14.667 0 27.167 -5.33301 37.5 -16s15.5 -23.667 15.5 -39z" />
    <glyph glyph-name="edotaccent" unicode="&#x117;" horiz-adv-x="382" 
d="M211 -10c-56 0 -100.999 17 -134.999 51s-51 79.667 -51 137c0 58.667 18.333 105.667 55 141s83 53 139 53c43.333 0 78 -11.333 104 -34s40 -53.667 42 -93l-4 -10h-229v-9c0 -52 11.5 -91.667 34.5 -119s56.167 -41 99.5 -41c16 0 31.833 1.66699 47.5 5
s30.5 8.33301 44.5 15l9 -13c-18.667 -22.667 -43.834 -42.167 -75.501 -58.5s-58.5 -24.5 -80.5 -24.5zM271.001 274c0 20 -5.99902 37 -17.999 51s-26.667 21 -44 21c-20.667 0 -37.334 -7.5 -50.001 -22.5s-21 -36.5 -25 -64.5h122c6 0 10 1 12 3s3 6 3 12zM289.002 530
c0 -15.333 -5.16699 -28.166 -15.5 -38.499s-22.833 -15.5 -37.5 -15.5c-16 0 -29.167 5.16699 -39.5 15.5s-15.5 23.166 -15.5 38.499s5.33301 28.333 16 39s23.667 16 39 16c14.667 0 27.167 -5.33301 37.5 -16s15.5 -23.667 15.5 -39z" />
    <glyph glyph-name="Eogonek" unicode="&#x118;" horiz-adv-x="534" 
d="M421 385v-191.998h-19l-22 55c-4 10 -8.66699 16.667 -14 20s-13.333 5 -24 5h-122v-208c0 -16.667 3.66699 -27.667 11 -33s22 -7.33301 44 -6l120 6c16.667 1.33301 29 4.5 37 9.5s14.667 13.833 20 26.5l36 85h19l-12 -153h-52
c-22.667 -24.667 -39.167 -47.167 -49.5 -67.5s-15.5 -40.5 -15.5 -60.5c0 -18 4.66699 -32 14 -42s22.666 -15 39.999 -15c9.33301 0 18.333 1.66699 27 5s17.667 8.33301 27 15l9 -12c-12 -14.667 -25.5 -25.834 -40.5 -33.501s-30.833 -11.5 -47.5 -11.5
c-24.667 0 -44.5 6.66699 -59.5 20s-22.5 31.333 -22.5 54c0 18 5.16699 36.167 15.5 54.5s36.5 49.5 78.5 93.5h-384v21l37 7c14.667 3.33301 24.167 7.5 28.5 12.5s6.5 14.833 6.5 29.5v430c0 14.667 -2.16699 24.5 -6.5 29.5s-13.833 9.16699 -28.5 12.5l-37 7v21h356
c13.333 0 24.833 0.833008 34.5 2.5s18.834 4.5 27.501 8.5l9 -3v-141h-19l-20 56c-6 17.333 -12.667 29.166 -20 35.499s-20.333 9.83301 -39 10.5l-144 4v-238h122c12 0 20.333 1.5 25 4.5s9 9.5 13 19.5l22 56h19z" />
    <glyph glyph-name="eogonek" unicode="&#x119;" horiz-adv-x="382" 
d="M264 -221c-24.667 0 -44.498 6.66699 -59.498 20s-22.5 31.333 -22.5 54c0 20.667 6.5 42 19.5 64s39.5 52.667 79.5 92c-12.667 -6 -25.334 -10.667 -38.001 -14s-23.334 -5 -32.001 -5c-56 0 -101 17 -135 51s-51 79.667 -51 137c0 58.667 18.333 105.667 55 141
s83 53 139 53c43.333 0 78 -11.333 104 -34s40 -53.667 42 -93l-4 -10h-229v-9c0 -52 11.5 -91.667 34.5 -119s56.167 -41 99.5 -41c16 0 31.833 1.66699 47.5 5s30.5 8.33301 44.5 15l9 -13l-10 -10c-3.33301 -3.33301 -8.33301 -8 -15 -14l-16.5 -16l-12.5 -12
c-21.333 -21.333 -39.666 -46.166 -54.999 -74.499s-23 -52.833 -23 -73.5c0 -18 4.66699 -32 14 -42s22.666 -15 39.999 -15c9.33301 0 18.333 1.66699 27 5s17.667 8.33301 27 15l9 -12c-12 -14.667 -25.5 -25.834 -40.5 -33.501s-30.833 -11.5 -47.5 -11.5zM271.002 274
c0 20 -5.99902 37 -17.999 51s-26.667 21 -44 21c-20.667 0 -37.334 -7.5 -50.001 -22.5s-21 -36.5 -25 -64.5h122c6 0 10 1 12 3s3 6 3 12z" />
    <glyph glyph-name="Ecaron" unicode="&#x11a;" horiz-adv-x="534" 
d="M421 385l-0.000976562 -191.999h-19l-22 55c-4 10 -8.66699 16.667 -14 20s-13.333 5 -24 5h-122v-208c0 -16.667 3.66699 -27.667 11 -33s22 -7.33301 44 -6l120 6c16.667 1.33301 29 4.5 37 9.5s14.667 13.833 20 26.5l36 85h19l-12 -153h-460v21l37 7
c14.667 3.33301 24.167 7.5 28.5 12.5s6.5 14.833 6.5 29.5v430c0 14.667 -2.16699 24.5 -6.5 29.5s-13.833 9.16699 -28.5 12.5l-37 7v21h356c13.333 0 24.833 0.833008 34.5 2.5s18.834 4.5 27.501 8.5l9 -3v-141h-19l-20 56c-6 17.333 -12.667 29.166 -20 35.499
s-20.333 9.83301 -39 10.5l-144 4v-238h122c12 0 20.333 1.5 25 4.5s9 9.5 13 19.5l22 56h19zM383.999 764.001l19 -12l-79 -112c-6 -8.66699 -11.167 -14.5 -15.5 -17.5s-9.5 -4.5 -15.5 -4.5s-11.167 1.5 -15.5 4.5s-9.83301 8.83301 -16.5 17.5l-79 112l19 12l91 -100h1z
" />
    <glyph glyph-name="ecaron" unicode="&#x11b;" horiz-adv-x="382" 
d="M211 -10c-56 0 -100.999 17 -134.999 51s-51 79.667 -51 137c0 58.667 18.333 105.667 55 141s83 53 139 53c43.333 0 78 -11.333 104 -34s40 -53.667 42 -93l-4 -10h-229v-9c0 -52 11.5 -91.667 34.5 -119s56.167 -41 99.5 -41c16 0 31.833 1.66699 47.5 5
s30.5 8.33301 44.5 15l9 -13c-18.667 -22.667 -43.834 -42.167 -75.501 -58.5s-58.5 -24.5 -80.5 -24.5zM271.001 274c0 20 -5.99902 37 -17.999 51s-26.667 21 -44 21c-20.667 0 -37.334 -7.5 -50.001 -22.5s-21 -36.5 -25 -64.5h122c6 0 10 1 12 3s3 6 3 12zM204.002 436
l-85 167l19 10l93 -150h3l93 150l19 -10l-85 -167c-4 -8 -8.16699 -13.5 -12.5 -16.5s-9.83301 -4.5 -16.5 -4.5c-6 0 -11.167 1.5 -15.5 4.5s-8.5 8.5 -12.5 16.5z" />
    <glyph glyph-name="Gcircumflex" unicode="&#x11c;" horiz-adv-x="650" 
d="M364 -10c-99.333 0 -178 25.833 -236 77.5s-87 121.834 -87 210.501s30.667 161.167 92 217.5s139.666 84.5 234.999 84.5c39.333 0 77.333 -5 114 -15s68.334 -23.667 95.001 -41v-114h-18l-15 38c-12.667 33.333 -34.5 59 -65.5 77s-67.833 27 -110.5 27
c-63.333 0 -112.333 -22.667 -147 -68s-52 -109 -52 -191c0 -85.333 17.333 -152.333 52 -201s82 -73 142 -73c21.333 0 41.833 2.16699 61.5 6.5s34.834 10.166 45.501 17.499v132c0 14.667 -2.33301 24.667 -7 30s-14 9 -28 11l-50 7v22h250v-22l-24 -5
c-11.333 -2.66699 -18.833 -6.5 -22.5 -11.5s-5.5 -15.5 -5.5 -31.5v-61c0 -14 0.666992 -25.833 2 -35.5s3.66602 -17.5 6.99902 -23.5l-3 -9c-29.333 -16.667 -64.833 -30.167 -106.5 -40.5s-81.167 -15.5 -118.5 -15.5zM409 741l79 -112l-19 -12l-91 100h-1l-91 -100
l-19 12l79 112c6 8.66699 11.167 14.5 15.5 17.5s9.5 4.5 15.5 4.5s11.167 -1.5 15.5 -4.5s9.83301 -8.83301 16.5 -17.5z" />
    <glyph glyph-name="gcircumflex" unicode="&#x11d;" horiz-adv-x="429" 
d="M367 233c0 -38.667 -15.4971 -70.4971 -46.4971 -95.4971s-69.167 -37.5 -114.5 -37.5c-12 0 -23.833 0.833008 -35.5 2.5s-22.834 4.16699 -33.501 7.5c-12.667 -13.333 -21.167 -23.333 -25.5 -30s-6.5 -13.334 -6.5 -20.001c0 -10.667 3.83301 -19.334 11.5 -26.001
s18.167 -10 31.5 -10h163c36 0 63.833 -9 83.5 -27s29.5 -43 29.5 -75c0 -56 -24.833 -103.667 -74.5 -143s-108.834 -59 -177.501 -59c-43.333 0 -79.5 10.833 -108.5 32.5s-43.5 48.5 -43.5 80.5c0 10.667 4 20.667 12 30s32.333 32.333 73 69
c-23.333 4 -42.166 13.333 -56.499 28s-21.5 32.667 -21.5 54c0 9.33301 6 21.166 18 35.499s34.333 37.833 67 70.5c-25.333 11.333 -44.833 26.666 -58.5 45.999s-20.5 41.333 -20.5 66c0 40.667 16.667 74.167 50 100.5s73.666 39.5 120.999 39.5
c8 0 16.5 -0.666992 25.5 -2s17.833 -3.33301 26.5 -6c13.333 -3.33301 24.166 -5.66602 32.499 -6.99902s16.833 -2 25.5 -2h111v-46h-89c10 -11.333 17.667 -23.333 23 -36s8 -26 8 -40zM137.003 237.003c0 -33.333 6.16699 -60.501 18.5 -81.501s28.833 -31.5 49.5 -31.5
s36 8.83301 46 26.5s15 45.5 15 83.5c0 34 -6 61.5 -18 82.5s-28 31.5 -48 31.5s-35.5 -9.66699 -46.5 -29s-16.5 -46.666 -16.5 -81.999zM108.003 -133.998c0 -32.667 10.001 -58.167 30.001 -76.5s48 -27.5 84 -27.5c38 0 69.833 10 95.5 30s38.5 45 38.5 75
c0 20 -5.83301 35.667 -17.5 47s-27.834 17 -48.501 17h-157c-8.66699 -10 -15 -20.333 -19 -31s-6 -22 -6 -34zM251.004 592.002l90 -167l-19 -10l-98 147h-3l-98 -147l-19 10l90 167c4 8 8.16699 13.5 12.5 16.5s9.83301 4.5 16.5 4.5c6 0 11.167 -1.5 15.5 -4.5
s8.5 -8.5 12.5 -16.5z" />
    <glyph glyph-name="Gbreve" unicode="&#x11e;" horiz-adv-x="650" 
d="M364 -10c-99.333 0 -178 25.833 -236 77.5s-87 121.834 -87 210.501s30.667 161.167 92 217.5s139.666 84.5 234.999 84.5c39.333 0 77.333 -5 114 -15s68.334 -23.667 95.001 -41v-114h-18l-15 38c-12.667 33.333 -34.5 59 -65.5 77s-67.833 27 -110.5 27
c-63.333 0 -112.333 -22.667 -147 -68s-52 -109 -52 -191c0 -85.333 17.333 -152.333 52 -201s82 -73 142 -73c21.333 0 41.833 2.16699 61.5 6.5s34.834 10.166 45.501 17.499v132c0 14.667 -2.33301 24.667 -7 30s-14 9 -28 11l-50 7v22h250v-22l-24 -5
c-11.333 -2.66699 -18.833 -6.5 -22.5 -11.5s-5.5 -15.5 -5.5 -31.5v-61c0 -14 0.666992 -25.833 2 -35.5s3.66602 -17.5 6.99902 -23.5l-3 -9c-29.333 -16.667 -64.833 -30.167 -106.5 -40.5s-81.167 -15.5 -118.5 -15.5zM380 616c-32.667 0 -57.8291 10.667 -75.4961 32
s-27.834 53.333 -30.501 96l18 1c4.66699 -26.667 14.167 -46.667 28.5 -60s34.166 -20 59.499 -20c26 0 46 6.33301 60 19s23.333 33 28 61l18 -1c-2.66699 -42.667 -12.834 -74.667 -30.501 -96s-42.834 -32 -75.501 -32z" />
    <glyph glyph-name="gbreve" unicode="&#x11f;" horiz-adv-x="429" 
d="M367 233c0 -38.667 -15.4971 -70.4971 -46.4971 -95.4971s-69.167 -37.5 -114.5 -37.5c-12 0 -23.833 0.833008 -35.5 2.5s-22.834 4.16699 -33.501 7.5c-12.667 -13.333 -21.167 -23.333 -25.5 -30s-6.5 -13.334 -6.5 -20.001c0 -10.667 3.83301 -19.334 11.5 -26.001
s18.167 -10 31.5 -10h163c36 0 63.833 -9 83.5 -27s29.5 -43 29.5 -75c0 -56 -24.833 -103.667 -74.5 -143s-108.834 -59 -177.501 -59c-43.333 0 -79.5 10.833 -108.5 32.5s-43.5 48.5 -43.5 80.5c0 10.667 4 20.667 12 30s32.333 32.333 73 69
c-23.333 4 -42.166 13.333 -56.499 28s-21.5 32.667 -21.5 54c0 9.33301 6 21.166 18 35.499s34.333 37.833 67 70.5c-25.333 11.333 -44.833 26.666 -58.5 45.999s-20.5 41.333 -20.5 66c0 40.667 16.667 74.167 50 100.5s73.666 39.5 120.999 39.5
c8 0 16.5 -0.666992 25.5 -2s17.833 -3.33301 26.5 -6c13.333 -3.33301 24.166 -5.66602 32.499 -6.99902s16.833 -2 25.5 -2h111v-46h-89c10 -11.333 17.667 -23.333 23 -36s8 -26 8 -40zM137.003 237.003c0 -33.333 6.16699 -60.501 18.5 -81.501s28.833 -31.5 49.5 -31.5
s36 8.83301 46 26.5s15 45.5 15 83.5c0 34 -6 61.5 -18 82.5s-28 31.5 -48 31.5s-35.5 -9.66699 -46.5 -29s-16.5 -46.666 -16.5 -81.999zM108.003 -133.998c0 -32.667 10.001 -58.167 30.001 -76.5s48 -27.5 84 -27.5c38 0 69.833 10 95.5 30s38.5 45 38.5 75
c0 20 -5.83301 35.667 -17.5 47s-27.834 17 -48.501 17h-157c-8.66699 -10 -15 -20.333 -19 -31s-6 -22 -6 -34zM225.004 440.002c-34 0 -60.665 13.667 -79.998 41s-31 68.333 -35 123l18 1c5.33301 -40.667 15.666 -70.167 30.999 -88.5s37.333 -27.5 66 -27.5
s50.667 9.16699 66 27.5s25.666 47.833 30.999 88.5l18 -1c-4 -54.667 -15.667 -95.667 -35 -123s-46 -41 -80 -41z" />
    <glyph glyph-name="Gdotaccent" unicode="&#x120;" horiz-adv-x="650" 
d="M364 -10c-99.333 0 -178 25.833 -236 77.5s-87 121.834 -87 210.501s30.667 161.167 92 217.5s139.666 84.5 234.999 84.5c39.333 0 77.333 -5 114 -15s68.334 -23.667 95.001 -41v-114h-18l-15 38c-12.667 33.333 -34.5 59 -65.5 77s-67.833 27 -110.5 27
c-63.333 0 -112.333 -22.667 -147 -68s-52 -109 -52 -191c0 -85.333 17.333 -152.333 52 -201s82 -73 142 -73c21.333 0 41.833 2.16699 61.5 6.5s34.834 10.166 45.501 17.499v132c0 14.667 -2.33301 24.667 -7 30s-14 9 -28 11l-50 7v22h250v-22l-24 -5
c-11.333 -2.66699 -18.833 -6.5 -22.5 -11.5s-5.5 -15.5 -5.5 -31.5v-61c0 -14 0.666992 -25.833 2 -35.5s3.66602 -17.5 6.99902 -23.5l-3 -9c-29.333 -16.667 -64.833 -30.167 -106.5 -40.5s-81.167 -15.5 -118.5 -15.5zM434 686
c0 -15.333 -5.16699 -28.166 -15.5 -38.499s-22.833 -15.5 -37.5 -15.5c-16 0 -29.167 5.16699 -39.5 15.5s-15.5 23.166 -15.5 38.499s5.33301 28.333 16 39s23.667 16 39 16c14.667 0 27.167 -5.33301 37.5 -16s15.5 -23.667 15.5 -39z" />
    <glyph glyph-name="gdotaccent" unicode="&#x121;" horiz-adv-x="429" 
d="M367 233c0 -38.667 -15.4971 -70.4971 -46.4971 -95.4971s-69.167 -37.5 -114.5 -37.5c-12 0 -23.833 0.833008 -35.5 2.5s-22.834 4.16699 -33.501 7.5c-12.667 -13.333 -21.167 -23.333 -25.5 -30s-6.5 -13.334 -6.5 -20.001c0 -10.667 3.83301 -19.334 11.5 -26.001
s18.167 -10 31.5 -10h163c36 0 63.833 -9 83.5 -27s29.5 -43 29.5 -75c0 -56 -24.833 -103.667 -74.5 -143s-108.834 -59 -177.501 -59c-43.333 0 -79.5 10.833 -108.5 32.5s-43.5 48.5 -43.5 80.5c0 10.667 4 20.667 12 30s32.333 32.333 73 69
c-23.333 4 -42.166 13.333 -56.499 28s-21.5 32.667 -21.5 54c0 9.33301 6 21.166 18 35.499s34.333 37.833 67 70.5c-25.333 11.333 -44.833 26.666 -58.5 45.999s-20.5 41.333 -20.5 66c0 40.667 16.667 74.167 50 100.5s73.666 39.5 120.999 39.5
c8 0 16.5 -0.666992 25.5 -2s17.833 -3.33301 26.5 -6c13.333 -3.33301 24.166 -5.66602 32.499 -6.99902s16.833 -2 25.5 -2h111v-46h-89c10 -11.333 17.667 -23.333 23 -36s8 -26 8 -40zM137.003 237.003c0 -33.333 6.16699 -60.501 18.5 -81.501s28.833 -31.5 49.5 -31.5
s36 8.83301 46 26.5s15 45.5 15 83.5c0 34 -6 61.5 -18 82.5s-28 31.5 -48 31.5s-35.5 -9.66699 -46.5 -29s-16.5 -46.666 -16.5 -81.999zM108.003 -133.998c0 -32.667 10.001 -58.167 30.001 -76.5s48 -27.5 84 -27.5c38 0 69.833 10 95.5 30s38.5 45 38.5 75
c0 20 -5.83301 35.667 -17.5 47s-27.834 17 -48.501 17h-157c-8.66699 -10 -15 -20.333 -19 -31s-6 -22 -6 -34zM279.004 530.002c0 -15.333 -5.16699 -28.166 -15.5 -38.499s-22.833 -15.5 -37.5 -15.5c-16 0 -29.167 5.16699 -39.5 15.5s-15.5 23.166 -15.5 38.499
s5.33301 28.333 16 39s23.667 16 39 16c14.667 0 27.167 -5.33301 37.5 -16s15.5 -23.667 15.5 -39z" />
    <glyph glyph-name="Gcommaaccent" unicode="&#x122;" horiz-adv-x="650" 
d="M364 -10c-99.333 0 -178 25.833 -236 77.5s-87 121.834 -87 210.501s30.667 161.167 92 217.5s139.666 84.5 234.999 84.5c39.333 0 77.333 -5 114 -15s68.334 -23.667 95.001 -41v-114h-18l-15 38c-12.667 33.333 -34.5 59 -65.5 77s-67.833 27 -110.5 27
c-63.333 0 -112.333 -22.667 -147 -68s-52 -109 -52 -191c0 -85.333 17.333 -152.333 52 -201s82 -73 142 -73c21.333 0 41.833 2.16699 61.5 6.5s34.834 10.166 45.501 17.499v132c0 14.667 -2.33301 24.667 -7 30s-14 9 -28 11l-50 7v22h250v-22l-24 -5
c-11.333 -2.66699 -18.833 -6.5 -22.5 -11.5s-5.5 -15.5 -5.5 -31.5v-61c0 -14 0.666992 -25.833 2 -35.5s3.66602 -17.5 6.99902 -23.5l-3 -9c-29.333 -16.667 -64.833 -30.167 -106.5 -40.5s-81.167 -15.5 -118.5 -15.5zM423 -118
c0 -30.667 -10.499 -56.332 -31.499 -76.999s-53.5 -36.667 -97.5 -48l-6 20c36 12 60.833 23.333 74.5 34s20.5 23.667 20.5 39c0 11.333 -4.83301 21.166 -14.5 29.499s-29.834 18.5 -60.501 30.5c6.66699 17.333 13.667 28.833 21 34.5s17.333 8.5 30 8.5
c18.667 0 34 -6.5 46 -19.5s18 -30.167 18 -51.5z" />
    <glyph glyph-name="gcommaaccent" unicode="&#x123;" horiz-adv-x="429" 
d="M367 233c0 -38.667 -15.4971 -70.4971 -46.4971 -95.4971s-69.167 -37.5 -114.5 -37.5c-12 0 -23.833 0.833008 -35.5 2.5s-22.834 4.16699 -33.501 7.5c-12.667 -13.333 -21.167 -23.333 -25.5 -30s-6.5 -13.334 -6.5 -20.001c0 -10.667 3.83301 -19.334 11.5 -26.001
s18.167 -10 31.5 -10h163c36 0 63.833 -9 83.5 -27s29.5 -43 29.5 -75c0 -56 -24.833 -103.667 -74.5 -143s-108.834 -59 -177.501 -59c-43.333 0 -79.5 10.833 -108.5 32.5s-43.5 48.5 -43.5 80.5c0 10.667 4 20.667 12 30s32.333 32.333 73 69
c-23.333 4 -42.166 13.333 -56.499 28s-21.5 32.667 -21.5 54c0 9.33301 6 21.166 18 35.499s34.333 37.833 67 70.5c-25.333 11.333 -44.833 26.666 -58.5 45.999s-20.5 41.333 -20.5 66c0 40.667 16.667 74.167 50 100.5s73.666 39.5 120.999 39.5
c8 0 16.5 -0.666992 25.5 -2s17.833 -3.33301 26.5 -6c13.333 -3.33301 24.166 -5.66602 32.499 -6.99902s16.833 -2 25.5 -2h111v-46h-89c10 -11.333 17.667 -23.333 23 -36s8 -26 8 -40zM137.003 237.003c0 -33.333 6.16699 -60.501 18.5 -81.501s28.833 -31.5 49.5 -31.5
s36 8.83301 46 26.5s15 45.5 15 83.5c0 34 -6 61.5 -18 82.5s-28 31.5 -48 31.5s-35.5 -9.66699 -46.5 -29s-16.5 -46.666 -16.5 -81.999zM108.003 -133.998c0 -32.667 10.001 -58.167 30.001 -76.5s48 -27.5 84 -27.5c38 0 69.833 10 95.5 30s38.5 45 38.5 75
c0 20 -5.83301 35.667 -17.5 47s-27.834 17 -48.501 17h-157c-8.66699 -10 -15 -20.333 -19 -31s-6 -22 -6 -34zM158.004 497.002c0 30.667 10.499 56.332 31.499 76.999s53.5 36.667 97.5 48l6 -20c-36 -12 -60.833 -23.333 -74.5 -34s-20.5 -23.667 -20.5 -39
c0 -11.333 4.83301 -21.166 14.5 -29.499s29.834 -18.5 60.501 -30.5c-6.66699 -17.333 -13.667 -28.833 -21 -34.5s-17.333 -8.5 -30 -8.5c-18.667 0 -34 6.5 -46 19.5s-18 30.167 -18 51.5z" />
    <glyph glyph-name="Hcircumflex" unicode="&#x124;" horiz-adv-x="712" 
d="M292 21v-21h-257v21l37 7c14.667 3.33301 24.167 7.5 28.5 12.5s6.5 14.833 6.5 29.5v430c0 14.667 -2.16699 24.5 -6.5 29.5s-13.833 9.16699 -28.5 12.5l-37 7v21h257v-21l-37 -7c-14.667 -3.33301 -24.167 -7.5 -28.5 -12.5s-6.5 -14.833 -6.5 -29.5v-187h272v187
c0 14.667 -2.16699 24.5 -6.5 29.5s-13.833 9.16699 -28.5 12.5l-37 7v21h257v-21l-37 -7c-14.667 -3.33301 -24.167 -7.5 -28.5 -12.5s-6.5 -14.833 -6.5 -29.5v-430c0 -14.667 2.16699 -24.5 6.5 -29.5s13.833 -9.16699 28.5 -12.5l37 -7v-21h-257v21l37 7
c14.667 3.33301 24.167 7.5 28.5 12.5s6.5 14.833 6.5 29.5v211h-272v-211c0 -14.667 2.16699 -24.5 6.5 -29.5s13.833 -9.16699 28.5 -12.5zM395 741l79 -112l-19 -12l-91 100h-1l-91 -100l-19 12l79 112c6 8.66699 11.167 14.5 15.5 17.5s9.5 4.5 15.5 4.5
s11.167 -1.5 15.5 -4.5s9.83301 -8.83301 16.5 -17.5z" />
    <glyph glyph-name="hcircumflex" unicode="&#x125;" horiz-adv-x="474" 
d="M229 17v-17.001h-203v17l25 7c10 2.66699 16.5 6.16699 19.5 10.5s4.5 12.166 4.5 23.499v516c0 10 -1.16699 17.167 -3.5 21.5s-8.16602 8.83301 -17.499 13.5l-18 10v14l138 47l11 -7c-2 -12 -3.33301 -23.833 -4 -35.5s-1 -29.167 -1 -52.5v-267
c18 14.667 38.167 27.334 60.5 38.001s40.5 16 54.5 16c38.667 0 68.5 -10.667 89.5 -32s31.5 -52 31.5 -92v-190c0 -11.333 1.5 -19.166 4.5 -23.499s9.5 -7.83301 19.5 -10.5l25 -7v-17h-203v17l25 7c10 2.66699 16.5 6.16699 19.5 10.5s4.5 12.166 4.5 23.499v169
c0 28 -5.5 48.833 -16.5 62.5s-27.5 20.5 -49.5 20.5c-10.667 0 -21.334 -1.5 -32.001 -4.5s-21.667 -7.83301 -33 -14.5v-233c0 -11.333 1.5 -19.166 4.5 -23.499s9.5 -7.83301 19.5 -10.5zM156 845.999l79 -112l-19 -12l-91 100h-1l-91 -100l-19 12l79 112
c6 8.66699 11.167 14.5 15.5 17.5s9.5 4.5 15.5 4.5s11.167 -1.5 15.5 -4.5s9.83301 -8.83301 16.5 -17.5z" />
    <glyph glyph-name="Hbar" unicode="&#x126;" horiz-adv-x="712" 
d="M292 21v-21h-257v21l37 7c14.667 3.33301 24.167 7.5 28.5 12.5s6.5 14.833 6.5 29.5v341h-72v30h72v59c0 14.667 -2.16699 24.5 -6.5 29.5s-13.833 9.16699 -28.5 12.5l-37 7v21h257v-21l-37 -7c-14.667 -3.33301 -24.167 -7.5 -28.5 -12.5s-6.5 -14.833 -6.5 -29.5v-59
h272v59c0 14.667 -2.16699 24.5 -6.5 29.5s-13.833 9.16699 -28.5 12.5l-37 7v21h257v-21l-37 -7c-14.667 -3.33301 -24.167 -7.5 -28.5 -12.5s-6.5 -14.833 -6.5 -29.5v-59h72v-30h-72v-341c0 -14.667 2.16699 -24.5 6.5 -29.5s13.833 -9.16699 28.5 -12.5l37 -7v-21h-257
v21l37 7c14.667 3.33301 24.167 7.5 28.5 12.5s6.5 14.833 6.5 29.5v211h-272v-211c0 -14.667 2.16699 -24.5 6.5 -29.5s13.833 -9.16699 28.5 -12.5zM220 411v-98h272v98h-272z" />
    <glyph glyph-name="hbar" unicode="&#x127;" horiz-adv-x="462" 
d="M217 17v-17.001h-203v17l25 7c10 2.66699 16.5 6.16699 19.5 10.5s4.5 12.166 4.5 23.499v430h-49v28h49v58c0 10 -1.16699 17.167 -3.5 21.5s-8.16602 8.83301 -17.499 13.5l-18 10v14l138 47l11 -7c-2 -12 -3.33301 -23.833 -4 -35.5s-1 -29.167 -1 -52.5v-69h108v-28
h-108v-170c18 14.667 38.167 27.334 60.5 38.001s40.5 16 54.5 16c38.667 0 68.5 -10.667 89.5 -32s31.5 -52 31.5 -92v-190c0 -11.333 1.5 -19.166 4.5 -23.499s9.5 -7.83301 19.5 -10.5l25 -7v-17h-203v17l25 7c10 2.66699 16.5 6.16699 19.5 10.5s4.5 12.166 4.5 23.499
v169c0 28 -5.5 48.833 -16.5 62.5s-27.5 20.5 -49.5 20.5c-10.667 0 -21.334 -1.5 -32.001 -4.5s-21.667 -7.83301 -33 -14.5v-233c0 -11.333 1.5 -19.166 4.5 -23.499s9.5 -7.83301 19.5 -10.5z" />
    <glyph glyph-name="Itilde" unicode="&#x128;" horiz-adv-x="327" 
d="M292 21v-21h-257v21l37 7c14.667 3.33301 24.167 7.5 28.5 12.5s6.5 14.833 6.5 29.5v430c0 14.667 -2.16699 24.5 -6.5 29.5s-13.833 9.16699 -28.5 12.5l-37 7v21h257v-21l-37 -7c-14.667 -3.33301 -24.167 -7.5 -28.5 -12.5s-6.5 -14.833 -6.5 -29.5v-430
c0 -14.667 2.16699 -24.5 6.5 -29.5s13.833 -9.16699 28.5 -12.5zM217 649c-6 0 -12.999 1.33301 -20.999 4s-20.667 8 -38 16c-15.333 8 -26.5 13.167 -33.5 15.5s-12.833 3.5 -17.5 3.5c-8 0 -14.5 -2 -19.5 -6s-9.83301 -11 -14.5 -21l-18 -39l-18 7l20 50
c9.33301 22 18.333 36.667 27 44s19.667 11 33 11c5.33301 0 12 -1.33301 20 -4s20.667 -8 38 -16c16 -8 27.5 -13.167 34.5 -15.5s12.833 -3.5 17.5 -3.5c8 0 14.5 2 19.5 6s9.83301 11 14.5 21l18 38l18 -7l-20 -49c-8.66699 -22 -17.334 -36.667 -26.001 -44
s-20 -11 -34 -11z" />
    <glyph glyph-name="itilde" unicode="&#x129;" horiz-adv-x="234" 
d="M223 17l-0.000976562 -17h-208v17l27 7c10 2.66699 16.5 6.16699 19.5 10.5s4.5 12.166 4.5 23.499v208c0 10 -1.16699 17.167 -3.5 21.5s-8.16602 8.83301 -17.499 13.5l-18 10v14l138 47l11 -7c-2 -12 -3.33301 -23.833 -4 -35.5s-1 -29.167 -1 -52.5v-219
c0 -11.333 1.5 -19.166 4.5 -23.499s9.5 -7.83301 19.5 -10.5zM190.999 479c-6.66699 0 -14.5 1 -23.5 3s-23.5 6.33301 -43.5 13c-18 6 -31 9.83301 -39 11.5s-14.667 2.5 -20 2.5c-9.33301 0 -16.5 -1.83301 -21.5 -5.5s-9.83301 -10.5 -14.5 -20.5l-22 -48l-18 5l25 61
c9.33301 23.333 17.666 38.333 24.999 45s17 10 29 10c6.66699 0 14.5 -1 23.5 -3s23.5 -6.33301 43.5 -13c18 -6 31 -9.83301 39 -11.5s14.667 -2.5 20 -2.5c8.66699 0 15.5 1.66699 20.5 5s10.167 10.333 15.5 21l22 47l17 -6l-24 -59
c-9.33301 -23.333 -17.666 -38.333 -24.999 -45s-17 -10 -29 -10z" />
    <glyph glyph-name="Imacron" unicode="&#x12a;" horiz-adv-x="327" 
d="M292 21v-21h-257v21l37 7c14.667 3.33301 24.167 7.5 28.5 12.5s6.5 14.833 6.5 29.5v430c0 14.667 -2.16699 24.5 -6.5 29.5s-13.833 9.16699 -28.5 12.5l-37 7v21h257v-21l-37 -7c-14.667 -3.33301 -24.167 -7.5 -28.5 -12.5s-6.5 -14.833 -6.5 -29.5v-430
c0 -14.667 2.16699 -24.5 6.5 -29.5s13.833 -9.16699 28.5 -12.5zM292 676h-256v37h256v-37z" />
    <glyph glyph-name="imacron" unicode="&#x12b;" horiz-adv-x="234" 
d="M223 17l-0.000976562 -17h-208v17l27 7c10 2.66699 16.5 6.16699 19.5 10.5s4.5 12.166 4.5 23.499v208c0 10 -1.16699 17.167 -3.5 21.5s-8.16602 8.83301 -17.499 13.5l-18 10v14l138 47l11 -7c-2 -12 -3.33301 -23.833 -4 -35.5s-1 -29.167 -1 -52.5v-219
c0 -11.333 1.5 -19.166 4.5 -23.499s9.5 -7.83301 19.5 -10.5zM250.999 505h-254v37h254v-37z" />
    <glyph glyph-name="Ibreve" unicode="&#x12c;" horiz-adv-x="327" 
d="M292 21v-21h-257v21l37 7c14.667 3.33301 24.167 7.5 28.5 12.5s6.5 14.833 6.5 29.5v430c0 14.667 -2.16699 24.5 -6.5 29.5s-13.833 9.16699 -28.5 12.5l-37 7v21h257v-21l-37 -7c-14.667 -3.33301 -24.167 -7.5 -28.5 -12.5s-6.5 -14.833 -6.5 -29.5v-430
c0 -14.667 2.16699 -24.5 6.5 -29.5s13.833 -9.16699 28.5 -12.5zM164 616c-32.667 0 -57.8291 10.667 -75.4961 32s-27.834 53.333 -30.501 96l18 1c4.66699 -26.667 14.167 -46.667 28.5 -60s34.166 -20 59.499 -20c26 0 46 6.33301 60 19s23.333 33 28 61l18 -1
c-2.66699 -42.667 -12.834 -74.667 -30.501 -96s-42.834 -32 -75.501 -32z" />
    <glyph glyph-name="ibreve" unicode="&#x12d;" horiz-adv-x="234" 
d="M223 17l-0.000976562 -17h-208v17l27 7c10 2.66699 16.5 6.16699 19.5 10.5s4.5 12.166 4.5 23.499v208c0 10 -1.16699 17.167 -3.5 21.5s-8.16602 8.83301 -17.499 13.5l-18 10v14l138 47l11 -7c-2 -12 -3.33301 -23.833 -4 -35.5s-1 -29.167 -1 -52.5v-219
c0 -11.333 1.5 -19.166 4.5 -23.499s9.5 -7.83301 19.5 -10.5zM123.999 440c-34 0 -60.665 13.667 -79.998 41s-31 68.333 -35 123l18 1c5.33301 -40.667 15.666 -70.167 30.999 -88.5s37.333 -27.5 66 -27.5s50.667 9.16699 66 27.5s25.666 47.833 30.999 88.5l18 -1
c-4 -54.667 -15.667 -95.667 -35 -123s-46 -41 -80 -41z" />
    <glyph glyph-name="Iogonek" unicode="&#x12e;" horiz-adv-x="327" 
d="M165 -221c-24.667 0 -44.498 6.66797 -59.498 20.001s-22.5 31.333 -22.5 54c0 17.333 5.16699 35.333 15.5 54s36.166 49.667 77.499 93h-141v21l37 7c14.667 3.33301 24.167 7.5 28.5 12.5s6.5 14.833 6.5 29.5v430c0 14.667 -2.16699 24.5 -6.5 29.5
s-13.833 9.16699 -28.5 12.5l-37 7v21h257v-21l-37 -7c-14.667 -3.33301 -24.167 -7.5 -28.5 -12.5s-6.5 -14.833 -6.5 -29.5v-430c0 -14.667 2.16699 -24.5 6.5 -29.5s13.833 -9.16699 28.5 -12.5l37 -7v-21h-92c-22 -24.667 -38.167 -47 -48.5 -67s-15.5 -40 -15.5 -60
c0 -18 4.66699 -32 14 -42s22.666 -15 39.999 -15c9.33301 0 18.333 1.66699 27 5s17.667 8.33301 27 15l9 -12c-12 -14.667 -25.5 -25.834 -40.5 -33.501s-30.833 -11.5 -47.5 -11.5z" />
    <glyph glyph-name="iogonek" unicode="&#x12f;" horiz-adv-x="234" 
d="M181 530c0 -15.333 -5.16699 -28.166 -15.5 -38.499s-22.833 -15.5 -37.5 -15.5c-16 0 -29.167 5.16699 -39.5 15.5s-15.5 23.166 -15.5 38.499s5.33301 28.333 16 39s23.667 16 39 16c14.667 0 27.167 -5.33301 37.5 -16s15.5 -23.667 15.5 -39zM220 17
l0.000976562 -16.999h-55c-22 -24.667 -38.167 -47 -48.5 -67s-15.5 -40 -15.5 -60c0 -18 4.66699 -32 14 -42s22.666 -15 39.999 -15c9.33301 0 18.333 1.66699 27 5s17.667 8.33301 27 15l9 -12c-12 -14.667 -25.5 -25.834 -40.5 -33.501s-30.833 -11.5 -47.5 -11.5
c-24.667 0 -44.5 6.66699 -59.5 20s-22.5 31.333 -22.5 54c0 17.333 5.16699 35.333 15.5 54s36.166 49.667 77.499 93h-124v17l25 7c10 2.66699 16.5 6.16699 19.5 10.5s4.5 12.166 4.5 23.499v208c0 10 -1.16699 17.167 -3.5 21.5s-8.16602 8.83301 -17.499 13.5l-18 10
v14l138 47l11 -7c-2 -12 -3.33301 -23.833 -4 -35.5s-1 -29.167 -1 -52.5v-219c0 -11.333 1.5 -19.166 4.5 -23.499s9.5 -7.83301 19.5 -10.5z" />
    <glyph glyph-name="Idotaccent" unicode="&#x130;" horiz-adv-x="327" 
d="M292 21v-21h-257v21l37 7c14.667 3.33301 24.167 7.5 28.5 12.5s6.5 14.833 6.5 29.5v430c0 14.667 -2.16699 24.5 -6.5 29.5s-13.833 9.16699 -28.5 12.5l-37 7v21h257v-21l-37 -7c-14.667 -3.33301 -24.167 -7.5 -28.5 -12.5s-6.5 -14.833 -6.5 -29.5v-430
c0 -14.667 2.16699 -24.5 6.5 -29.5s13.833 -9.16699 28.5 -12.5zM218 686c0 -15.333 -5.16699 -28.166 -15.5 -38.499s-22.833 -15.5 -37.5 -15.5c-16 0 -29.167 5.16699 -39.5 15.5s-15.5 23.166 -15.5 38.499s5.33301 28.333 16 39s23.667 16 39 16
c14.667 0 27.167 -5.33301 37.5 -16s15.5 -23.667 15.5 -39z" />
    <glyph glyph-name="dotlessi" unicode="&#x131;" horiz-adv-x="234" 
d="M223 17l-0.000976562 -17h-208v17l27 7c10 2.66699 16.5 6.16699 19.5 10.5s4.5 12.166 4.5 23.499v208c0 10 -1.16699 17.167 -3.5 21.5s-8.16602 8.83301 -17.499 13.5l-18 10v14l138 47l11 -7c-2 -12 -3.33301 -23.833 -4 -35.5s-1 -29.167 -1 -52.5v-219
c0 -11.333 1.5 -19.166 4.5 -23.499s9.5 -7.83301 19.5 -10.5z" />
    <glyph glyph-name="IJ" unicode="&#x132;" horiz-adv-x="654" 
d="M292 21v-21h-257v21l37 7c14.667 3.33301 24.167 7.5 28.5 12.5s6.5 14.833 6.5 29.5v430c0 14.667 -2.16699 24.5 -6.5 29.5s-13.833 9.16699 -28.5 12.5l-37 7v21h257v-21l-37 -7c-14.667 -3.33301 -24.167 -7.5 -28.5 -12.5s-6.5 -14.833 -6.5 -29.5v-430
c0 -14.667 2.16699 -24.5 6.5 -29.5s13.833 -9.16699 28.5 -12.5zM352 -172l-9.99902 20c37.333 25.333 62 48.5 74 69.5s18 48.167 18 81.5v501c0 14.667 -2.16699 24.5 -6.5 29.5s-13.833 9.16699 -28.5 12.5l-37 7v21h257v-21l-37 -7
c-14.667 -3.33301 -24.167 -7.5 -28.5 -12.5s-6.5 -14.833 -6.5 -29.5v-467c0 -40 -13.333 -74.5 -40 -103.5s-78.334 -62.833 -155.001 -101.5z" />
    <glyph glyph-name="ij" unicode="&#x133;" horiz-adv-x="468" 
d="M181 530c0 -15.333 -5.16699 -28.166 -15.5 -38.499s-22.833 -15.5 -37.5 -15.5c-16 0 -29.167 5.16699 -39.5 15.5s-15.5 23.166 -15.5 38.499s5.33301 28.333 16 39s23.667 16 39 16c14.667 0 27.167 -5.33301 37.5 -16s15.5 -23.667 15.5 -39zM220 17
l-0.000976562 -17h-203v17l25 7c10 2.66699 16.5 6.16699 19.5 10.5s4.5 12.166 4.5 23.499v208c0 10 -1.16699 17.167 -3.5 21.5s-8.16602 8.83301 -17.499 13.5l-18 10v14l138 47l11 -7c-2 -12 -3.33301 -23.833 -4 -35.5s-1 -29.167 -1 -52.5v-219
c0 -11.333 1.5 -19.166 4.5 -23.499s9.5 -7.83301 19.5 -10.5zM418.999 530c0 -15.333 -5.16699 -28.166 -15.5 -38.499s-22.833 -15.5 -37.5 -15.5c-16 0 -29.167 5.16699 -39.5 15.5s-15.5 23.166 -15.5 38.499s5.33301 28.333 16 39s23.667 16 39 16
c14.667 0 27.167 -5.33301 37.5 -16s15.5 -23.667 15.5 -39zM404.999 277l-0.000976562 -334.001c0 -26.667 -12.833 -52.667 -38.5 -78s-65.167 -50.666 -118.5 -75.999l-10 18c24 16.667 40.333 34.167 49 52.5s13 42.833 13 73.5v333c0 10 -1.16699 17.167 -3.5 21.5
s-8.16602 8.83301 -17.499 13.5l-18 10v14l138 47l11 -7c-2 -12 -3.33301 -23.833 -4 -35.5s-1 -29.167 -1 -52.5z" />
    <glyph glyph-name="Jcircumflex" unicode="&#x134;" horiz-adv-x="327" 
d="M25 -172l-9.99902 20c37.333 25.333 62 48.5 74 69.5s18 48.167 18 81.5v501c0 14.667 -2.16699 24.5 -6.5 29.5s-13.833 9.16699 -28.5 12.5l-37 7v21h257v-21l-37 -7c-14.667 -3.33301 -24.167 -7.5 -28.5 -12.5s-6.5 -14.833 -6.5 -29.5v-467
c0 -40 -13.333 -74.5 -40 -103.5s-78.334 -62.833 -155.001 -101.5zM195.001 741l79 -112l-19 -12l-91 100h-1l-91 -100l-19 12l79 112c6 8.66699 11.167 14.5 15.5 17.5s9.5 4.5 15.5 4.5s11.167 -1.5 15.5 -4.5s9.83301 -8.83301 16.5 -17.5z" />
    <glyph glyph-name="jcircumflex" unicode="&#x135;" horiz-adv-x="226" 
d="M167 277l-0.000976562 -323.001c0 -26.667 -12.833 -52.667 -38.5 -78s-65.167 -50.666 -118.5 -75.999l-10 18c24 16.667 40.333 34.167 49 52.5s13 42.833 13 73.5v322c0 10 -1.16699 17.167 -3.5 21.5s-8.16602 8.83301 -17.499 13.5l-18 10v14l138 47l11 -7
c-2 -12 -3.33301 -23.833 -4 -35.5s-1 -29.167 -1 -52.5zM157.999 591.999l90 -167l-19 -10l-98 147h-3l-98 -147l-19 10l90 167c4 8 8.16699 13.5 12.5 16.5s9.83301 4.5 16.5 4.5c6 0 11.167 -1.5 15.5 -4.5s8.5 -8.5 12.5 -16.5z" />
    <glyph glyph-name="Kcommaaccent" unicode="&#x136;" horiz-adv-x="639" 
d="M292 21v-20.999h-257v21l37 7c14.667 3.33301 24.167 7.5 28.5 12.5s6.5 14.833 6.5 29.5v430c0 14.667 -2.16699 24.5 -6.5 29.5s-13.833 9.16699 -28.5 12.5l-37 7v21h257v-21l-37 -7c-14.667 -3.33301 -24.167 -7.5 -28.5 -12.5s-6.5 -14.833 -6.5 -29.5v-197l224 210
c8 8 11 14.333 9 19s-9 8 -21 10l-42 7v21h211v-21l-28 -6c-17.333 -3.33301 -31.333 -7.5 -42 -12.5s-21.334 -12.167 -32.001 -21.5l-186 -161l234 -280c8.66699 -10.667 17.5 -18.834 26.5 -24.501s22.833 -11.167 41.5 -16.5l19 -6v-21h-283v21l45 7
c12 2 18.833 5.33301 20.5 10s-1.16602 11.667 -8.49902 21l-188 228v-217c0 -14.667 2.16699 -24.5 6.5 -29.5s13.833 -9.16699 28.5 -12.5zM392 -117.999c0 -30.667 -10.499 -56.332 -31.499 -76.999s-53.5 -36.667 -97.5 -48l-6 20c36 12 60.833 23.333 74.5 34
s20.5 23.667 20.5 39c0 11.333 -4.83301 21.166 -14.5 29.499s-29.834 18.5 -60.501 30.5c6.66699 17.333 13.667 28.833 21 34.5s17.333 8.5 30 8.5c18.667 0 34 -6.5 46 -19.5s18 -30.167 18 -51.5z" />
    <glyph glyph-name="kcommaaccent" unicode="&#x137;" horiz-adv-x="477" 
d="M217 17v-17h-205v17l27 7c10 2.66699 16.5 6.16699 19.5 10.5s4.5 12.166 4.5 23.499v516c0 8.66699 -1.16699 15.167 -3.5 19.5s-8.5 9.5 -18.5 15.5l-17 10v14l138 47l11 -7c-2 -12 -3.33301 -23.833 -4 -35.5s-1 -29.167 -1 -52.5v-527
c0 -11.333 1.5 -19.166 4.5 -23.499s9.5 -7.83301 19.5 -10.5zM455 21l20 -4v-17h-208v17l27 4c5.33301 0.666992 8.83301 2.5 10.5 5.5s0.833984 6.83301 -2.49902 11.5l-120 158v7l127 117c4 3.33301 5.16699 7 3.5 11s-4.83398 6.33301 -9.50098 7l-49 7v17h196v-17
l-49 -10c-9.33301 -2 -16.5 -4 -21.5 -6s-11.167 -5.66699 -18.5 -11l-92 -68l149 -199c8.66699 -11.333 15.5 -18.833 20.5 -22.5s10.5 -6.16699 16.5 -7.5zM287 -118c0 -30.667 -10.499 -56.332 -31.499 -76.999s-53.5 -36.667 -97.5 -48l-6 20
c36 12 60.833 23.333 74.5 34s20.5 23.667 20.5 39c0 11.333 -4.83301 21.166 -14.5 29.499s-29.834 18.5 -60.501 30.5c6.66699 17.333 13.667 28.833 21 34.5s17.333 8.5 30 8.5c18.667 0 34 -6.5 46 -19.5s18 -30.167 18 -51.5z" />
    <glyph glyph-name="kgreenlandic" unicode="&#x138;" horiz-adv-x="472" 
d="M222 17l-0.000976562 -17h-205v17l27 7c10 2.66699 16.5 6.16699 19.5 10.5s4.5 12.166 4.5 23.499v208c0 10 -1.16699 17.167 -3.5 21.5s-8.16602 8.83301 -17.499 13.5l-18 10v14l138 47l11 -7c-2 -15.333 -3.33301 -26.833 -4 -34.5s-1 -15.5 -1 -23.5v-249
c0 -11.333 1.5 -19.166 4.5 -23.499s9.5 -7.83301 19.5 -10.5zM479.999 17v-16.999h-208v17l27 4c5.33301 0.666992 9 2.66699 11 6s1 7 -3 11l-120 138v7l127 137c3.33301 3.33301 4.33301 7 3 11s-4.33301 6.33301 -9 7l-49 7v17h196v-17l-49 -10
c-12 -2.66699 -20.333 -5 -25 -7s-9.66699 -5.33301 -15 -10l-96 -83l153 -184c12 -14 20 -22.333 24 -25s8.33301 -4.33398 13 -5.00098z" />
    <glyph glyph-name="Lacute" unicode="&#x139;" horiz-adv-x="526" 
d="M504 143l-10 -143h-459v21l37 7c14.667 3.33301 24.167 7.5 28.5 12.5s6.5 14.833 6.5 29.5v430c0 14.667 -2.16699 24.5 -6.5 29.5s-13.833 9.16699 -28.5 12.5l-37 7v21h257v-21l-37 -7c-14.667 -3.33301 -24.167 -7.5 -28.5 -12.5s-6.5 -14.833 -6.5 -29.5v-435
c0 -16.667 3.66699 -27.667 11 -33s22 -7.33301 44 -6l119 6c16 0.666992 27.833 3.5 35.5 8.5s14.5 14.167 20.5 27.5l36 75h18zM175 617l-19 8.00098l38 111c3.33301 9.33301 7.33301 16.166 12 20.499s10 6.5 16 6.5s10.833 -1.83301 14.5 -5.5s5.5 -8.5 5.5 -14.5
c0 -2.66699 -0.666992 -6 -2 -10s-3.33301 -8.33301 -6 -13z" />
    <glyph glyph-name="lacute" unicode="&#x13a;" horiz-adv-x="231" 
d="M217 17v-17h-203v17l25 7c10 2.66699 16.5 6.16699 19.5 10.5s4.5 12.166 4.5 23.499v516c0 8.66699 -1.16699 15.167 -3.5 19.5s-8.5 9.5 -18.5 15.5l-17 10v14l138 47l11 -7c-2 -12 -3.33301 -23.833 -4 -35.5s-1 -29.167 -1 -52.5v-527
c0 -11.333 1.5 -19.166 4.5 -23.499s9.5 -7.83301 19.5 -10.5zM119 722l-19 8.00098l38 111c3.33301 9.33301 7.33301 16.166 12 20.499s10 6.5 16 6.5s10.833 -1.83301 14.5 -5.5s5.5 -8.5 5.5 -14.5c0 -2.66699 -0.666992 -6 -2 -10s-3.33301 -8.33301 -6 -13z" />
    <glyph glyph-name="Lcommaaccent" unicode="&#x13b;" horiz-adv-x="526" 
d="M504 143l-10 -143h-459v21l37 7c14.667 3.33301 24.167 7.5 28.5 12.5s6.5 14.833 6.5 29.5v430c0 14.667 -2.16699 24.5 -6.5 29.5s-13.833 9.16699 -28.5 12.5l-37 7v21h257v-21l-37 -7c-14.667 -3.33301 -24.167 -7.5 -28.5 -12.5s-6.5 -14.833 -6.5 -29.5v-435
c0 -16.667 3.66699 -27.667 11 -33s22 -7.33301 44 -6l119 6c16 0.666992 27.833 3.5 35.5 8.5s14.5 14.167 20.5 27.5l36 75h18zM387 -118c0 -30.667 -10.499 -56.332 -31.499 -76.999s-53.5 -36.667 -97.5 -48l-6 20c36 12 60.833 23.333 74.5 34s20.5 23.667 20.5 39
c0 11.333 -4.83301 21.166 -14.5 29.499s-29.834 18.5 -60.501 30.5c6.66699 17.333 13.667 28.833 21 34.5s17.333 8.5 30 8.5c18.667 0 34 -6.5 46 -19.5s18 -30.167 18 -51.5z" />
    <glyph glyph-name="lcommaaccent" unicode="&#x13c;" horiz-adv-x="231" 
d="M217 17v-17h-203v17l25 7c10 2.66699 16.5 6.16699 19.5 10.5s4.5 12.166 4.5 23.499v516c0 8.66699 -1.16699 15.167 -3.5 19.5s-8.5 9.5 -18.5 15.5l-17 10v14l138 47l11 -7c-2 -12 -3.33301 -23.833 -4 -35.5s-1 -29.167 -1 -52.5v-527
c0 -11.333 1.5 -19.166 4.5 -23.499s9.5 -7.83301 19.5 -10.5zM177 -118c0 -30.667 -10.499 -56.332 -31.499 -76.999s-53.5 -36.667 -97.5 -48l-6 20c36 12 60.833 23.333 74.5 34s20.5 23.667 20.5 39c0 11.333 -4.83301 21.166 -14.5 29.499s-29.834 18.5 -60.501 30.5
c6.66699 17.333 13.667 28.833 21 34.5s17.333 8.5 30 8.5c18.667 0 34 -6.5 46 -19.5s18 -30.167 18 -51.5z" />
    <glyph glyph-name="Lcaron" unicode="&#x13d;" horiz-adv-x="526" 
d="M504 143l-10 -143h-459v21l37 7c14.667 3.33301 24.167 7.5 28.5 12.5s6.5 14.833 6.5 29.5v430c0 14.667 -2.16699 24.5 -6.5 29.5s-13.833 9.16699 -28.5 12.5l-37 7v21h257v-21l-37 -7c-14.667 -3.33301 -24.167 -7.5 -28.5 -12.5s-6.5 -14.833 -6.5 -29.5v-435
c0 -16.667 3.66699 -27.667 11 -33s22 -7.33301 44 -6l119 6c16 0.666992 27.833 3.5 35.5 8.5s14.5 14.167 20.5 27.5l36 75h18zM325 408l-14 2.00098l16 170c1.33301 12 3.83301 20.5 7.5 25.5s9.5 7.5 17.5 7.5c5.33301 0 10 -1.83301 14 -5.5s6 -8.5 6 -14.5
c0 -2.66699 -0.333008 -5.83398 -1 -9.50098s-2 -8.5 -4 -14.5z" />
    <glyph glyph-name="lcaron" unicode="&#x13e;" horiz-adv-x="283" 
d="M217 17v-17h-203v17l25 7c10 2.66699 16.5 6.16699 19.5 10.5s4.5 12.166 4.5 23.499v516c0 8.66699 -1.16699 15.167 -3.5 19.5s-8.5 9.5 -18.5 15.5l-17 10v14l138 47l11 -7c-2 -12 -3.33301 -23.833 -4 -35.5s-1 -29.167 -1 -52.5v-527
c0 -11.333 1.5 -19.166 4.5 -23.499s9.5 -7.83301 19.5 -10.5zM235 491l-14 2.00098l16 170c1.33301 12 3.83301 20.5 7.5 25.5s9.5 7.5 17.5 7.5c5.33301 0 10 -1.83301 14 -5.5s6 -8.5 6 -14.5c0 -2.66699 -0.333008 -5.83398 -1 -9.50098s-2 -8.5 -4 -14.5z" />
    <glyph glyph-name="Ldot" unicode="&#x13f;" horiz-adv-x="526" 
d="M504 143l-10 -143h-459v21l37 7c14.667 3.33301 24.167 7.5 28.5 12.5s6.5 14.833 6.5 29.5v430c0 14.667 -2.16699 24.5 -6.5 29.5s-13.833 9.16699 -28.5 12.5l-37 7v21h257v-21l-37 -7c-14.667 -3.33301 -24.167 -7.5 -28.5 -12.5s-6.5 -14.833 -6.5 -29.5v-435
c0 -16.667 3.66699 -27.667 11 -33s22 -7.33301 44 -6l119 6c16 0.666992 27.833 3.5 35.5 8.5s14.5 14.167 20.5 27.5l36 75h18zM484 294c0 -15.333 -5.16699 -28.166 -15.5 -38.499s-22.833 -15.5 -37.5 -15.5c-16 0 -29.167 5.16699 -39.5 15.5
s-15.5 23.166 -15.5 38.499s5.33301 28.333 16 39s23.667 16 39 16c14.667 0 27.167 -5.33301 37.5 -16s15.5 -23.667 15.5 -39z" />
    <glyph glyph-name="ldot" unicode="&#x140;" horiz-adv-x="322" 
d="M217 17v-17h-203v17l25 7c10 2.66699 16.5 6.16699 19.5 10.5s4.5 12.166 4.5 23.499v516c0 8.66699 -1.16699 15.167 -3.5 19.5s-8.5 9.5 -18.5 15.5l-17 10v14l138 47l11 -7c-2 -12 -3.33301 -23.833 -4 -35.5s-1 -29.167 -1 -52.5v-527
c0 -11.333 1.5 -19.166 4.5 -23.499s9.5 -7.83301 19.5 -10.5zM329 283c0 -15.333 -5.16699 -28.166 -15.5 -38.499s-22.833 -15.5 -37.5 -15.5c-16 0 -29.167 5.16699 -39.5 15.5s-15.5 23.166 -15.5 38.499s5.33301 28.333 16 39s23.667 16 39 16
c14.667 0 27.167 -5.33301 37.5 -16s15.5 -23.667 15.5 -39z" />
    <glyph glyph-name="Lslash" unicode="&#x141;" horiz-adv-x="526" 
d="M107 257l-60 -25l-12 29l72 29v210c0 14.667 -2.16699 24.5 -6.5 29.5s-13.833 9.16699 -28.5 12.5l-37 7v21h257v-21l-37 -7c-14.667 -3.33301 -24.167 -7.5 -28.5 -12.5s-6.5 -14.833 -6.5 -29.5v-163l106 43l12 -29l-118 -48v-238c0 -16.667 3.66699 -27.667 11 -33
s22 -7.33301 44 -6l119 6c16 0.666992 27.833 3.5 35.5 8.5s14.5 14.167 20.5 27.5l36 75h18l-10 -143h-459v21l37 7c14.667 3.33301 24.167 7.5 28.5 12.5s6.5 14.833 6.5 29.5v187z" />
    <glyph glyph-name="lslash" unicode="&#x142;" horiz-adv-x="231" 
d="M217 17v-17h-203v17l25 7c10 2.66699 16.5 6.16699 19.5 10.5s4.5 12.166 4.5 23.499v240l-63 -32l-13 25l76 38v245c0 8.66699 -1.16699 15.167 -3.5 19.5s-8.5 9.5 -18.5 15.5l-17 10v14l138 47l11 -7c-2 -12 -3.33301 -23.833 -4 -35.5s-1 -29.167 -1 -52.5v-202
l62 31l13 -25l-75 -38v-293c0 -11.333 1.5 -19.166 4.5 -23.499s9.5 -7.83301 19.5 -10.5z" />
    </font>
</defs>
</svg>
